<svg xmlns="http://www.w3.org/2000/svg" width="20" height="20" fill="none" viewBox="0 0 20 20"><path fill="#fff" fill-opacity=".8" d="M6.95522 15.7987H13.0448C13.886 15.7987 14.3004 15.3843 14.3004 14.4678V9.76563C14.3004 8.93694 13.9614 8.51632 13.2582 8.44727V6.89663C13.2582 4.51102 11.6699 3.36217 10 3.36217C8.33008 3.36217 6.74177 4.51102 6.74177 6.89663V8.4661C6.08887 8.56655 5.69964 8.98089 5.69964 9.76563V14.4678C5.69964 15.3843 6.11398 15.7987 6.95522 15.7987ZM7.94713 6.78362C7.94713 5.32087 8.87626 4.5173 10 4.5173C11.1175 4.5173 12.0529 5.32087 12.0529 6.78362V8.43471L7.94713 8.44099V6.78362Z"/></svg>