<svg width="161" height="44" viewBox="0 0 161 44" fill="none" xmlns="http://www.w3.org/2000/svg">
<path d="M57.7642 5.54545H58.9091V12.304C58.9091 12.9072 58.7983 13.4196 58.5767 13.8413C58.3551 14.2629 58.0427 14.583 57.6396 14.8015C57.2364 15.02 56.7609 15.1293 56.2131 15.1293C55.696 15.1293 55.2359 15.0354 54.8327 14.8477C54.4296 14.6568 54.1126 14.386 53.8817 14.0352C53.6509 13.6843 53.5355 13.2673 53.5355 12.7841H54.6619C54.6619 13.0518 54.7281 13.2857 54.8604 13.4858C54.9959 13.6828 55.1805 13.8366 55.4144 13.9474C55.6483 14.0582 55.9145 14.1136 56.2131 14.1136C56.5424 14.1136 56.8224 14.0444 57.0533 13.9059C57.2841 13.7674 57.4595 13.5643 57.5795 13.2965C57.7027 13.0257 57.7642 12.6948 57.7642 12.304V5.54545ZM61.0558 15V7.90909H62.1452V15H61.0558ZM61.6097 6.72727C61.3974 6.72727 61.2143 6.65495 61.0604 6.5103C60.9096 6.36565 60.8342 6.19176 60.8342 5.98864C60.8342 5.78551 60.9096 5.61162 61.0604 5.46697C61.2143 5.32232 61.3974 5.25 61.6097 5.25C61.8221 5.25 62.0037 5.32232 62.1545 5.46697C62.3084 5.61162 62.3853 5.78551 62.3853 5.98864C62.3853 6.19176 62.3084 6.36565 62.1545 6.5103C62.0037 6.65495 61.8221 6.72727 61.6097 6.72727ZM67.1137 15.1477C66.4305 15.1477 65.8411 14.9969 65.3456 14.6953C64.8532 14.3906 64.4731 13.9659 64.2053 13.4212C63.9407 12.8733 63.8083 12.2363 63.8083 11.5099C63.8083 10.7836 63.9407 10.1435 64.2053 9.58949C64.4731 9.03243 64.8455 8.59848 65.3225 8.28764C65.8026 7.97372 66.3628 7.81676 67.0029 7.81676C67.3722 7.81676 67.7369 7.87831 68.097 8.00142C68.4571 8.12453 68.7849 8.32457 69.0803 8.60156C69.3758 8.87547 69.6112 9.23864 69.7867 9.69105C69.9621 10.1435 70.0498 10.7005 70.0498 11.3622V11.8239H64.5839V10.8821H68.9419C68.9419 10.482 68.8618 10.125 68.7018 9.81108C68.5448 9.49716 68.3202 9.24941 68.0278 9.06783C67.7385 8.88625 67.3969 8.79545 67.0029 8.79545C66.569 8.79545 66.1935 8.90317 65.8765 9.11861C65.5626 9.33097 65.321 9.60795 65.1517 9.94957C64.9825 10.2912 64.8978 10.6574 64.8978 11.0483V11.6761C64.8978 12.2116 64.9901 12.6656 65.1748 13.038C65.3625 13.4073 65.6226 13.6889 65.955 13.8828C66.2874 14.0736 66.6736 14.169 67.1137 14.169C67.3999 14.169 67.6585 14.129 67.8893 14.049C68.1232 13.9659 68.3248 13.8428 68.4941 13.6797C68.6633 13.5135 68.7941 13.3073 68.8865 13.0611L69.939 13.3565C69.8282 13.7135 69.642 14.0275 69.3804 14.2983C69.1188 14.5661 68.7957 14.7753 68.411 14.9261C68.0262 15.0739 67.5938 15.1477 67.1137 15.1477ZM72.7966 10.7344V15H71.7071V5.54545H72.7966V9.01705H72.8889C73.0551 8.6508 73.3044 8.35997 73.6368 8.14453C73.9723 7.92602 74.4185 7.81676 74.9756 7.81676C75.4588 7.81676 75.882 7.91371 76.2451 8.1076C76.6083 8.29841 76.8899 8.59233 77.0899 8.98935C77.2931 9.38329 77.3946 9.88494 77.3946 10.4943V15H76.3051V10.5682C76.3051 10.005 76.1589 9.56948 75.8666 9.26172C75.5773 8.95088 75.1756 8.79545 74.6617 8.79545C74.3047 8.79545 73.9846 8.87086 73.7014 9.02166C73.4214 9.17247 73.1998 9.39252 73.0367 9.68182C72.8766 9.97112 72.7966 10.322 72.7966 10.7344ZM81.4744 15.1662C81.0251 15.1662 80.6173 15.0816 80.2511 14.9123C79.8848 14.7399 79.594 14.4922 79.3786 14.169C79.1631 13.8428 79.0554 13.4489 79.0554 12.9872C79.0554 12.581 79.1354 12.2517 79.2955 11.9993C79.4555 11.7438 79.6694 11.5438 79.9371 11.3991C80.2049 11.2545 80.5004 11.1468 80.8235 11.076C81.1497 11.0021 81.4775 10.9437 81.8068 10.9006C82.2377 10.8452 82.587 10.8036 82.8548 10.7759C83.1256 10.7451 83.3226 10.6944 83.4457 10.6236C83.5719 10.5528 83.6349 10.4297 83.6349 10.2543V10.2173C83.6349 9.76184 83.5103 9.40791 83.261 9.15554C83.0148 8.90317 82.6409 8.77699 82.1392 8.77699C81.6191 8.77699 81.2113 8.89086 80.9158 9.11861C80.6204 9.34635 80.4126 9.58949 80.2926 9.84801L79.2585 9.47869C79.4432 9.04782 79.6894 8.71236 79.9972 8.4723C80.308 8.22917 80.6465 8.0599 81.0128 7.96449C81.3821 7.866 81.7453 7.81676 82.1023 7.81676C82.33 7.81676 82.5916 7.84446 82.8871 7.89986C83.1856 7.95218 83.4734 8.06143 83.7504 8.22763C84.0304 8.39382 84.2628 8.64465 84.4474 8.98011C84.6321 9.31558 84.7244 9.76491 84.7244 10.3281V15H83.6349V14.0398H83.5795C83.5057 14.1937 83.3826 14.3583 83.2102 14.5337C83.0379 14.7092 82.8086 14.8584 82.5224 14.9815C82.2362 15.1046 81.8868 15.1662 81.4744 15.1662ZM81.6406 14.1875C82.0715 14.1875 82.4347 14.1029 82.7301 13.9336C83.0286 13.7643 83.2533 13.5458 83.4041 13.2781C83.558 13.0103 83.6349 12.7287 83.6349 12.4332V11.4361C83.5888 11.4915 83.4872 11.5423 83.3303 11.5884C83.1764 11.6315 82.9979 11.67 82.7947 11.7038C82.5947 11.7346 82.3993 11.7623 82.2085 11.7869C82.0207 11.8085 81.8684 11.8269 81.7514 11.8423C81.4683 11.8793 81.2036 11.9393 80.9574 12.0224C80.7143 12.1024 80.5173 12.224 80.3665 12.3871C80.2188 12.5471 80.1449 12.7656 80.1449 13.0426C80.1449 13.4212 80.2849 13.7074 80.565 13.9013C80.8481 14.0921 81.2067 14.1875 81.6406 14.1875ZM87.8025 10.7344V15H86.713V7.90909H87.7655V9.01705H87.8579C88.0241 8.65696 88.2764 8.36766 88.615 8.14915C88.9535 7.92756 89.3905 7.81676 89.926 7.81676C90.4062 7.81676 90.8263 7.91525 91.1863 8.11222C91.5464 8.30611 91.8265 8.60156 92.0265 8.99858C92.2266 9.39252 92.3266 9.8911 92.3266 10.4943V15H91.2371V10.5682C91.2371 10.0111 91.0925 9.57718 90.8032 9.26633C90.5139 8.95241 90.1169 8.79545 89.6121 8.79545C89.2644 8.79545 88.9535 8.87086 88.6796 9.02166C88.4088 9.17247 88.1949 9.39252 88.0379 9.68182C87.8809 9.97112 87.8025 10.322 87.8025 10.7344ZM98.5092 15H97.3089L100.781 5.54545H101.962L105.434 15H104.234L101.408 7.04119H101.335L98.5092 15ZM98.9524 11.3068H103.79V12.3224H98.9524V11.3068ZM107.848 10.7344V15H106.759V7.90909H107.811V9.01705H107.904C108.07 8.65696 108.322 8.36766 108.661 8.14915C108.999 7.92756 109.436 7.81676 109.972 7.81676C110.452 7.81676 110.872 7.91525 111.232 8.11222C111.592 8.30611 111.872 8.60156 112.072 8.99858C112.272 9.39252 112.373 9.8911 112.373 10.4943V15H111.283V10.5682C111.283 10.0111 111.138 9.57718 110.849 9.26633C110.56 8.95241 110.163 8.79545 109.658 8.79545C109.31 8.79545 108.999 8.87086 108.725 9.02166C108.455 9.17247 108.241 9.39252 108.084 9.68182C107.927 9.97112 107.848 10.322 107.848 10.7344ZM116.45 15.1662C116.001 15.1662 115.593 15.0816 115.227 14.9123C114.86 14.7399 114.57 14.4922 114.354 14.169C114.139 13.8428 114.031 13.4489 114.031 12.9872C114.031 12.581 114.111 12.2517 114.271 11.9993C114.431 11.7438 114.645 11.5438 114.913 11.3991C115.18 11.2545 115.476 11.1468 115.799 11.076C116.125 11.0021 116.453 10.9437 116.782 10.9006C117.213 10.8452 117.563 10.8036 117.83 10.7759C118.101 10.7451 118.298 10.6944 118.421 10.6236C118.547 10.5528 118.611 10.4297 118.611 10.2543V10.2173C118.611 9.76184 118.486 9.40791 118.237 9.15554C117.99 8.90317 117.616 8.77699 117.115 8.77699C116.595 8.77699 116.187 8.89086 115.891 9.11861C115.596 9.34635 115.388 9.58949 115.268 9.84801L114.234 9.47869C114.419 9.04782 114.665 8.71236 114.973 8.4723C115.284 8.22917 115.622 8.0599 115.988 7.96449C116.358 7.866 116.721 7.81676 117.078 7.81676C117.306 7.81676 117.567 7.84446 117.863 7.89986C118.161 7.95218 118.449 8.06143 118.726 8.22763C119.006 8.39382 119.238 8.64465 119.423 8.98011C119.608 9.31558 119.7 9.76491 119.7 10.3281V15H118.611V14.0398H118.555C118.481 14.1937 118.358 14.3583 118.186 14.5337C118.013 14.7092 117.784 14.8584 117.498 14.9815C117.212 15.1046 116.862 15.1662 116.45 15.1662ZM116.616 14.1875C117.047 14.1875 117.41 14.1029 117.706 13.9336C118.004 13.7643 118.229 13.5458 118.38 13.2781C118.534 13.0103 118.611 12.7287 118.611 12.4332V11.4361C118.564 11.4915 118.463 11.5423 118.306 11.5884C118.152 11.6315 117.973 11.67 117.77 11.7038C117.57 11.7346 117.375 11.7623 117.184 11.7869C116.996 11.8085 116.844 11.8269 116.727 11.8423C116.444 11.8793 116.179 11.9393 115.933 12.0224C115.69 12.1024 115.493 12.224 115.342 12.3871C115.194 12.5471 115.12 12.7656 115.12 13.0426C115.12 13.4212 115.261 13.7074 115.541 13.9013C115.824 14.0921 116.182 14.1875 116.616 14.1875ZM122.778 10.7344V15H121.689V7.90909H122.741V9.01705H122.833C123 8.65696 123.252 8.36766 123.591 8.14915C123.929 7.92756 124.366 7.81676 124.902 7.81676C125.382 7.81676 125.802 7.91525 126.162 8.11222C126.522 8.30611 126.802 8.60156 127.002 8.99858C127.202 9.39252 127.302 9.8911 127.302 10.4943V15H126.213V10.5682C126.213 10.0111 126.068 9.57718 125.779 9.26633C125.489 8.95241 125.092 8.79545 124.588 8.79545C124.24 8.79545 123.929 8.87086 123.655 9.02166C123.384 9.17247 123.17 9.39252 123.013 9.68182C122.857 9.97112 122.778 10.322 122.778 10.7344ZM131.971 15.1477C131.38 15.1477 130.858 14.9985 130.406 14.6999C129.953 14.3983 129.599 13.9736 129.344 13.4258C129.088 12.8749 128.961 12.224 128.961 11.473C128.961 10.7282 129.088 10.0819 129.344 9.53409C129.599 8.98627 129.955 8.56309 130.41 8.26456C130.866 7.96603 131.392 7.81676 131.989 7.81676C132.451 7.81676 132.815 7.8937 133.083 8.04759C133.354 8.19839 133.56 8.37074 133.702 8.56463C133.846 8.75544 133.959 8.91241 134.039 9.03551H134.131V5.54545H135.221V15H134.168V13.9105H134.039C133.959 14.0398 133.845 14.2029 133.697 14.3999C133.549 14.5937 133.339 14.7676 133.065 14.9215C132.791 15.0723 132.426 15.1477 131.971 15.1477ZM132.118 14.169C132.555 14.169 132.925 14.0552 133.226 13.8274C133.528 13.5966 133.757 13.2781 133.914 12.8718C134.071 12.4625 134.15 11.9901 134.15 11.4545C134.15 10.9252 134.073 10.462 133.919 10.065C133.765 9.66489 133.537 9.35405 133.236 9.13246C132.934 8.90779 132.562 8.79545 132.118 8.79545C131.657 8.79545 131.272 8.91394 130.964 9.15092C130.66 9.38482 130.43 9.70336 130.276 10.1065C130.126 10.5066 130.05 10.956 130.05 11.4545C130.05 11.9593 130.127 12.4179 130.281 12.8303C130.438 13.2396 130.669 13.5658 130.973 13.8089C131.281 14.049 131.663 14.169 132.118 14.169ZM137.367 15V7.90909H138.457V15H137.367ZM137.921 6.72727C137.709 6.72727 137.526 6.65495 137.372 6.5103C137.221 6.36565 137.146 6.19176 137.146 5.98864C137.146 5.78551 137.221 5.61162 137.372 5.46697C137.526 5.32232 137.709 5.25 137.921 5.25C138.134 5.25 138.315 5.32232 138.466 5.46697C138.62 5.61162 138.697 5.78551 138.697 5.98864C138.697 6.19176 138.62 6.36565 138.466 6.5103C138.315 6.65495 138.134 6.72727 137.921 6.72727ZM141.468 12.4148L141.449 11.0668H141.671L144.773 7.90909H146.121L142.816 11.2514H142.724L141.468 12.4148ZM140.452 15V5.54545H141.542V15H140.452ZM144.958 15L142.188 11.4915L142.964 10.7344L146.343 15H144.958ZM149.61 15.1662C149.161 15.1662 148.753 15.0816 148.387 14.9123C148.021 14.7399 147.73 14.4922 147.514 14.169C147.299 13.8428 147.191 13.4489 147.191 12.9872C147.191 12.581 147.271 12.2517 147.431 11.9993C147.591 11.7438 147.805 11.5438 148.073 11.3991C148.341 11.2545 148.636 11.1468 148.959 11.076C149.285 11.0021 149.613 10.9437 149.943 10.9006C150.373 10.8452 150.723 10.8036 150.991 10.7759C151.261 10.7451 151.458 10.6944 151.581 10.6236C151.708 10.5528 151.771 10.4297 151.771 10.2543V10.2173C151.771 9.76184 151.646 9.40791 151.397 9.15554C151.151 8.90317 150.777 8.77699 150.275 8.77699C149.755 8.77699 149.347 8.89086 149.052 9.11861C148.756 9.34635 148.548 9.58949 148.428 9.84801L147.394 9.47869C147.579 9.04782 147.825 8.71236 148.133 8.4723C148.444 8.22917 148.782 8.0599 149.149 7.96449C149.518 7.866 149.881 7.81676 150.238 7.81676C150.466 7.81676 150.727 7.84446 151.023 7.89986C151.321 7.95218 151.609 8.06143 151.886 8.22763C152.166 8.39382 152.399 8.64465 152.583 8.98011C152.768 9.31558 152.86 9.76491 152.86 10.3281V15H151.771V14.0398H151.715C151.641 14.1937 151.518 14.3583 151.346 14.5337C151.174 14.7092 150.944 14.8584 150.658 14.9815C150.372 15.1046 150.023 15.1662 149.61 15.1662ZM149.776 14.1875C150.207 14.1875 150.57 14.1029 150.866 13.9336C151.164 13.7643 151.389 13.5458 151.54 13.2781C151.694 13.0103 151.771 12.7287 151.771 12.4332V11.4361C151.725 11.4915 151.623 11.5423 151.466 11.5884C151.312 11.6315 151.134 11.67 150.93 11.7038C150.73 11.7346 150.535 11.7623 150.344 11.7869C150.156 11.8085 150.004 11.8269 149.887 11.8423C149.604 11.8793 149.339 11.9393 149.093 12.0224C148.85 12.1024 148.653 12.224 148.502 12.3871C148.354 12.5471 148.281 12.7656 148.281 13.0426C148.281 13.4212 148.421 13.7074 148.701 13.9013C148.984 14.0921 149.342 14.1875 149.776 14.1875Z" fill="#908980"/>
<path d="M54.2784 40V28.3636H56.0341V38.4886H61.3068V40H54.2784ZM63.1733 40V31.2727H64.8722V40H63.1733ZM64.0312 29.9261C63.7358 29.9261 63.482 29.8277 63.2699 29.6307C63.0616 29.4299 62.9574 29.1913 62.9574 28.9148C62.9574 28.6345 63.0616 28.3958 63.2699 28.1989C63.482 27.9981 63.7358 27.8977 64.0312 27.8977C64.3267 27.8977 64.5786 27.9981 64.7869 28.1989C64.9991 28.3958 65.1051 28.6345 65.1051 28.9148C65.1051 29.1913 64.9991 29.4299 64.7869 29.6307C64.5786 29.8277 64.3267 29.9261 64.0312 29.9261ZM68.8565 34.8182V40H67.1577V31.2727H68.7884V32.6932H68.8963C69.0971 32.2311 69.4115 31.8598 69.8395 31.5795C70.2713 31.2992 70.8149 31.1591 71.4702 31.1591C72.0649 31.1591 72.5857 31.2841 73.0327 31.5341C73.4796 31.7803 73.8262 32.1477 74.0724 32.6364C74.3187 33.125 74.4418 33.7292 74.4418 34.4489V40H72.7429V34.6534C72.7429 34.0208 72.5781 33.5265 72.2486 33.1705C71.919 32.8106 71.4664 32.6307 70.8906 32.6307C70.4967 32.6307 70.1463 32.7159 69.8395 32.8864C69.5365 33.0568 69.2959 33.3068 69.1179 33.6364C68.9437 33.9621 68.8565 34.3561 68.8565 34.8182ZM78.2827 37.0398L78.2713 34.9659H78.5668L82.044 31.2727H84.0781L80.1122 35.4773H79.8452L78.2827 37.0398ZM76.7202 40V28.3636H78.419V40H76.7202ZM82.2315 40L79.1065 35.8523L80.277 34.6648L84.3168 40H82.2315ZM89.0284 40.1761C88.1686 40.1761 87.428 39.9924 86.8068 39.625C86.1894 39.2538 85.7121 38.733 85.375 38.0625C85.0417 37.3883 84.875 36.5985 84.875 35.6932C84.875 34.7992 85.0417 34.0114 85.375 33.3295C85.7121 32.6477 86.1818 32.1155 86.7841 31.733C87.3902 31.3504 88.0985 31.1591 88.9091 31.1591C89.4015 31.1591 89.8788 31.2405 90.3409 31.4034C90.803 31.5663 91.2178 31.822 91.5852 32.1705C91.9527 32.5189 92.2424 32.9716 92.4545 33.5284C92.6667 34.0814 92.7727 34.7538 92.7727 35.5455V36.1477H85.8352V34.875H91.108C91.108 34.428 91.017 34.0322 90.8352 33.6875C90.6534 33.339 90.3977 33.0644 90.0682 32.8636C89.7424 32.6629 89.3598 32.5625 88.9205 32.5625C88.4432 32.5625 88.0265 32.6799 87.6705 32.9148C87.3182 33.1458 87.0455 33.4489 86.8523 33.8239C86.6629 34.1951 86.5682 34.5985 86.5682 35.0341V36.0284C86.5682 36.6117 86.6705 37.108 86.875 37.517C87.0833 37.9261 87.3731 38.2386 87.7443 38.4545C88.1155 38.6667 88.5492 38.7727 89.0455 38.7727C89.3674 38.7727 89.661 38.7273 89.9261 38.6364C90.1913 38.5417 90.4205 38.4015 90.6136 38.2159C90.8068 38.0303 90.9545 37.8011 91.0568 37.5284L92.6648 37.8182C92.536 38.2917 92.3049 38.7064 91.9716 39.0625C91.642 39.4148 91.2273 39.6894 90.7273 39.8864C90.2311 40.0795 89.6648 40.1761 89.0284 40.1761ZM97.9247 40.1705C97.2202 40.1705 96.5914 39.9905 96.0384 39.6307C95.4891 39.267 95.0573 38.75 94.7429 38.0795C94.4323 37.4053 94.277 36.5966 94.277 35.6534C94.277 34.7102 94.4342 33.9034 94.7486 33.233C95.0668 32.5625 95.5024 32.0492 96.0554 31.6932C96.6084 31.3371 97.2353 31.1591 97.9361 31.1591C98.4777 31.1591 98.9134 31.25 99.2429 31.4318C99.5762 31.6098 99.8338 31.8182 100.016 32.0568C100.201 32.2955 100.345 32.5057 100.447 32.6875H100.55V28.3636H102.249V40H100.589V38.642H100.447C100.345 38.8277 100.197 39.0398 100.004 39.2784C99.8149 39.517 99.5535 39.7254 99.2202 39.9034C98.8868 40.0814 98.455 40.1705 97.9247 40.1705ZM98.2997 38.7216C98.7884 38.7216 99.2012 38.5928 99.5384 38.3352C99.8793 38.0739 100.137 37.7121 100.311 37.25C100.489 36.7879 100.578 36.25 100.578 35.6364C100.578 35.0303 100.491 34.5 100.317 34.0455C100.143 33.5909 99.8868 33.2367 99.5497 32.983C99.2126 32.7292 98.7959 32.6023 98.2997 32.6023C97.7884 32.6023 97.3622 32.7348 97.0213 33C96.6804 33.2652 96.4228 33.6269 96.2486 34.0852C96.0781 34.5436 95.9929 35.0606 95.9929 35.6364C95.9929 36.2197 96.08 36.7443 96.2543 37.2102C96.4285 37.6761 96.6861 38.0455 97.027 38.3182C97.3717 38.5871 97.7959 38.7216 98.2997 38.7216ZM106.565 28.3636V40H104.81V28.3636H106.565ZM110.685 34.8182V40H108.986V31.2727H110.616V32.6932H110.724C110.925 32.2311 111.24 31.8598 111.668 31.5795C112.099 31.2992 112.643 31.1591 113.298 31.1591C113.893 31.1591 114.414 31.2841 114.861 31.5341C115.308 31.7803 115.654 32.1477 115.901 32.6364C116.147 33.125 116.27 33.7292 116.27 34.4489V40H114.571V34.6534C114.571 34.0208 114.406 33.5265 114.077 33.1705C113.747 32.8106 113.295 32.6307 112.719 32.6307C112.325 32.6307 111.974 32.7159 111.668 32.8864C111.365 33.0568 111.124 33.3068 110.946 33.6364C110.772 33.9621 110.685 34.3561 110.685 34.8182Z" fill="#0A66C2"/>
<g clip-path="url(#clip0_166_264)">
<path d="M0 5.865C0 4.2825 1.315 3 2.9375 3H37.0625C38.685 3 40 4.2825 40 5.865V40.135C40 41.7175 38.685 43 37.0625 43H2.9375C1.315 43 0 41.7175 0 40.135V5.865ZM12.3575 36.485V18.4225H6.355V36.485H12.3575ZM9.3575 15.955C11.45 15.955 12.7525 14.57 12.7525 12.835C12.715 11.0625 11.4525 9.715 9.3975 9.715C7.3425 9.715 6 11.065 6 12.835C6 14.57 7.3025 15.955 9.3175 15.955H9.3575ZM21.6275 36.485V26.3975C21.6275 25.8575 21.6675 25.3175 21.8275 24.9325C22.26 23.855 23.2475 22.7375 24.9075 22.7375C27.08 22.7375 27.9475 24.3925 27.9475 26.8225V36.485H33.95V26.125C33.95 20.575 30.99 17.995 27.04 17.995C23.855 17.995 22.4275 19.745 21.6275 20.9775V21.04H21.5875C21.6008 21.0191 21.6141 20.9983 21.6275 20.9775V18.4225H15.6275C15.7025 20.1175 15.6275 36.485 15.6275 36.485H21.6275Z" fill="#0A66C2"/>
</g>
<defs>
<clipPath id="clip0_166_264">
<rect width="40" height="40" fill="white" transform="translate(0 3)"/>
</clipPath>
</defs>
</svg>
