<svg width="146" height="30" viewBox="0 0 146 30" fill="none" xmlns="http://www.w3.org/2000/svg">
<g clip-path="url(#clip0_165_262)">
<path d="M16.2628 1H7C6.07174 1 5.1815 1.36875 4.52513 2.02513C3.86875 2.6815 3.5 3.57174 3.5 4.5V25.5C3.5 26.4283 3.86875 27.3185 4.52513 27.9749C5.1815 28.6313 6.07174 29 7 29H21C21.9283 29 22.8185 28.6313 23.4749 27.9749C24.1313 27.3185 24.5 26.4283 24.5 25.5V9.23725C24.4999 8.77316 24.3155 8.32811 23.9872 8L17.5 1.51275C17.1719 1.18454 16.7268 1.0001 16.2628 1ZM16.625 7.125V3.625L21.875 8.875H18.375C17.9109 8.875 17.4658 8.69063 17.1376 8.36244C16.8094 8.03425 16.625 7.58913 16.625 7.125ZM19.25 15C19.25 16.3924 18.6969 17.7277 17.7123 18.7123C16.7277 19.6969 15.3924 20.25 14 20.25C12.6076 20.25 11.2723 19.6969 10.2877 18.7123C9.30312 17.7277 8.75 16.3924 8.75 15C8.75 13.6076 9.30312 12.2723 10.2877 11.2877C11.2723 10.3031 12.6076 9.75 14 9.75C15.3924 9.75 16.7277 10.3031 17.7123 11.2877C18.6969 12.2723 19.25 13.6076 19.25 15ZM22.75 25.0713V25.5C22.75 25.9641 22.5656 26.4092 22.2374 26.7374C21.9092 27.0656 21.4641 27.25 21 27.25H7C6.53587 27.25 6.09075 27.0656 5.76256 26.7374C5.43437 26.4092 5.25 25.9641 5.25 25.5V25.0713C5.25 25.0713 7 22 14 22C21 22 22.75 25.0713 22.75 25.0713Z" fill="#1E1E1E"/>
</g>
<path d="M42.1733 12H38.8217V2.54545H42.201C43.152 2.54545 43.9706 2.73473 44.657 3.11328C45.3433 3.48875 45.8711 4.02888 46.2404 4.73366C46.6128 5.43845 46.799 6.28172 46.799 7.26349C46.799 8.24834 46.6128 9.0947 46.2404 9.80256C45.8711 10.5104 45.3402 11.0536 44.6477 11.4322C43.9583 11.8107 43.1335 12 42.1733 12ZM40.8207 10.2873H42.0902C42.6811 10.2873 43.1781 10.1826 43.5813 9.97337C43.9876 9.76101 44.2923 9.43324 44.4954 8.99006C44.7016 8.5438 44.8047 7.96828 44.8047 7.26349C44.8047 6.56487 44.7016 5.99396 44.4954 5.55078C44.2923 5.1076 43.9891 4.78137 43.5859 4.57209C43.1828 4.36281 42.6857 4.25817 42.0948 4.25817H40.8207V10.2873ZM51.4466 12.1385C50.7296 12.1385 50.1094 11.9862 49.5862 11.6815C49.0661 11.3737 48.6644 10.9459 48.3813 10.3981C48.0982 9.84718 47.9566 9.20857 47.9566 8.48224C47.9566 7.74976 48.0982 7.10961 48.3813 6.56179C48.6644 6.01089 49.0661 5.5831 49.5862 5.27841C50.1094 4.97064 50.7296 4.81676 51.4466 4.81676C52.1637 4.81676 52.7823 4.97064 53.3025 5.27841C53.8257 5.5831 54.2288 6.01089 54.512 6.56179C54.7951 7.10961 54.9367 7.74976 54.9367 8.48224C54.9367 9.20857 54.7951 9.84718 54.512 10.3981C54.2288 10.9459 53.8257 11.3737 53.3025 11.6815C52.7823 11.9862 52.1637 12.1385 51.4466 12.1385ZM51.4559 10.6151C51.7821 10.6151 52.0545 10.5227 52.273 10.3381C52.4915 10.1503 52.6562 9.89489 52.767 9.57173C52.8808 9.24858 52.9378 8.8808 52.9378 8.46839C52.9378 8.05599 52.8808 7.68821 52.767 7.36506C52.6562 7.0419 52.4915 6.78646 52.273 6.59872C52.0545 6.41098 51.7821 6.31712 51.4559 6.31712C51.1266 6.31712 50.8496 6.41098 50.6249 6.59872C50.4033 6.78646 50.2356 7.0419 50.1217 7.36506C50.0109 7.68821 49.9555 8.05599 49.9555 8.46839C49.9555 8.8808 50.0109 9.24858 50.1217 9.57173C50.2356 9.89489 50.4033 10.1503 50.6249 10.3381C50.8496 10.5227 51.1266 10.6151 51.4559 10.6151ZM57.4365 12L55.5068 4.90909H57.4965L58.5953 9.6733H58.6599L59.8048 4.90909H61.7575L62.9209 9.6456H62.9809L64.0612 4.90909H66.0463L64.1212 12H62.0392L60.8204 7.54048H60.7327L59.5139 12H57.4365ZM69.062 7.90057V12H67.0953V4.90909H68.9696V6.16016H69.0527C69.2097 5.74775 69.4728 5.42152 69.8422 5.18146C70.2115 4.93833 70.6593 4.81676 71.1855 4.81676C71.678 4.81676 72.1073 4.92448 72.4735 5.13991C72.8398 5.35535 73.1245 5.66312 73.3276 6.06321C73.5307 6.46023 73.6323 6.93419 73.6323 7.48508V12H71.6657V7.83594C71.6687 7.40199 71.5579 7.06345 71.3333 6.82031C71.1086 6.5741 70.7993 6.45099 70.4054 6.45099C70.1407 6.45099 69.9068 6.50793 69.7037 6.6218C69.5036 6.73568 69.3467 6.90187 69.2328 7.12038C69.122 7.33582 69.065 7.59588 69.062 7.90057ZM77.1489 2.54545V12H75.1823V2.54545H77.1489ZM81.9281 12.1385C81.211 12.1385 80.5909 11.9862 80.0676 11.6815C79.5475 11.3737 79.1459 10.9459 78.8627 10.3981C78.5796 9.84718 78.438 9.20857 78.438 8.48224C78.438 7.74976 78.5796 7.10961 78.8627 6.56179C79.1459 6.01089 79.5475 5.5831 80.0676 5.27841C80.5909 4.97064 81.211 4.81676 81.9281 4.81676C82.6452 4.81676 83.2638 4.97064 83.7839 5.27841C84.3071 5.5831 84.7103 6.01089 84.9934 6.56179C85.2766 7.10961 85.4181 7.74976 85.4181 8.48224C85.4181 9.20857 85.2766 9.84718 84.9934 10.3981C84.7103 10.9459 84.3071 11.3737 83.7839 11.6815C83.2638 11.9862 82.6452 12.1385 81.9281 12.1385ZM81.9373 10.6151C82.2636 10.6151 82.5359 10.5227 82.7544 10.3381C82.973 10.1503 83.1376 9.89489 83.2484 9.57173C83.3623 9.24858 83.4192 8.8808 83.4192 8.46839C83.4192 8.05599 83.3623 7.68821 83.2484 7.36506C83.1376 7.0419 82.973 6.78646 82.7544 6.59872C82.5359 6.41098 82.2636 6.31712 81.9373 6.31712C81.608 6.31712 81.331 6.41098 81.1064 6.59872C80.8848 6.78646 80.717 7.0419 80.6032 7.36506C80.4924 7.68821 80.437 8.05599 80.437 8.46839C80.437 8.8808 80.4924 9.24858 80.6032 9.57173C80.717 9.89489 80.8848 10.1503 81.1064 10.3381C81.331 10.5227 81.608 10.6151 81.9373 10.6151ZM88.7189 12.1339C88.2665 12.1339 87.8633 12.0554 87.5094 11.8984C87.1555 11.7384 86.8754 11.503 86.6692 11.1921C86.4661 10.8782 86.3645 10.4873 86.3645 10.0195C86.3645 9.62559 86.4368 9.29474 86.5815 9.02699C86.7261 8.75923 86.9231 8.5438 87.1724 8.38068C87.4217 8.21757 87.7048 8.09446 88.0218 8.01136C88.3419 7.92827 88.6774 7.86979 89.0282 7.83594C89.4406 7.79285 89.773 7.75284 90.0254 7.71591C90.2778 7.6759 90.4609 7.61742 90.5748 7.54048C90.6886 7.46354 90.7456 7.34967 90.7456 7.19886V7.17116C90.7456 6.87879 90.6532 6.65258 90.4686 6.49254C90.287 6.3325 90.0285 6.25249 89.693 6.25249C89.3391 6.25249 89.0575 6.33097 88.8482 6.48793C88.6389 6.64181 88.5004 6.8357 88.4327 7.0696L86.6138 6.92188C86.7061 6.491 86.8877 6.11861 87.1586 5.80469C87.4294 5.48769 87.7787 5.24455 88.2065 5.07528C88.6374 4.90294 89.1359 4.81676 89.7022 4.81676C90.0962 4.81676 90.4732 4.86293 90.8333 4.95526C91.1964 5.04759 91.5181 5.1907 91.7981 5.38459C92.0813 5.57848 92.3044 5.82777 92.4675 6.13246C92.6306 6.43407 92.7122 6.79569 92.7122 7.21733V12H90.8471V11.0167H90.7917C90.6779 11.2383 90.5255 11.4337 90.3347 11.603C90.1439 11.7692 89.9146 11.9 89.6468 11.9954C89.3791 12.0877 89.0698 12.1339 88.7189 12.1339ZM89.2821 10.7766C89.5714 10.7766 89.8269 10.7197 90.0485 10.6058C90.2701 10.4889 90.444 10.3319 90.5701 10.1349C90.6963 9.93797 90.7594 9.71484 90.7594 9.46555V8.71307C90.6979 8.75308 90.6132 8.79001 90.5055 8.82386C90.4009 8.85464 90.2824 8.88388 90.15 8.91158C90.0177 8.9362 89.8854 8.95928 89.753 8.98082C89.6207 8.99929 89.5007 9.01622 89.3929 9.0316C89.1621 9.06546 88.9605 9.11932 88.7882 9.19318C88.6158 9.26705 88.4819 9.36707 88.3865 9.49325C88.2911 9.61636 88.2434 9.77024 88.2434 9.9549C88.2434 10.2227 88.3404 10.4273 88.5343 10.5689C88.7312 10.7074 88.9805 10.7766 89.2821 10.7766ZM96.8509 12.1154C96.3123 12.1154 95.8245 11.9769 95.3874 11.6999C94.9535 11.4199 94.6088 11.009 94.3533 10.4673C94.101 9.92259 93.9748 9.25473 93.9748 8.46378C93.9748 7.65128 94.1056 6.97573 94.3672 6.43714C94.6288 5.89548 94.9766 5.49077 95.4105 5.22301C95.8475 4.95218 96.3261 4.81676 96.8462 4.81676C97.2433 4.81676 97.5741 4.88447 97.8388 5.01989C98.1065 5.15223 98.322 5.31842 98.4851 5.51847C98.6513 5.71544 98.7775 5.90933 98.8636 6.10014H98.9237V2.54545H100.886V12H98.9467V10.8643H98.8636C98.7713 11.0613 98.6405 11.2567 98.4712 11.4506C98.305 11.6415 98.0881 11.8 97.8203 11.9261C97.5556 12.0523 97.2325 12.1154 96.8509 12.1154ZM97.4741 10.5504C97.7911 10.5504 98.0588 10.4643 98.2773 10.2919C98.4989 10.1165 98.6682 9.8718 98.7852 9.55788C98.9052 9.24396 98.9652 8.87618 98.9652 8.45455C98.9652 8.03291 98.9067 7.66667 98.7898 7.35582C98.6728 7.04498 98.5036 6.80492 98.282 6.63565C98.0604 6.46638 97.7911 6.38175 97.4741 6.38175C97.1509 6.38175 96.8786 6.46946 96.657 6.64489C96.4354 6.82031 96.2676 7.06345 96.1538 7.37429C96.0399 7.68513 95.983 8.04522 95.983 8.45455C95.983 8.86695 96.0399 9.23165 96.1538 9.54865C96.2707 9.86257 96.4384 10.1088 96.657 10.2873C96.8786 10.4627 97.1509 10.5504 97.4741 10.5504ZM105.548 2.54545H108.013L110.617 8.89773H110.728L113.332 2.54545H115.797V12H113.858V5.84624H113.779L111.333 11.9538H110.012L107.566 5.82315H107.487V12H105.548V2.54545ZM118.621 14.6591C118.372 14.6591 118.138 14.6391 117.919 14.5991C117.704 14.5621 117.525 14.5144 117.384 14.456L117.827 12.9879C118.058 13.0587 118.266 13.0972 118.45 13.1033C118.638 13.1095 118.8 13.0664 118.935 12.9741C119.073 12.8817 119.186 12.7248 119.272 12.5032L119.387 12.2031L116.844 4.90909H118.912L120.38 10.1165H120.454L121.936 4.90909H124.018L121.262 12.7663C121.129 13.148 120.949 13.4804 120.722 13.7635C120.497 14.0497 120.212 14.2698 119.867 14.4237C119.523 14.5806 119.107 14.6591 118.621 14.6591ZM38.8217 27V17.5455H42.5518C43.2659 17.5455 43.8752 17.6732 44.38 17.9286C44.8878 18.181 45.274 18.5395 45.5387 19.0043C45.8065 19.4659 45.9403 20.0091 45.9403 20.6339C45.9403 21.2617 45.8049 21.8018 45.5341 22.2543C45.2633 22.7036 44.8709 23.0483 44.3569 23.2884C43.846 23.5284 43.2274 23.6484 42.5011 23.6484H40.0036V22.0419H42.1779C42.5595 22.0419 42.8765 21.9896 43.1289 21.8849C43.3813 21.7803 43.569 21.6233 43.6921 21.4141C43.8183 21.2048 43.8814 20.9447 43.8814 20.6339C43.8814 20.32 43.8183 20.0553 43.6921 19.8398C43.569 19.6244 43.3797 19.4613 43.1243 19.3505C42.8719 19.2366 42.5534 19.1797 42.1687 19.1797H40.8207V27H38.8217ZM43.9276 22.6974L46.2773 27H44.0707L41.7717 22.6974H43.9276ZM50.4333 27.1385C49.7039 27.1385 49.0761 26.9908 48.5498 26.6953C48.0266 26.3968 47.6234 25.9751 47.3403 25.4304C47.0571 24.8826 46.9156 24.2347 46.9156 23.4869C46.9156 22.7575 47.0571 22.1173 47.3403 21.5664C47.6234 21.0155 48.022 20.5862 48.536 20.2784C49.053 19.9706 49.6593 19.8168 50.3548 19.8168C50.8227 19.8168 51.2581 19.8922 51.6613 20.043C52.0676 20.1907 52.4215 20.4138 52.7231 20.7124C53.0278 21.0109 53.2648 21.3864 53.434 21.8388C53.6033 22.2881 53.6879 22.8144 53.6879 23.4176V23.9577H47.7004V22.739H51.8367C51.8367 22.4558 51.7752 22.205 51.6521 21.9865C51.529 21.768 51.3582 21.5972 51.1396 21.4741C50.9242 21.3479 50.6734 21.2848 50.3872 21.2848C50.0886 21.2848 49.824 21.354 49.5931 21.4925C49.3654 21.628 49.1869 21.8111 49.0576 22.0419C48.9284 22.2696 48.8622 22.5236 48.8591 22.8036V23.9624C48.8591 24.3132 48.9237 24.6164 49.053 24.8718C49.1853 25.1272 49.3715 25.3242 49.6116 25.4627C49.8517 25.6012 50.1363 25.6705 50.4656 25.6705C50.6842 25.6705 50.8842 25.6397 51.0658 25.5781C51.2474 25.5166 51.4028 25.4242 51.532 25.3011C51.6613 25.178 51.7598 25.0272 51.8275 24.8487L53.6464 24.9688C53.5541 25.4058 53.3648 25.7874 53.0786 26.1136C52.7954 26.4368 52.4292 26.6892 51.9798 26.8707C51.5336 27.0492 51.0181 27.1385 50.4333 27.1385ZM60.8712 21.9311L59.0708 22.0419C59.04 21.888 58.9738 21.7495 58.8722 21.6264C58.7707 21.5002 58.6368 21.4002 58.4706 21.3263C58.3075 21.2494 58.1121 21.2109 57.8843 21.2109C57.5796 21.2109 57.3227 21.2756 57.1134 21.4048C56.9041 21.531 56.7994 21.7003 56.7994 21.9126C56.7994 22.0819 56.8672 22.225 57.0026 22.342C57.138 22.4589 57.3704 22.5528 57.6997 22.6236L58.983 22.8821C59.6724 23.0237 60.1864 23.2514 60.5249 23.5653C60.8635 23.8793 61.0328 24.2917 61.0328 24.8026C61.0328 25.2673 60.8958 25.6751 60.6219 26.0259C60.3511 26.3768 59.9787 26.6507 59.5047 26.8477C59.0338 27.0415 58.4906 27.1385 57.8751 27.1385C56.9364 27.1385 56.1885 26.9431 55.6315 26.5522C55.0775 26.1583 54.7528 25.6228 54.6574 24.9457L56.5917 24.8441C56.6502 25.1303 56.7918 25.3488 57.0164 25.4996C57.2411 25.6474 57.5289 25.7212 57.8797 25.7212C58.2244 25.7212 58.5014 25.6551 58.7107 25.5227C58.923 25.3873 59.0307 25.2134 59.0338 25.0011C59.0307 24.8226 58.9553 24.6764 58.8076 24.5625C58.6599 24.4455 58.4321 24.3563 58.1244 24.2947L56.8964 24.0501C56.2039 23.9116 55.6884 23.6715 55.3499 23.3299C55.0144 22.9883 54.8467 22.5528 54.8467 22.0234C54.8467 21.5679 54.9698 21.1755 55.216 20.8462C55.4653 20.5169 55.8146 20.263 56.2639 20.0845C56.7164 19.906 57.2457 19.8168 57.852 19.8168C58.7476 19.8168 59.4524 20.006 59.9664 20.3846C60.4834 20.7631 60.785 21.2786 60.8712 21.9311ZM66.8184 23.9808V19.9091H68.785V27H66.8968V25.712H66.823C66.6629 26.1275 66.3967 26.4614 66.0243 26.7138C65.655 26.9661 65.2041 27.0923 64.6717 27.0923C64.1977 27.0923 63.7807 26.9846 63.4206 26.7692C63.0605 26.5537 62.7789 26.2475 62.5758 25.8505C62.3758 25.4535 62.2742 24.978 62.2711 24.424V19.9091H64.2377V24.0732C64.2408 24.4917 64.3532 24.8226 64.5748 25.0657C64.7963 25.3088 65.0933 25.4304 65.4657 25.4304C65.7027 25.4304 65.9243 25.3765 66.1305 25.2688C66.3367 25.158 66.5029 24.9949 66.6291 24.7795C66.7583 24.564 66.8214 24.2978 66.8184 23.9808ZM70.358 27V19.9091H72.2323V21.1602H72.3154C72.4632 20.7447 72.7094 20.4169 73.0541 20.1768C73.3988 19.9368 73.8112 19.8168 74.2913 19.8168C74.7776 19.8168 75.1915 19.9383 75.5331 20.1815C75.8747 20.4215 76.1025 20.7478 76.2164 21.1602H76.2902C76.4349 20.7539 76.6965 20.4292 77.075 20.1861C77.4566 19.9399 77.9075 19.8168 78.4276 19.8168C79.0893 19.8168 79.6264 20.0276 80.0388 20.4492C80.4543 20.8678 80.662 21.4618 80.662 22.2312V27H78.7V22.619C78.7 22.225 78.5954 21.9296 78.3861 21.7326C78.1768 21.5356 77.9152 21.4371 77.6013 21.4371C77.2443 21.4371 76.9658 21.551 76.7657 21.7788C76.5657 22.0034 76.4656 22.3004 76.4656 22.6697V27H74.559V22.5774C74.559 22.2296 74.459 21.9527 74.259 21.7464C74.062 21.5402 73.8019 21.4371 73.4788 21.4371C73.2603 21.4371 73.0633 21.4925 72.8879 21.6033C72.7155 21.7111 72.5786 21.8634 72.477 22.0604C72.3754 22.2543 72.3247 22.482 72.3247 22.7436V27H70.358ZM85.447 27.1385C84.7176 27.1385 84.0898 26.9908 83.5635 26.6953C83.0403 26.3968 82.6371 25.9751 82.354 25.4304C82.0708 24.8826 81.9292 24.2347 81.9292 23.4869C81.9292 22.7575 82.0708 22.1173 82.354 21.5664C82.6371 21.0155 83.0357 20.5862 83.5496 20.2784C84.0667 19.9706 84.673 19.8168 85.3685 19.8168C85.8363 19.8168 86.2718 19.8922 86.675 20.043C87.0812 20.1907 87.4352 20.4138 87.7368 20.7124C88.0415 21.0109 88.2784 21.3864 88.4477 21.8388C88.617 22.2881 88.7016 22.8144 88.7016 23.4176V23.9577H82.714V22.739H86.8504C86.8504 22.4558 86.7889 22.205 86.6657 21.9865C86.5426 21.768 86.3718 21.5972 86.1533 21.4741C85.9379 21.3479 85.6871 21.2848 85.4008 21.2848C85.1023 21.2848 84.8376 21.354 84.6068 21.4925C84.3791 21.628 84.2006 21.8111 84.0713 22.0419C83.942 22.2696 83.8759 22.5236 83.8728 22.8036V23.9624C83.8728 24.3132 83.9374 24.6164 84.0667 24.8718C84.199 25.1272 84.3852 25.3242 84.6253 25.4627C84.8653 25.6012 85.15 25.6705 85.4793 25.6705C85.6978 25.6705 85.8979 25.6397 86.0795 25.5781C86.261 25.5166 86.4165 25.4242 86.5457 25.3011C86.675 25.178 86.7735 25.0272 86.8412 24.8487L88.6601 24.9688C88.5677 25.4058 88.3785 25.7874 88.0922 26.1136C87.8091 26.4368 87.4429 26.6892 86.9935 26.8707C86.5473 27.0492 86.0318 27.1385 85.447 27.1385Z" fill="#1E1E1E"/>
<defs>
<clipPath id="clip0_165_262">
<rect width="28" height="28" fill="white" transform="translate(0 1)"/>
</clipPath>
</defs>
</svg>
