<svg width="161" height="44" viewBox="0 0 161 44" fill="none" xmlns="http://www.w3.org/2000/svg">
<path d="M56.767 13.3381V7.24432H57.8011V13.3381H56.767ZM54.2372 10.8082V9.77415H60.331V10.8082H54.2372ZM65.6872 15.1293C65.2994 15.1231 64.9117 15.0492 64.5239 14.9077C64.1361 14.7661 63.7822 14.5276 63.4621 14.1921C63.142 13.8536 62.885 13.3965 62.6911 12.821C62.4972 12.2424 62.4003 11.5161 62.4003 10.642C62.4003 9.80492 62.4788 9.06321 62.6357 8.4169C62.7927 7.76752 63.0204 7.22124 63.319 6.77805C63.6175 6.33179 63.9776 5.99325 64.3992 5.76243C64.824 5.5316 65.3025 5.41619 65.835 5.41619C66.3643 5.41619 66.8352 5.52237 67.2476 5.73473C67.6631 5.94401 68.0016 6.23639 68.2632 6.61186C68.5248 6.98733 68.6941 7.41974 68.771 7.90909H67.6446C67.54 7.48437 67.3369 7.13198 67.0352 6.85192C66.7336 6.57185 66.3335 6.43182 65.835 6.43182C65.1025 6.43182 64.5254 6.75035 64.1038 7.38743C63.6852 8.0245 63.4744 8.91856 63.4713 10.0696H63.5452C63.7175 9.808 63.9222 9.58487 64.1592 9.40021C64.3992 9.21248 64.6639 9.06783 64.9532 8.96626C65.2425 8.8647 65.5487 8.81392 65.8719 8.81392C66.4136 8.81392 66.9091 8.94934 67.3584 9.22017C67.8077 9.48793 68.1678 9.85878 68.4387 10.3327C68.7095 10.8036 68.8449 11.3438 68.8449 11.9531C68.8449 12.5379 68.7141 13.0734 68.4525 13.5597C68.1909 14.0429 67.8231 14.4276 67.3492 14.7138C66.8783 14.9969 66.3243 15.1354 65.6872 15.1293ZM65.6872 14.1136C66.075 14.1136 66.4228 14.0167 66.7306 13.8228C67.0414 13.6289 67.2861 13.3688 67.4646 13.0426C67.6462 12.7164 67.7369 12.3532 67.7369 11.9531C67.7369 11.5623 67.6492 11.2068 67.4738 10.8867C67.3015 10.5636 67.0629 10.3066 66.7583 10.1158C66.4566 9.92495 66.1119 9.82955 65.7242 9.82955C65.4318 9.82955 65.1594 9.88802 64.907 10.005C64.6547 10.1188 64.4331 10.2758 64.2423 10.4759C64.0545 10.6759 63.9068 10.9052 63.7991 11.1637C63.6914 11.4192 63.6375 11.6884 63.6375 11.9716C63.6375 12.3471 63.7252 12.6979 63.9007 13.0241C64.0792 13.3504 64.3223 13.6135 64.6301 13.8136C64.9409 14.0136 65.2933 14.1136 65.6872 14.1136ZM70.6603 15V14.169L73.7811 10.7528C74.1473 10.3527 74.4489 10.005 74.6859 9.70952C74.9229 9.41098 75.0983 9.13092 75.2122 8.86932C75.3291 8.60464 75.3876 8.32765 75.3876 8.03835C75.3876 7.70597 75.3076 7.41821 75.1475 7.17507C74.9906 6.93194 74.7752 6.7442 74.5012 6.61186C74.2273 6.47952 73.9196 6.41335 73.5779 6.41335C73.2148 6.41335 72.8978 6.48875 72.627 6.63956C72.3592 6.78729 72.1515 6.99503 72.0037 7.26278C71.8591 7.53054 71.7868 7.84446 71.7868 8.20454H70.6973C70.6973 7.65057 70.825 7.1643 71.0804 6.74574C71.3359 6.32718 71.6837 6.00095 72.1238 5.76704C72.5669 5.53314 73.064 5.41619 73.6149 5.41619C74.1689 5.41619 74.6597 5.53314 75.0875 5.76704C75.5153 6.00095 75.8508 6.31641 76.0939 6.71342C76.3371 7.11044 76.4586 7.55208 76.4586 8.03835C76.4586 8.38613 76.3955 8.72621 76.2694 9.05859C76.1462 9.3879 75.9308 9.75568 75.623 10.1619C75.3184 10.5651 74.8952 11.0575 74.3535 11.6392L72.2299 13.9105V13.9844H76.6248V15H70.6603ZM81.5598 15.1293C80.9258 15.1293 80.3657 15.0169 79.8794 14.7923C79.3962 14.5645 79.0192 14.2521 78.7484 13.8551C78.4776 13.455 78.3437 12.9995 78.3468 12.4886C78.3437 12.0885 78.4222 11.7192 78.5822 11.3807C78.7422 11.0391 78.9608 10.7544 79.2377 10.5266C79.5178 10.2958 79.8302 10.1496 80.1749 10.0881V10.0327C79.7225 9.91572 79.3624 9.66181 79.0946 9.27095C78.8269 8.87701 78.6945 8.42921 78.6976 7.92756C78.6945 7.44744 78.8161 7.01811 79.0623 6.63956C79.3085 6.26101 79.6471 5.96248 80.0779 5.74396C80.5119 5.52545 81.0059 5.41619 81.5598 5.41619C82.1077 5.41619 82.597 5.52545 83.0279 5.74396C83.4587 5.96248 83.7973 6.26101 84.0435 6.63956C84.2928 7.01811 84.419 7.44744 84.4221 7.92756C84.419 8.42921 84.282 8.87701 84.0112 9.27095C83.7434 9.66181 83.388 9.91572 82.9448 10.0327V10.0881C83.2864 10.1496 83.5942 10.2958 83.8681 10.5266C84.142 10.7544 84.3605 11.0391 84.5236 11.3807C84.6867 11.7192 84.7698 12.0885 84.7729 12.4886C84.7698 12.9995 84.6313 13.455 84.3574 13.8551C84.0866 14.2521 83.7096 14.5645 83.2264 14.7923C82.7463 15.0169 82.1908 15.1293 81.5598 15.1293ZM81.5598 14.1136C81.9876 14.1136 82.3569 14.0444 82.6678 13.9059C82.9786 13.7674 83.2187 13.572 83.388 13.3196C83.5572 13.0672 83.6434 12.7718 83.6465 12.4332C83.6434 12.0762 83.5511 11.7608 83.3695 11.4869C83.1879 11.2129 82.9402 10.9975 82.6262 10.8406C82.3154 10.6836 81.9599 10.6051 81.5598 10.6051C81.1567 10.6051 80.7966 10.6836 80.4796 10.8406C80.1657 10.9975 79.9179 11.2129 79.7363 11.4869C79.5578 11.7608 79.4701 12.0762 79.4732 12.4332C79.4701 12.7718 79.5517 13.0672 79.7179 13.3196C79.8871 13.572 80.1287 13.7674 80.4426 13.9059C80.7566 14.0444 81.129 14.1136 81.5598 14.1136ZM81.5598 9.62642C81.8984 9.62642 82.1984 9.55871 82.46 9.4233C82.7247 9.28788 82.9325 9.0986 83.0833 8.85547C83.2341 8.61233 83.311 8.32765 83.3141 8.00142C83.311 7.68134 83.2356 7.40282 83.0879 7.16584C82.9402 6.92578 82.7355 6.74112 82.4739 6.61186C82.2123 6.47952 81.9076 6.41335 81.5598 6.41335C81.2059 6.41335 80.8966 6.47952 80.6319 6.61186C80.3672 6.74112 80.1626 6.92578 80.0179 7.16584C79.8733 7.40282 79.8025 7.68134 79.8056 8.00142C79.8025 8.32765 79.8748 8.61233 80.0225 8.85547C80.1734 9.0986 80.3811 9.28788 80.6458 9.4233C80.9105 9.55871 81.2151 9.62642 81.5598 9.62642ZM89.5521 5.41619C89.9399 5.41927 90.3277 5.49313 90.7155 5.63778C91.1032 5.78243 91.4572 6.02249 91.7773 6.35795C92.0973 6.69034 92.3543 7.14429 92.5482 7.71981C92.7421 8.29534 92.839 9.01705 92.839 9.88494C92.839 10.7251 92.759 11.4715 92.599 12.1239C92.442 12.7733 92.2143 13.3211 91.9157 13.7674C91.6203 14.2137 91.2602 14.5522 90.8355 14.783C90.4139 15.0138 89.9368 15.1293 89.4044 15.1293C88.875 15.1293 88.4026 15.0246 87.9871 14.8153C87.5747 14.603 87.2362 14.3091 86.9715 13.9336C86.7099 13.555 86.5422 13.1165 86.4683 12.6179H87.5947C87.6963 13.0518 87.8979 13.4104 88.1995 13.6935C88.5042 13.9736 88.9058 14.1136 89.4044 14.1136C90.1338 14.1136 90.7093 13.7951 91.1309 13.158C91.5557 12.521 91.768 11.6207 91.768 10.4574H91.6942C91.5218 10.7159 91.3171 10.939 91.0802 11.1268C90.8432 11.3145 90.58 11.4592 90.2907 11.5607C90.0015 11.6623 89.6937 11.7131 89.3675 11.7131C88.8258 11.7131 88.3287 11.5792 87.8763 11.3114C87.427 11.0406 87.0669 10.6697 86.7961 10.1989C86.5283 9.72491 86.3944 9.18324 86.3944 8.57386C86.3944 7.99526 86.5237 7.46591 86.7822 6.98579C87.0438 6.5026 87.4101 6.1179 87.8809 5.83168C88.3549 5.54545 88.912 5.40696 89.5521 5.41619ZM89.5521 6.43182C89.1643 6.43182 88.815 6.52876 88.5042 6.72266C88.1964 6.91347 87.9517 7.17199 87.7702 7.49822C87.5916 7.82138 87.5024 8.17992 87.5024 8.57386C87.5024 8.9678 87.5886 9.32635 87.7609 9.6495C87.9363 9.96958 88.1749 10.225 88.4765 10.4158C88.7812 10.6036 89.1274 10.6974 89.5152 10.6974C89.8076 10.6974 90.0799 10.6405 90.3323 10.5266C90.5847 10.4097 90.8047 10.2512 90.9925 10.0511C91.1833 9.84801 91.3325 9.61873 91.4403 9.36328C91.548 9.10476 91.6018 8.83546 91.6018 8.5554C91.6018 8.18608 91.5126 7.83984 91.3341 7.51669C91.1586 7.19354 90.9155 6.93194 90.6047 6.73189C90.2969 6.53184 89.9461 6.43182 89.5521 6.43182ZM94.696 15L98.9247 6.63494V6.56108H94.0497V5.54545H100.107V6.61648L95.8963 15H94.696ZM104.763 15.1293C104.376 15.1231 103.988 15.0492 103.6 14.9077C103.212 14.7661 102.858 14.5276 102.538 14.1921C102.218 13.8536 101.961 13.3965 101.767 12.821C101.573 12.2424 101.476 11.5161 101.476 10.642C101.476 9.80492 101.555 9.06321 101.712 8.4169C101.869 7.76752 102.097 7.22124 102.395 6.77805C102.694 6.33179 103.054 5.99325 103.475 5.76243C103.9 5.5316 104.379 5.41619 104.911 5.41619C105.44 5.41619 105.911 5.52237 106.324 5.73473C106.739 5.94401 107.078 6.23639 107.339 6.61186C107.601 6.98733 107.77 7.41974 107.847 7.90909H106.721C106.616 7.48437 106.413 7.13198 106.111 6.85192C105.81 6.57185 105.41 6.43182 104.911 6.43182C104.179 6.43182 103.602 6.75035 103.18 7.38743C102.761 8.0245 102.551 8.91856 102.547 10.0696H102.621C102.794 9.808 102.998 9.58487 103.235 9.40021C103.475 9.21248 103.74 9.06783 104.029 8.96626C104.319 8.8647 104.625 8.81392 104.948 8.81392C105.49 8.81392 105.985 8.94934 106.435 9.22017C106.884 9.48793 107.244 9.85878 107.515 10.3327C107.786 10.8036 107.921 11.3438 107.921 11.9531C107.921 12.5379 107.79 13.0734 107.529 13.5597C107.267 14.0429 106.899 14.4276 106.425 14.7138C105.954 14.9969 105.4 15.1354 104.763 15.1293ZM104.763 14.1136C105.151 14.1136 105.499 14.0167 105.807 13.8228C106.118 13.6289 106.362 13.3688 106.541 13.0426C106.722 12.7164 106.813 12.3532 106.813 11.9531C106.813 11.5623 106.725 11.2068 106.55 10.8867C106.378 10.5636 106.139 10.3066 105.834 10.1158C105.533 9.92495 105.188 9.82955 104.8 9.82955C104.508 9.82955 104.236 9.88802 103.983 10.005C103.731 10.1188 103.509 10.2758 103.318 10.4759C103.131 10.6759 102.983 10.9052 102.875 11.1637C102.768 11.4192 102.714 11.6884 102.714 11.9716C102.714 12.3471 102.801 12.6979 102.977 13.0241C103.155 13.3504 103.398 13.6135 103.706 13.8136C104.017 14.0136 104.369 14.1136 104.763 14.1136ZM109.737 15V14.169L112.857 10.7528C113.223 10.3527 113.525 10.005 113.762 9.70952C113.999 9.41098 114.174 9.13092 114.288 8.86932C114.405 8.60464 114.464 8.32765 114.464 8.03835C114.464 7.70597 114.384 7.41821 114.224 7.17507C114.067 6.93194 113.851 6.7442 113.577 6.61186C113.304 6.47952 112.996 6.41335 112.654 6.41335C112.291 6.41335 111.974 6.48875 111.703 6.63956C111.435 6.78729 111.228 6.99503 111.08 7.26278C110.935 7.53054 110.863 7.84446 110.863 8.20454H109.773C109.773 7.65057 109.901 7.1643 110.157 6.74574C110.412 6.32718 110.76 6.00095 111.2 5.76704C111.643 5.53314 112.14 5.41619 112.691 5.41619C113.245 5.41619 113.736 5.53314 114.164 5.76704C114.592 6.00095 114.927 6.31641 115.17 6.71342C115.413 7.11044 115.535 7.55208 115.535 8.03835C115.535 8.38613 115.472 8.72621 115.346 9.05859C115.222 9.3879 115.007 9.75568 114.699 10.1619C114.395 10.5651 113.971 11.0575 113.43 11.6392L111.306 13.9105V13.9844H115.701V15H109.737ZM120.691 15.1293C119.996 15.1293 119.403 14.94 118.914 14.5614C118.425 14.1798 118.051 13.6274 117.792 12.9041C117.534 12.1778 117.404 11.3007 117.404 10.2727C117.404 9.25095 117.534 8.37843 117.792 7.65518C118.054 6.92886 118.429 6.37488 118.919 5.99325C119.411 5.60855 120.002 5.41619 120.691 5.41619C121.381 5.41619 121.97 5.60855 122.46 5.99325C122.952 6.37488 123.327 6.92886 123.586 7.65518C123.848 8.37843 123.978 9.25095 123.978 10.2727C123.978 11.3007 123.849 12.1778 123.591 12.9041C123.332 13.6274 122.958 14.1798 122.469 14.5614C121.979 14.94 121.387 15.1293 120.691 15.1293ZM120.691 14.1136C121.381 14.1136 121.916 13.7812 122.298 13.1165C122.68 12.4517 122.87 11.5038 122.87 10.2727C122.87 9.45407 122.783 8.75698 122.607 8.18146C122.435 7.60594 122.186 7.16738 121.859 6.86577C121.536 6.56416 121.147 6.41335 120.691 6.41335C120.008 6.41335 119.474 6.75035 119.089 7.42436C118.705 8.09529 118.512 9.04474 118.512 10.2727C118.512 11.0914 118.599 11.7869 118.771 12.3594C118.943 12.9318 119.191 13.3673 119.514 13.6658C119.84 13.9644 120.233 14.1136 120.691 14.1136ZM128.927 15.1293C128.318 15.1293 127.775 15.0246 127.298 14.8153C126.824 14.6061 126.447 14.3152 126.167 13.9428C125.89 13.5674 125.739 13.1319 125.714 12.6364H126.877C126.902 12.9411 127.007 13.2042 127.191 13.4258C127.376 13.6443 127.618 13.8136 127.916 13.9336C128.215 14.0536 128.546 14.1136 128.909 14.1136C129.315 14.1136 129.675 14.0429 129.989 13.9013C130.303 13.7597 130.549 13.5627 130.728 13.3104C130.906 13.058 130.995 12.7656 130.995 12.4332C130.995 12.0855 130.909 11.7792 130.737 11.5146C130.565 11.2468 130.312 11.0375 129.98 10.8867C129.647 10.7359 129.241 10.6605 128.761 10.6605H128.004V9.64489H128.761C129.136 9.64489 129.466 9.57718 129.749 9.44176C130.035 9.30634 130.258 9.11553 130.418 8.86932C130.581 8.62311 130.663 8.33381 130.663 8.00142C130.663 7.68134 130.592 7.40282 130.451 7.16584C130.309 6.92886 130.109 6.7442 129.85 6.61186C129.595 6.47952 129.293 6.41335 128.946 6.41335C128.619 6.41335 128.312 6.47337 128.022 6.59339C127.736 6.71035 127.502 6.88116 127.321 7.10582C127.139 7.32741 127.041 7.59517 127.025 7.90909H125.917C125.936 7.41359 126.085 6.97964 126.365 6.60724C126.645 6.23177 127.011 5.93939 127.464 5.73011C127.919 5.52083 128.419 5.41619 128.964 5.41619C129.549 5.41619 130.051 5.53468 130.469 5.77166C130.888 6.00556 131.209 6.31487 131.434 6.69957C131.659 7.08428 131.771 7.49976 131.771 7.94602C131.771 8.47846 131.631 8.93241 131.351 9.30788C131.074 9.68336 130.697 9.94342 130.22 10.0881V10.1619C130.817 10.2604 131.283 10.5143 131.619 10.9237C131.954 11.3299 132.122 11.8331 132.122 12.4332C132.122 12.9472 131.982 13.4089 131.702 13.8182C131.425 14.2244 131.046 14.5445 130.566 14.7784C130.086 15.0123 129.54 15.1293 128.927 15.1293ZM137.038 15.1293C136.404 15.1293 135.844 15.0169 135.358 14.7923C134.875 14.5645 134.498 14.2521 134.227 13.8551C133.956 13.455 133.822 12.9995 133.825 12.4886C133.822 12.0885 133.901 11.7192 134.061 11.3807C134.221 11.0391 134.439 10.7544 134.716 10.5266C134.996 10.2958 135.309 10.1496 135.653 10.0881V10.0327C135.201 9.91572 134.841 9.66181 134.573 9.27095C134.305 8.87701 134.173 8.42921 134.176 7.92756C134.173 7.44744 134.295 7.01811 134.541 6.63956C134.787 6.26101 135.126 5.96248 135.556 5.74396C135.99 5.52545 136.484 5.41619 137.038 5.41619C137.586 5.41619 138.076 5.52545 138.506 5.74396C138.937 5.96248 139.276 6.26101 139.522 6.63956C139.771 7.01811 139.897 7.44744 139.901 7.92756C139.897 8.42921 139.761 8.87701 139.49 9.27095C139.222 9.66181 138.866 9.91572 138.423 10.0327V10.0881C138.765 10.1496 139.073 10.2958 139.347 10.5266C139.621 10.7544 139.839 11.0391 140.002 11.3807C140.165 11.7192 140.248 12.0885 140.251 12.4886C140.248 12.9995 140.11 13.455 139.836 13.8551C139.565 14.2521 139.188 14.5645 138.705 14.7923C138.225 15.0169 137.669 15.1293 137.038 15.1293ZM137.038 14.1136C137.466 14.1136 137.835 14.0444 138.146 13.9059C138.457 13.7674 138.697 13.572 138.866 13.3196C139.036 13.0672 139.122 12.7718 139.125 12.4332C139.122 12.0762 139.03 11.7608 138.848 11.4869C138.666 11.2129 138.419 10.9975 138.105 10.8406C137.794 10.6836 137.438 10.6051 137.038 10.6051C136.635 10.6051 136.275 10.6836 135.958 10.8406C135.644 10.9975 135.396 11.2129 135.215 11.4869C135.036 11.7608 134.949 12.0762 134.952 12.4332C134.949 12.7718 135.03 13.0672 135.196 13.3196C135.366 13.572 135.607 13.7674 135.921 13.9059C136.235 14.0444 136.607 14.1136 137.038 14.1136ZM137.038 9.62642C137.377 9.62642 137.677 9.55871 137.939 9.4233C138.203 9.28788 138.411 9.0986 138.562 8.85547C138.713 8.61233 138.79 8.32765 138.793 8.00142C138.79 7.68134 138.714 7.40282 138.566 7.16584C138.419 6.92578 138.214 6.74112 137.952 6.61186C137.691 6.47952 137.386 6.41335 137.038 6.41335C136.684 6.41335 136.375 6.47952 136.11 6.61186C135.846 6.74112 135.641 6.92578 135.496 7.16584C135.352 7.40282 135.281 7.68134 135.284 8.00142C135.281 8.32765 135.353 8.61233 135.501 8.85547C135.652 9.0986 135.86 9.28788 136.124 9.4233C136.389 9.55871 136.694 9.62642 137.038 9.62642ZM141.799 13.0611V12.1193L145.954 5.54545H146.637V7.00426H146.176L143.036 11.9716V12.0455H148.631V13.0611H141.799ZM146.249 15V12.7749V12.3363V5.54545H147.339V15H146.249ZM150.362 15V14.169L153.482 10.7528C153.848 10.3527 154.15 10.005 154.387 9.70952C154.624 9.41098 154.799 9.13092 154.913 8.86932C155.03 8.60464 155.089 8.32765 155.089 8.03835C155.089 7.70597 155.009 7.41821 154.849 7.17507C154.692 6.93194 154.476 6.7442 154.202 6.61186C153.929 6.47952 153.621 6.41335 153.279 6.41335C152.916 6.41335 152.599 6.48875 152.328 6.63956C152.06 6.78729 151.853 6.99503 151.705 7.26278C151.56 7.53054 151.488 7.84446 151.488 8.20454H150.398C150.398 7.65057 150.526 7.1643 150.782 6.74574C151.037 6.32718 151.385 6.00095 151.825 5.76704C152.268 5.53314 152.765 5.41619 153.316 5.41619C153.87 5.41619 154.361 5.53314 154.789 5.76704C155.217 6.00095 155.552 6.31641 155.795 6.71342C156.038 7.11044 156.16 7.55208 156.16 8.03835C156.16 8.38613 156.097 8.72621 155.971 9.05859C155.847 9.3879 155.632 9.75568 155.324 10.1619C155.02 10.5651 154.596 11.0575 154.055 11.6392L151.931 13.9105V13.9844H156.326V15H150.362Z" fill="#908980"/>
<path d="M56.5568 40L53.3295 28.3636H55.1761L57.4432 37.375H57.5511L59.9091 28.3636H61.7386L64.0966 37.3807H64.2045L66.4659 28.3636H68.3182L65.0852 40H63.3182L60.8693 31.2841H60.7784L58.3295 40H56.5568ZM71.4815 34.8182V40H69.7827V28.3636H71.4588V32.6932H71.5668C71.7713 32.2235 72.0838 31.8504 72.5043 31.5739C72.9247 31.2973 73.474 31.1591 74.152 31.1591C74.7505 31.1591 75.2732 31.2822 75.7202 31.5284C76.1709 31.7746 76.5194 32.142 76.7656 32.6307C77.0156 33.1155 77.1406 33.7216 77.1406 34.4489V40H75.4418V34.6534C75.4418 34.0133 75.277 33.517 74.9474 33.1648C74.6179 32.8087 74.1596 32.6307 73.5724 32.6307C73.1709 32.6307 72.8111 32.7159 72.4929 32.8864C72.1785 33.0568 71.9304 33.3068 71.7486 33.6364C71.5705 33.9621 71.4815 34.3561 71.4815 34.8182ZM81.9474 40.1932C81.3944 40.1932 80.8944 40.0909 80.4474 39.8864C80.0005 39.678 79.6463 39.3769 79.3849 38.983C79.1274 38.589 78.9986 38.1061 78.9986 37.5341C78.9986 37.0417 79.0933 36.6364 79.2827 36.3182C79.4721 36 79.7277 35.7481 80.0497 35.5625C80.3717 35.3769 80.7315 35.2367 81.1293 35.142C81.527 35.0473 81.9323 34.9754 82.3452 34.9261C82.8679 34.8655 83.2921 34.8163 83.6179 34.7784C83.9437 34.7367 84.1804 34.6705 84.3281 34.5795C84.4759 34.4886 84.5497 34.3409 84.5497 34.1364V34.0966C84.5497 33.6004 84.4096 33.2159 84.1293 32.9432C83.8527 32.6705 83.4399 32.5341 82.8906 32.5341C82.3187 32.5341 81.8679 32.661 81.5384 32.9148C81.2126 33.1648 80.9872 33.4432 80.8622 33.75L79.2656 33.3864C79.455 32.8561 79.7315 32.428 80.0952 32.1023C80.4626 31.7727 80.8849 31.5341 81.3622 31.3864C81.8395 31.2348 82.3414 31.1591 82.8679 31.1591C83.2164 31.1591 83.5857 31.2008 83.9759 31.2841C84.3698 31.3636 84.7372 31.5114 85.0781 31.7273C85.4228 31.9432 85.705 32.2519 85.9247 32.6534C86.1444 33.0511 86.2543 33.5682 86.2543 34.2045V40H84.5952V38.8068H84.527C84.4171 39.0265 84.2524 39.2424 84.0327 39.4545C83.813 39.6667 83.5308 39.8428 83.1861 39.983C82.8414 40.1231 82.4285 40.1932 81.9474 40.1932ZM82.3168 38.8295C82.7865 38.8295 83.188 38.7367 83.5213 38.5511C83.8584 38.3655 84.1141 38.1231 84.2884 37.8239C84.4664 37.5208 84.5554 37.197 84.5554 36.8523V35.7273C84.4948 35.7879 84.3774 35.8447 84.2031 35.8977C84.0327 35.947 83.8376 35.9905 83.6179 36.0284C83.3982 36.0625 83.1842 36.0947 82.9759 36.125C82.7675 36.1515 82.5933 36.1742 82.4531 36.1932C82.1236 36.2348 81.8224 36.3049 81.5497 36.4034C81.2808 36.5019 81.0649 36.6439 80.902 36.8295C80.7429 37.0114 80.6634 37.2538 80.6634 37.5568C80.6634 37.9773 80.8187 38.2955 81.1293 38.5114C81.4399 38.7235 81.8357 38.8295 82.3168 38.8295ZM92.5909 31.2727V32.6364H87.8239V31.2727H92.5909ZM89.1023 29.1818H90.8011V37.4375C90.8011 37.767 90.8504 38.0152 90.9489 38.1818C91.0473 38.3447 91.1742 38.4564 91.3295 38.517C91.4886 38.5739 91.661 38.6023 91.8466 38.6023C91.983 38.6023 92.1023 38.5928 92.2045 38.5739C92.3068 38.5549 92.3864 38.5398 92.4432 38.5284L92.75 39.9318C92.6515 39.9697 92.5114 40.0076 92.3295 40.0455C92.1477 40.0871 91.9205 40.1098 91.6477 40.1136C91.2008 40.1212 90.7841 40.0417 90.3977 39.875C90.0114 39.7083 89.6989 39.4508 89.4602 39.1023C89.2216 38.7538 89.1023 38.3163 89.1023 37.7898V29.1818ZM100.869 33.4034L99.3295 33.6761C99.2652 33.4792 99.1629 33.2917 99.0227 33.1136C98.8864 32.9356 98.7008 32.7898 98.4659 32.6761C98.2311 32.5625 97.9375 32.5057 97.5852 32.5057C97.1042 32.5057 96.7027 32.6136 96.3807 32.8295C96.0587 33.0417 95.8977 33.3163 95.8977 33.6534C95.8977 33.9451 96.0057 34.1799 96.2216 34.358C96.4375 34.536 96.786 34.6818 97.267 34.7955L98.6534 35.1136C99.4564 35.2992 100.055 35.5852 100.449 35.9716C100.843 36.358 101.04 36.8598 101.04 37.4773C101.04 38 100.888 38.4659 100.585 38.875C100.286 39.2803 99.8674 39.5985 99.3295 39.8295C98.7955 40.0606 98.1761 40.1761 97.4716 40.1761C96.4943 40.1761 95.697 39.9678 95.0795 39.5511C94.4621 39.1307 94.0833 38.5341 93.9432 37.7614L95.5852 37.5114C95.6875 37.9394 95.8977 38.2633 96.2159 38.483C96.5341 38.6989 96.9489 38.8068 97.4602 38.8068C98.017 38.8068 98.4621 38.6913 98.7955 38.4602C99.1288 38.2254 99.2955 37.9394 99.2955 37.6023C99.2955 37.3295 99.1932 37.1004 98.9886 36.9148C98.7879 36.7292 98.4792 36.589 98.0625 36.4943L96.5852 36.1705C95.7708 35.9848 95.1686 35.6894 94.7784 35.2841C94.392 34.8788 94.1989 34.3655 94.1989 33.7443C94.1989 33.2292 94.3428 32.7784 94.6307 32.392C94.9186 32.0057 95.3163 31.7045 95.8239 31.4886C96.3314 31.2689 96.9129 31.1591 97.5682 31.1591C98.5114 31.1591 99.2538 31.3636 99.7955 31.7727C100.337 32.178 100.695 32.7216 100.869 33.4034ZM104.027 40H102.163L106.351 28.3636H108.379L112.567 40H110.703L107.413 30.4773H107.322L104.027 40ZM104.339 35.4432H110.385V36.9205H104.339V35.4432ZM114.111 43.2727V31.2727H115.77V32.6875H115.912C116.01 32.5057 116.152 32.2955 116.338 32.0568C116.524 31.8182 116.781 31.6098 117.111 31.4318C117.44 31.25 117.876 31.1591 118.418 31.1591C119.122 31.1591 119.751 31.3371 120.304 31.6932C120.857 32.0492 121.291 32.5625 121.605 33.233C121.923 33.9034 122.082 34.7102 122.082 35.6534C122.082 36.5966 121.925 37.4053 121.611 38.0795C121.296 38.75 120.865 39.267 120.315 39.6307C119.766 39.9905 119.139 40.1705 118.435 40.1705C117.904 40.1705 117.471 40.0814 117.134 39.9034C116.8 39.7254 116.539 39.517 116.349 39.2784C116.16 39.0398 116.014 38.8277 115.912 38.642H115.81V43.2727H114.111ZM115.776 35.6364C115.776 36.25 115.865 36.7879 116.043 37.25C116.221 37.7121 116.478 38.0739 116.815 38.3352C117.152 38.5928 117.565 38.7216 118.054 38.7216C118.562 38.7216 118.986 38.5871 119.327 38.3182C119.668 38.0455 119.925 37.6761 120.099 37.2102C120.277 36.7443 120.366 36.2197 120.366 35.6364C120.366 35.0606 120.279 34.5436 120.105 34.0852C119.935 33.6269 119.677 33.2652 119.332 33C118.991 32.7348 118.565 32.6023 118.054 32.6023C117.562 32.6023 117.145 32.7292 116.804 32.983C116.467 33.2367 116.211 33.5909 116.037 34.0455C115.863 34.5 115.776 35.0303 115.776 35.6364ZM123.986 43.2727V31.2727H125.645V32.6875H125.787C125.885 32.5057 126.027 32.2955 126.213 32.0568C126.399 31.8182 126.656 31.6098 126.986 31.4318C127.315 31.25 127.751 31.1591 128.293 31.1591C128.997 31.1591 129.626 31.3371 130.179 31.6932C130.732 32.0492 131.166 32.5625 131.48 33.233C131.798 33.9034 131.957 34.7102 131.957 35.6534C131.957 36.5966 131.8 37.4053 131.486 38.0795C131.171 38.75 130.74 39.267 130.19 39.6307C129.641 39.9905 129.014 40.1705 128.31 40.1705C127.779 40.1705 127.346 40.0814 127.009 39.9034C126.675 39.7254 126.414 39.517 126.224 39.2784C126.035 39.0398 125.889 38.8277 125.787 38.642H125.685V43.2727H123.986ZM125.651 35.6364C125.651 36.25 125.74 36.7879 125.918 37.25C126.096 37.7121 126.353 38.0739 126.69 38.3352C127.027 38.5928 127.44 38.7216 127.929 38.7216C128.437 38.7216 128.861 38.5871 129.202 38.3182C129.543 38.0455 129.8 37.6761 129.974 37.2102C130.152 36.7443 130.241 36.2197 130.241 35.6364C130.241 35.0606 130.154 34.5436 129.98 34.0852C129.81 33.6269 129.552 33.2652 129.207 33C128.866 32.7348 128.44 32.6023 127.929 32.6023C127.437 32.6023 127.02 32.7292 126.679 32.983C126.342 33.2367 126.086 33.5909 125.912 34.0455C125.738 34.5 125.651 35.0303 125.651 35.6364Z" fill="#075E54"/>
<g clip-path="url(#clip0_166_265)">
<path d="M34.0025 9.81512C32.1687 7.96431 29.9848 6.49698 27.5783 5.49864C25.1717 4.50029 22.5904 3.99089 19.985 4.00012C9.0675 4.00012 0.17 12.8951 0.16 23.8151C0.16 27.3126 1.075 30.7151 2.8025 33.7276L0 44.0001L10.51 41.2451C13.4175 42.8274 16.6748 43.6568 19.985 43.6576H19.995C30.915 43.6576 39.81 34.7626 39.82 23.8326C39.8225 21.2277 39.3095 18.6481 38.3107 16.2423C37.3118 13.8365 35.8493 11.6522 34.0025 9.81512ZM19.985 40.3026C17.0325 40.3036 14.1343 39.5091 11.595 38.0026L10.995 37.6426L4.76 39.2776L6.425 33.1951L6.035 32.5676C4.38452 29.9434 3.51162 26.9052 3.5175 23.8051C3.5175 14.7401 10.91 7.34512 19.995 7.34512C22.1594 7.34124 24.3031 7.76581 26.3026 8.59435C28.302 9.42289 30.1177 10.639 31.645 12.1726C33.1776 13.7002 34.3925 15.5162 35.2198 17.5157C36.0471 19.5152 36.4703 21.6587 36.465 23.8226C36.455 32.9201 29.0625 40.3026 19.985 40.3026ZM29.0225 27.9676C28.53 27.7201 26.0975 26.5226 25.64 26.3526C25.185 26.1901 24.8525 26.1051 24.5275 26.6001C24.195 27.0926 23.245 28.2151 22.96 28.5376C22.675 28.8701 22.38 28.9076 21.885 28.6626C21.3925 28.4126 19.795 27.8926 17.905 26.2001C16.43 24.8876 15.4425 23.2626 15.1475 22.7701C14.8625 22.2751 15.12 22.0101 15.3675 21.7626C15.585 21.5426 15.86 21.1826 16.1075 20.8976C16.3575 20.6126 16.44 20.4026 16.6025 20.0726C16.765 19.7376 16.6875 19.4526 16.565 19.2051C16.44 18.9576 15.4525 16.5151 15.035 15.5301C14.635 14.5576 14.2275 14.6926 13.9225 14.6801C13.6375 14.6626 13.305 14.6626 12.9725 14.6626C12.7214 14.6689 12.4743 14.7269 12.2467 14.8332C12.0192 14.9395 11.816 15.0916 11.65 15.2801C11.195 15.7751 9.9225 16.9726 9.9225 19.4151C9.9225 21.8576 11.6975 24.2051 11.9475 24.5376C12.1925 24.8701 15.4325 29.8676 20.405 32.0176C21.58 32.5301 22.505 32.8326 23.2275 33.0626C24.415 33.4426 25.4875 33.3851 26.3425 33.2626C27.2925 33.1176 29.27 32.0626 29.6875 30.9051C30.0975 29.7451 30.0975 28.7551 29.9725 28.5476C29.85 28.3376 29.5175 28.2151 29.0225 27.9676Z" fill="#075E54"/>
</g>
<defs>
<clipPath id="clip0_166_265">
<rect width="40" height="40" fill="white" transform="translate(0 4)"/>
</clipPath>
</defs>
</svg>
