<svg width="161" height="44" viewBox="0 0 161 44" fill="none" xmlns="http://www.w3.org/2000/svg">
<path d="M59.4446 17.4929C58.5028 17.4929 57.6703 17.3636 56.9471 17.1051C56.2238 16.8497 55.616 16.4727 55.1236 15.9741C54.6312 15.4755 54.2588 14.8646 54.0064 14.1413C53.754 13.4181 53.6278 12.5902 53.6278 11.6577C53.6278 10.7559 53.7556 9.94957 54.011 9.23864C54.2695 8.5277 54.6435 7.92448 55.1328 7.42898C55.6252 6.9304 56.2223 6.55031 56.924 6.28871C57.6288 6.02711 58.4259 5.89631 59.3153 5.89631C60.1802 5.89631 60.9373 6.03788 61.5866 6.32102C62.2391 6.60109 62.7839 6.98118 63.2209 7.46129C63.661 7.93833 63.9903 8.47538 64.2088 9.07244C64.4304 9.66951 64.5412 10.285 64.5412 10.919C64.5412 11.3653 64.5196 11.8177 64.4766 12.2763C64.4335 12.7348 64.3427 13.1565 64.2042 13.5412C64.0657 13.9228 63.8518 14.2306 63.5625 14.4645C63.2763 14.6984 62.8885 14.8153 62.3991 14.8153C62.1837 14.8153 61.9467 14.7815 61.6882 14.7138C61.4297 14.6461 61.2004 14.5337 61.0004 14.3768C60.8003 14.2198 60.6818 14.009 60.6449 13.7443H60.5895C60.5156 13.9228 60.4018 14.0921 60.2479 14.2521C60.0971 14.4122 59.8986 14.5399 59.6523 14.6353C59.4092 14.7307 59.1122 14.7723 58.7614 14.7599C58.3613 14.7446 58.0089 14.6553 57.7042 14.4922C57.3995 14.326 57.1441 14.1013 56.9379 13.8182C56.7347 13.532 56.5808 13.2011 56.4762 12.8256C56.3746 12.4471 56.3239 12.0393 56.3239 11.6023C56.3239 11.1868 56.3854 10.8067 56.5085 10.462C56.6316 10.1173 56.8024 9.8157 57.021 9.55717C57.2425 9.29865 57.5011 9.09245 57.7965 8.93857C58.0951 8.78161 58.4167 8.68466 58.7614 8.64773C59.0691 8.61695 59.3492 8.6308 59.6016 8.68928C59.8539 8.74467 60.0617 8.82931 60.2248 8.94318C60.3879 9.05398 60.491 9.17708 60.5341 9.3125H60.5895V8.79545H61.5682V12.9688C61.5682 13.2273 61.6405 13.455 61.7852 13.652C61.9298 13.849 62.1406 13.9474 62.4176 13.9474C62.7315 13.9474 62.9716 13.8397 63.1378 13.6243C63.3071 13.4089 63.4225 13.0765 63.484 12.6271C63.5487 12.1778 63.581 11.6023 63.581 10.9006C63.581 10.4882 63.524 10.0819 63.4102 9.68182C63.2994 9.27865 63.1301 8.90163 62.9023 8.55078C62.6777 8.19993 62.393 7.89062 62.0483 7.62287C61.7036 7.35511 61.2989 7.14583 60.8342 6.99503C60.3725 6.84115 59.8478 6.7642 59.2599 6.7642C58.5367 6.7642 57.8888 6.87654 57.3164 7.10121C56.747 7.3228 56.2623 7.64749 55.8622 8.07528C55.4652 8.5 55.1621 9.01705 54.9528 9.62642C54.7466 10.2327 54.6435 10.9221 54.6435 11.6946C54.6435 12.4794 54.7466 13.1765 54.9528 13.7859C55.1621 14.3952 55.4698 14.9092 55.8761 15.3278C56.2854 15.7463 56.7917 16.0633 57.3949 16.2788C57.9981 16.4973 58.6937 16.6065 59.4815 16.6065C59.8201 16.6065 60.154 16.5742 60.4833 16.5096C60.8126 16.445 61.1035 16.3742 61.3558 16.2972C61.6082 16.2203 61.7898 16.1634 61.9006 16.1264L62.1591 16.9759C61.9683 17.0559 61.719 17.1359 61.4112 17.2159C61.1065 17.2959 60.7803 17.3621 60.4325 17.4144C60.0878 17.4667 59.7585 17.4929 59.4446 17.4929ZM58.9091 13.8182C59.3215 13.8182 59.6554 13.7351 59.9109 13.5689C60.1663 13.4027 60.3525 13.1519 60.4695 12.8164C60.5864 12.4809 60.6449 12.0578 60.6449 11.5469C60.6449 11.0298 60.5803 10.6267 60.451 10.3374C60.3217 10.0481 60.1309 9.84493 59.8786 9.72798C59.6262 9.61103 59.3153 9.55256 58.946 9.55256C58.5952 9.55256 58.2951 9.64489 58.0458 9.82955C57.7996 10.0111 57.6103 10.2543 57.478 10.5589C57.3487 10.8606 57.2841 11.1899 57.2841 11.5469C57.2841 11.9408 57.3364 12.3117 57.4411 12.6594C57.5457 13.0041 57.7165 13.2842 57.9535 13.4996C58.1905 13.712 58.509 13.8182 58.9091 13.8182ZM69.2558 7.90909V8.83239H65.5811V7.90909H69.2558ZM66.6521 6.21023H67.7416V12.9688C67.7416 13.2765 67.7862 13.5073 67.8754 13.6612C67.9678 13.812 68.0847 13.9136 68.2263 13.9659C68.3709 14.0152 68.5233 14.0398 68.6833 14.0398C68.8034 14.0398 68.9018 14.0336 68.9788 14.0213C69.0557 14.0059 69.1173 13.9936 69.1634 13.9844L69.385 14.9631C69.3112 14.9908 69.2081 15.0185 69.0757 15.0462C68.9434 15.0769 68.7757 15.0923 68.5725 15.0923C68.2648 15.0923 67.9632 15.0262 67.6677 14.8938C67.3753 14.7615 67.1322 14.5599 66.9383 14.2891C66.7475 14.0182 66.6521 13.6766 66.6521 13.2642V6.21023ZM73.7915 15.1477C73.1082 15.1477 72.5189 14.9969 72.0233 14.6953C71.5309 14.3906 71.1508 13.9659 70.8831 13.4212C70.6184 12.8733 70.4861 12.2363 70.4861 11.5099C70.4861 10.7836 70.6184 10.1435 70.8831 9.58949C71.1508 9.03243 71.5232 8.59848 72.0003 8.28764C72.4804 7.97372 73.0405 7.81676 73.6807 7.81676C74.05 7.81676 74.4147 7.87831 74.7748 8.00142C75.1349 8.12453 75.4626 8.32457 75.7581 8.60156C76.0535 8.87547 76.289 9.23864 76.4644 9.69105C76.6398 10.1435 76.7275 10.7005 76.7275 11.3622V11.8239H71.2616V10.8821H75.6196C75.6196 10.482 75.5396 10.125 75.3795 9.81108C75.2226 9.49716 74.9979 9.24941 74.7055 9.06783C74.4162 8.88625 74.0746 8.79545 73.6807 8.79545C73.2467 8.79545 72.8712 8.90317 72.5542 9.11861C72.2403 9.33097 71.9987 9.60795 71.8295 9.94957C71.6602 10.2912 71.5756 10.6574 71.5756 11.0483V11.6761C71.5756 12.2116 71.6679 12.6656 71.8525 13.038C72.0403 13.4073 72.3003 13.6889 72.6327 13.8828C72.9651 14.0736 73.3514 14.169 73.7915 14.169C74.0777 14.169 74.3362 14.129 74.567 14.049C74.8009 13.9659 75.0025 13.8428 75.1718 13.6797C75.3411 13.5135 75.4719 13.3073 75.5642 13.0611L76.6167 13.3565C76.5059 13.7135 76.3198 14.0275 76.0581 14.2983C75.7965 14.5661 75.4734 14.7753 75.0887 14.9261C74.704 15.0739 74.2716 15.1477 73.7915 15.1477ZM80.4715 15.1662C80.0222 15.1662 79.6144 15.0816 79.2481 14.9123C78.8819 14.7399 78.5911 14.4922 78.3756 14.169C78.1602 13.8428 78.0525 13.4489 78.0525 12.9872C78.0525 12.581 78.1325 12.2517 78.2925 11.9993C78.4526 11.7438 78.6665 11.5438 78.9342 11.3991C79.202 11.2545 79.4974 11.1468 79.8206 11.076C80.1468 11.0021 80.4746 10.9437 80.8039 10.9006C81.2348 10.8452 81.5841 10.8036 81.8518 10.7759C82.1227 10.7451 82.3196 10.6944 82.4427 10.6236C82.5689 10.5528 82.632 10.4297 82.632 10.2543V10.2173C82.632 9.76184 82.5074 9.40791 82.2581 9.15554C82.0119 8.90317 81.6379 8.77699 81.1363 8.77699C80.6162 8.77699 80.2084 8.89086 79.9129 9.11861C79.6175 9.34635 79.4097 9.58949 79.2897 9.84801L78.2556 9.47869C78.4403 9.04782 78.6865 8.71236 78.9942 8.4723C79.3051 8.22917 79.6436 8.0599 80.0099 7.96449C80.3792 7.866 80.7423 7.81676 81.0993 7.81676C81.3271 7.81676 81.5887 7.84446 81.8841 7.89986C82.1827 7.95218 82.4704 8.06143 82.7474 8.22763C83.0275 8.39382 83.2599 8.64465 83.4445 8.98011C83.6292 9.31558 83.7215 9.76491 83.7215 10.3281V15H82.632V14.0398H82.5766C82.5028 14.1937 82.3796 14.3583 82.2073 14.5337C82.0349 14.7092 81.8057 14.8584 81.5194 14.9815C81.2332 15.1046 80.8839 15.1662 80.4715 15.1662ZM80.6377 14.1875C81.0686 14.1875 81.4317 14.1029 81.7272 13.9336C82.0257 13.7643 82.2504 13.5458 82.4012 13.2781C82.5551 13.0103 82.632 12.7287 82.632 12.4332V11.4361C82.5858 11.4915 82.4843 11.5423 82.3273 11.5884C82.1734 11.6315 81.9949 11.67 81.7918 11.7038C81.5918 11.7346 81.3963 11.7623 81.2055 11.7869C81.0178 11.8085 80.8654 11.8269 80.7485 11.8423C80.4653 11.8793 80.2007 11.9393 79.9545 12.0224C79.7113 12.1024 79.5144 12.224 79.3635 12.3871C79.2158 12.5471 79.142 12.7656 79.142 13.0426C79.142 13.4212 79.282 13.7074 79.5621 13.9013C79.8452 14.0921 80.2037 14.1875 80.6377 14.1875ZM85.71 15V7.90909H86.7626V8.98011H86.8365C86.9657 8.62926 87.1996 8.34458 87.5382 8.12606C87.8767 7.90755 88.2583 7.79829 88.6831 7.79829C88.7631 7.79829 88.8631 7.79983 88.9831 7.80291C89.1032 7.80599 89.194 7.81061 89.2555 7.81676V8.92472C89.2186 8.91548 89.1339 8.90163 89.0016 8.88317C88.8723 8.86162 88.7354 8.85085 88.5907 8.85085C88.246 8.85085 87.9383 8.92318 87.6674 9.06783C87.3997 9.2094 87.1873 9.40637 87.0304 9.65874C86.8765 9.90803 86.7995 10.1927 86.7995 10.5128V15H85.71ZM95.5697 9.49716L94.591 9.77415C94.5294 9.61103 94.4387 9.45253 94.3186 9.29865C94.2017 9.14169 94.0416 9.01243 93.8385 8.91087C93.6354 8.8093 93.3753 8.75852 93.0583 8.75852C92.6244 8.75852 92.2628 8.85855 91.9735 9.05859C91.6872 9.25556 91.5441 9.50639 91.5441 9.81108C91.5441 10.0819 91.6426 10.2958 91.8396 10.4528C92.0365 10.6097 92.3443 10.7405 92.7629 10.8452L93.8154 11.1037C94.4494 11.2576 94.9218 11.493 95.2327 11.81C95.5435 12.1239 95.699 12.5286 95.699 13.0241C95.699 13.4304 95.582 13.7936 95.3481 14.1136C95.1173 14.4337 94.7941 14.6861 94.3786 14.8707C93.9632 15.0554 93.48 15.1477 92.9291 15.1477C92.2058 15.1477 91.6072 14.9908 91.1333 14.6768C90.6593 14.3629 90.3592 13.9044 90.233 13.3011L91.2671 13.0426C91.3656 13.4242 91.5518 13.7105 91.8257 13.9013C92.1027 14.0921 92.4643 14.1875 92.9106 14.1875C93.4184 14.1875 93.8216 14.0798 94.1201 13.8643C94.4217 13.6458 94.5725 13.3842 94.5725 13.0795C94.5725 12.8333 94.4864 12.6271 94.314 12.4609C94.1417 12.2917 93.877 12.1655 93.52 12.0824L92.3382 11.8054C91.6888 11.6515 91.2117 11.413 90.907 11.0898C90.6054 10.7636 90.4546 10.3558 90.4546 9.86648C90.4546 9.46638 90.567 9.11245 90.7916 8.80469C91.0194 8.49692 91.3287 8.25533 91.7195 8.0799C92.1135 7.90447 92.5597 7.81676 93.0583 7.81676C93.76 7.81676 94.3109 7.97064 94.711 8.27841C95.1142 8.58617 95.4004 8.99242 95.5697 9.49716ZM97.4867 15V5.54545H98.5762V9.03551H98.6685C98.7485 8.91241 98.8593 8.75544 99.0009 8.56463C99.1455 8.37074 99.3517 8.19839 99.6195 8.04759C99.8903 7.8937 100.257 7.81676 100.718 7.81676C101.315 7.81676 101.842 7.96603 102.297 8.26456C102.753 8.56309 103.108 8.98627 103.363 9.53409C103.619 10.0819 103.747 10.7282 103.747 11.473C103.747 12.224 103.619 12.8749 103.363 13.4258C103.108 13.9736 102.754 14.3983 102.302 14.6999C101.849 14.9985 101.328 15.1477 100.737 15.1477C100.281 15.1477 99.9165 15.0723 99.6426 14.9215C99.3687 14.7676 99.1578 14.5937 99.0101 14.3999C98.8624 14.2029 98.7485 14.0398 98.6685 13.9105H98.5392V15H97.4867ZM98.5577 11.4545C98.5577 11.9901 98.6362 12.4625 98.7931 12.8718C98.9501 13.2781 99.1794 13.5966 99.481 13.8274C99.7826 14.0552 100.152 14.169 100.589 14.169C101.044 14.169 101.425 14.049 101.729 13.8089C102.037 13.5658 102.268 13.2396 102.422 12.8303C102.579 12.4179 102.657 11.9593 102.657 11.4545C102.657 10.956 102.58 10.5066 102.426 10.1065C102.276 9.70336 102.046 9.38482 101.738 9.15092C101.434 8.91394 101.051 8.79545 100.589 8.79545C100.146 8.79545 99.7734 8.90779 99.4718 9.13246C99.1702 9.35405 98.9424 9.66489 98.7885 10.065C98.6346 10.462 98.5577 10.9252 98.5577 11.4545ZM108.386 15.1477C107.703 15.1477 107.114 14.9969 106.618 14.6953C106.126 14.3906 105.746 13.9659 105.478 13.4212C105.213 12.8733 105.081 12.2363 105.081 11.5099C105.081 10.7836 105.213 10.1435 105.478 9.58949C105.746 9.03243 106.118 8.59848 106.595 8.28764C107.075 7.97372 107.635 7.81676 108.275 7.81676C108.645 7.81676 109.009 7.87831 109.369 8.00142C109.73 8.12453 110.057 8.32457 110.353 8.60156C110.648 8.87547 110.884 9.23864 111.059 9.69105C111.235 10.1435 111.322 10.7005 111.322 11.3622V11.8239H105.856V10.8821H110.214C110.214 10.482 110.134 10.125 109.974 9.81108C109.817 9.49716 109.593 9.24941 109.3 9.06783C109.011 8.88625 108.669 8.79545 108.275 8.79545C107.841 8.79545 107.466 8.90317 107.149 9.11861C106.835 9.33097 106.593 9.60795 106.424 9.94957C106.255 10.2912 106.17 10.6574 106.17 11.0483V11.6761C106.17 12.2116 106.263 12.6656 106.447 13.038C106.635 13.4073 106.895 13.6889 107.227 13.8828C107.56 14.0736 107.946 14.169 108.386 14.169C108.672 14.169 108.931 14.129 109.162 14.049C109.396 13.9659 109.597 13.8428 109.767 13.6797C109.936 13.5135 110.067 13.3073 110.159 13.0611L111.211 13.3565C111.101 13.7135 110.914 14.0275 110.653 14.2983C110.391 14.5661 110.068 14.7753 109.683 14.9261C109.299 15.0739 108.866 15.1477 108.386 15.1477ZM115.066 15.1662C114.617 15.1662 114.209 15.0816 113.843 14.9123C113.477 14.7399 113.186 14.4922 112.97 14.169C112.755 13.8428 112.647 13.4489 112.647 12.9872C112.647 12.581 112.727 12.2517 112.887 11.9993C113.047 11.7438 113.261 11.5438 113.529 11.3991C113.797 11.2545 114.092 11.1468 114.415 11.076C114.742 11.0021 115.069 10.9437 115.399 10.9006C115.829 10.8452 116.179 10.8036 116.447 10.7759C116.717 10.7451 116.914 10.6944 117.037 10.6236C117.164 10.5528 117.227 10.4297 117.227 10.2543V10.2173C117.227 9.76184 117.102 9.40791 116.853 9.15554C116.607 8.90317 116.233 8.77699 115.731 8.77699C115.211 8.77699 114.803 8.89086 114.508 9.11861C114.212 9.34635 114.004 9.58949 113.884 9.84801L112.85 9.47869C113.035 9.04782 113.281 8.71236 113.589 8.4723C113.9 8.22917 114.238 8.0599 114.605 7.96449C114.974 7.866 115.337 7.81676 115.694 7.81676C115.922 7.81676 116.183 7.84446 116.479 7.89986C116.777 7.95218 117.065 8.06143 117.342 8.22763C117.622 8.39382 117.855 8.64465 118.039 8.98011C118.224 9.31558 118.316 9.76491 118.316 10.3281V15H117.227V14.0398H117.171C117.097 14.1937 116.974 14.3583 116.802 14.5337C116.63 14.7092 116.4 14.8584 116.114 14.9815C115.828 15.1046 115.479 15.1662 115.066 15.1662ZM115.232 14.1875C115.663 14.1875 116.026 14.1029 116.322 13.9336C116.62 13.7643 116.845 13.5458 116.996 13.2781C117.15 13.0103 117.227 12.7287 117.227 12.4332V11.4361C117.181 11.4915 117.079 11.5423 116.922 11.5884C116.768 11.6315 116.59 11.67 116.387 11.7038C116.186 11.7346 115.991 11.7623 115.8 11.7869C115.613 11.8085 115.46 11.8269 115.343 11.8423C115.06 11.8793 114.795 11.9393 114.549 12.0224C114.306 12.1024 114.109 12.224 113.958 12.3871C113.811 12.5471 113.737 12.7656 113.737 13.0426C113.737 13.4212 113.877 13.7074 114.157 13.9013C114.44 14.0921 114.798 14.1875 115.232 14.1875ZM120.305 15V7.90909H121.357V8.98011H121.431C121.56 8.62926 121.794 8.34458 122.133 8.12606C122.471 7.90755 122.853 7.79829 123.278 7.79829C123.358 7.79829 123.458 7.79983 123.578 7.80291C123.698 7.80599 123.789 7.81061 123.85 7.81676V8.92472C123.813 8.91548 123.729 8.90163 123.596 8.88317C123.467 8.86162 123.33 8.85085 123.185 8.85085C122.841 8.85085 122.533 8.92318 122.262 9.06783C121.994 9.2094 121.782 9.40637 121.625 9.65874C121.471 9.90803 121.394 10.1927 121.394 10.5128V15H120.305Z" fill="#908980"/>
<path d="M62.1534 32.0398C62.0436 31.6951 61.8958 31.3864 61.7102 31.1136C61.5284 30.8371 61.3106 30.6023 61.0568 30.4091C60.803 30.2121 60.5133 30.0625 60.1875 29.9602C59.8655 29.858 59.5114 29.8068 59.125 29.8068C58.4697 29.8068 57.8788 29.9754 57.3523 30.3125C56.8258 30.6496 56.4091 31.1439 56.1023 31.7955C55.7992 32.4432 55.6477 33.2367 55.6477 34.1761C55.6477 35.1193 55.8011 35.9167 56.108 36.5682C56.4148 37.2197 56.8352 37.714 57.3693 38.0511C57.9034 38.3883 58.5114 38.5568 59.1932 38.5568C59.8258 38.5568 60.3769 38.428 60.8466 38.1705C61.3201 37.9129 61.6856 37.5492 61.9432 37.0795C62.2045 36.6061 62.3352 36.0492 62.3352 35.4091L62.7898 35.4943H59.4602V34.0455H64.0341V35.3693C64.0341 36.3466 63.8258 37.1951 63.4091 37.9148C62.9962 38.6307 62.4242 39.1837 61.6932 39.5739C60.9659 39.964 60.1326 40.1591 59.1932 40.1591C58.1402 40.1591 57.2159 39.9167 56.4205 39.4318C55.6288 38.947 55.0114 38.2595 54.5682 37.3693C54.125 36.4754 53.9034 35.4148 53.9034 34.1875C53.9034 33.2595 54.0322 32.4261 54.2898 31.6875C54.5473 30.9489 54.9091 30.322 55.375 29.8068C55.8447 29.2879 56.3958 28.892 57.0284 28.6193C57.6648 28.3428 58.3598 28.2045 59.1136 28.2045C59.7424 28.2045 60.3277 28.2973 60.8693 28.483C61.4148 28.6686 61.8996 28.9318 62.3239 29.2727C62.7519 29.6136 63.1061 30.0189 63.3864 30.4886C63.6667 30.9545 63.8561 31.4716 63.9545 32.0398H62.1534ZM66.6733 40V31.2727H68.3722V40H66.6733ZM67.5312 29.9261C67.2358 29.9261 66.982 29.8277 66.7699 29.6307C66.5616 29.4299 66.4574 29.1913 66.4574 28.9148C66.4574 28.6345 66.5616 28.3958 66.7699 28.1989C66.982 27.9981 67.2358 27.8977 67.5312 27.8977C67.8267 27.8977 68.0786 27.9981 68.2869 28.1989C68.4991 28.3958 68.6051 28.6345 68.6051 28.9148C68.6051 29.1913 68.4991 29.4299 68.2869 29.6307C68.0786 29.8277 67.8267 29.9261 67.5312 29.9261ZM74.7315 31.2727V32.6364H69.9645V31.2727H74.7315ZM71.2429 29.1818H72.9418V37.4375C72.9418 37.767 72.991 38.0152 73.0895 38.1818C73.188 38.3447 73.3149 38.4564 73.4702 38.517C73.6293 38.5739 73.8016 38.6023 73.9872 38.6023C74.1236 38.6023 74.2429 38.5928 74.3452 38.5739C74.4474 38.5549 74.527 38.5398 74.5838 38.5284L74.8906 39.9318C74.7921 39.9697 74.652 40.0076 74.4702 40.0455C74.2884 40.0871 74.0611 40.1098 73.7884 40.1136C73.3414 40.1212 72.9247 40.0417 72.5384 39.875C72.152 39.7083 71.8395 39.4508 71.6009 39.1023C71.3622 38.7538 71.2429 38.3163 71.2429 37.7898V29.1818ZM78.4972 34.8182V40H76.7983V28.3636H78.4744V32.6932H78.5824C78.7869 32.2235 79.0994 31.8504 79.5199 31.5739C79.9403 31.2973 80.4896 31.1591 81.1676 31.1591C81.7661 31.1591 82.2888 31.2822 82.7358 31.5284C83.1866 31.7746 83.535 32.142 83.7812 32.6307C84.0312 33.1155 84.1562 33.7216 84.1562 34.4489V40H82.4574V34.6534C82.4574 34.0133 82.2926 33.517 81.9631 33.1648C81.6335 32.8087 81.1752 32.6307 80.5881 32.6307C80.1866 32.6307 79.8267 32.7159 79.5085 32.8864C79.1941 33.0568 78.946 33.3068 78.7642 33.6364C78.5862 33.9621 78.4972 34.3561 78.4972 34.8182ZM91.9517 36.3807V31.2727H93.6562V40H91.9858V38.4886H91.8949C91.6941 38.9545 91.3722 39.3428 90.929 39.6534C90.4896 39.9602 89.9422 40.1136 89.2869 40.1136C88.7263 40.1136 88.2301 39.9905 87.7983 39.7443C87.3703 39.4943 87.0331 39.125 86.7869 38.6364C86.5445 38.1477 86.4233 37.5436 86.4233 36.8239V31.2727H88.1222V36.6193C88.1222 37.214 88.2869 37.6875 88.6165 38.0398C88.946 38.392 89.3741 38.5682 89.9006 38.5682C90.2188 38.5682 90.535 38.4886 90.8494 38.3295C91.1676 38.1705 91.4309 37.9299 91.6392 37.608C91.8513 37.286 91.9555 36.8769 91.9517 36.3807ZM96.0753 40V28.3636H97.7741V32.6875H97.8764C97.9749 32.5057 98.117 32.2955 98.3026 32.0568C98.4882 31.8182 98.7457 31.6098 99.0753 31.4318C99.4048 31.25 99.8404 31.1591 100.382 31.1591C101.087 31.1591 101.715 31.3371 102.268 31.6932C102.821 32.0492 103.255 32.5625 103.57 33.233C103.888 33.9034 104.047 34.7102 104.047 35.6534C104.047 36.5966 103.89 37.4053 103.575 38.0795C103.261 38.75 102.829 39.267 102.28 39.6307C101.731 39.9905 101.104 40.1705 100.399 40.1705C99.8688 40.1705 99.4351 40.0814 99.098 39.9034C98.7647 39.7254 98.5033 39.517 98.3139 39.2784C98.1245 39.0398 97.9787 38.8277 97.8764 38.642H97.7344V40H96.0753ZM97.7401 35.6364C97.7401 36.25 97.8291 36.7879 98.0071 37.25C98.1851 37.7121 98.4427 38.0739 98.7798 38.3352C99.117 38.5928 99.5298 38.7216 100.018 38.7216C100.526 38.7216 100.95 38.5871 101.291 38.3182C101.632 38.0455 101.89 37.6761 102.064 37.2102C102.242 36.7443 102.331 36.2197 102.331 35.6364C102.331 35.0606 102.244 34.5436 102.07 34.0852C101.899 33.6269 101.642 33.2652 101.297 33C100.956 32.7348 100.53 32.6023 100.018 32.6023C99.526 32.6023 99.1094 32.7292 98.7685 32.983C98.4313 33.2367 98.1757 33.5909 98.0014 34.0455C97.8272 34.5 97.7401 35.0303 97.7401 35.6364Z" fill="#333333"/>
<g clip-path="url(#clip0_166_263)">
<path d="M20 1C8.95 1 0 9.95 0 21C0 29.85 5.725 37.325 13.675 39.975C14.675 40.15 15.05 39.55 15.05 39.025C15.05 38.55 15.025 36.975 15.025 35.3C10 36.225 8.7 34.075 8.3 32.95C8.075 32.375 7.1 30.6 6.25 30.125C5.55 29.75 4.55 28.825 6.225 28.8C7.8 28.775 8.925 30.25 9.3 30.85C11.1 33.875 13.975 33.025 15.125 32.5C15.3 31.2 15.825 30.325 16.4 29.825C11.95 29.325 7.3 27.6 7.3 19.95C7.3 17.775 8.075 15.975 9.35 14.575C9.15 14.075 8.45 12.025 9.55 9.275C9.55 9.275 11.225 8.75 15.05 11.325C16.65 10.875 18.35 10.65 20.05 10.65C21.75 10.65 23.45 10.875 25.05 11.325C28.875 8.725 30.55 9.275 30.55 9.275C31.65 12.025 30.95 14.075 30.75 14.575C32.025 15.975 32.8 17.75 32.8 19.95C32.8 27.625 28.125 29.325 23.675 29.825C24.4 30.45 25.025 31.65 25.025 33.525C25.025 36.2 25 38.35 25 39.025C25 39.55 25.375 40.175 26.375 39.975C30.3456 38.635 33.7959 36.0834 36.2401 32.6794C38.6843 29.2754 39.9993 25.1906 40 21C40 9.95 31.05 1 20 1Z" fill="#333333"/>
</g>
<defs>
<clipPath id="clip0_166_263">
<rect width="40" height="40" fill="white" transform="translate(0 1)"/>
</clipPath>
</defs>
</svg>
