<svg width="28" height="28" viewBox="0 0 28 28" fill="none" xmlns="http://www.w3.org/2000/svg">
<path d="M19.2789 4.39117C19.7142 4.29667 20.125 4.6283 20.125 5.07367V8.58548C20.125 8.99761 19.8376 9.35373 19.4351 9.4408L15.442 10.3049C15.1113 10.3766 14.875 10.6693 14.875 11.0079C14.875 11.0079 14.875 16.0974 14.875 19.2526C14.875 22.4079 13.3179 23.625 11.3431 23.625C9.17438 23.625 8.3125 22.3339 8.3125 21.3211C8.3125 19.2723 9.74794 18.6121 11.3431 18.2827C12.9382 17.9532 13.125 17.881 13.125 17.1207C13.125 16.3603 13.125 6.42861 13.125 6.42861C13.125 6.01648 13.4124 5.66036 13.8149 5.5733L19.2789 4.39117Z" fill="white"/>
</svg>
