<svg xmlns="http://www.w3.org/2000/svg" width="44" height="44" fill="none" viewBox="0 0 44 44"><path fill="#fff" d="M18.4219 16.4688C16.1016 16.4688 14.6797 17.8828 14.6797 20.1875V26.1875H14.4844C12.8672 26.1562 12 25.2734 12 23.6406V16.5547C12 14.8984 12.8984 14 14.5703 14H24.5938C26.2109 14 27.1016 14.8359 27.1562 16.3984V16.4688H18.4219ZM18.4219 29.8281C16.75 29.8281 15.8516 28.9375 15.8516 27.2812V20.1875C15.8516 18.5312 16.75 17.6406 18.4219 17.6406H28.4922C30.1562 17.6406 31.0625 18.5391 31.0625 20.1875V27.2812C31.0625 28.9297 30.1562 29.8281 28.4922 29.8281H18.4219ZM21.5391 23.75C22.375 23.75 23.0703 23.0547 23.0703 22.2109C23.0703 21.375 22.375 20.6719 21.5391 20.6719C20.6875 20.6719 20 21.375 20 22.2109C20 23.0547 20.6875 23.75 21.5391 23.75ZM18.6016 28.0312H28.3125C28.9219 28.0312 29.2578 27.7266 29.2578 27.0781V26.0547L26.6328 23.6094C26.3672 23.3594 26.0469 23.2344 25.7031 23.2344C25.375 23.2344 25.0625 23.3516 24.7812 23.6016L21.9688 26.0859L20.8438 25.0703C20.5859 24.8359 20.3047 24.7266 20.0078 24.7266C19.7344 24.7266 19.4531 24.8359 19.2031 25.0625L17.6562 26.4453V27.0781C17.6562 27.7266 17.9844 28.0312 18.6016 28.0312Z"/></svg>