<svg width="57" height="30" viewBox="0 0 57 30" fill="none" xmlns="http://www.w3.org/2000/svg">
<g clip-path="url(#clip0_128_295)">
<path d="M24.375 15C24.375 14.7514 24.2762 14.5129 24.1004 14.3371C23.9246 14.1613 23.6861 14.0625 23.4375 14.0625H19.6875C19.4389 14.0625 19.2004 14.1613 19.0246 14.3371C18.8488 14.5129 18.75 14.7514 18.75 15C18.75 15.2486 18.8488 15.4871 19.0246 15.6629C19.2004 15.8387 19.4389 15.9375 19.6875 15.9375H23.4375C23.6861 15.9375 23.9246 15.8387 24.1004 15.6629C24.2762 15.4871 24.375 15.2486 24.375 15ZM9.375 7.5C7.38588 7.5 5.47822 8.29018 4.0717 9.6967C2.66518 11.1032 1.875 13.0109 1.875 15C1.875 16.9891 2.66518 18.8968 4.0717 20.3033C5.47822 21.7098 7.38588 22.5 9.375 22.5H20.625C22.6141 22.5 24.5218 21.7098 25.9283 20.3033C27.3348 18.8968 28.125 16.9891 28.125 15C28.125 13.0109 27.3348 11.1032 25.9283 9.6967C24.5218 8.29018 22.6141 7.5 20.625 7.5H9.375ZM30 15C30 17.4864 29.0123 19.871 27.2541 21.6291C25.496 23.3873 23.1114 24.375 20.625 24.375H9.375C6.8886 24.375 4.50403 23.3873 2.74587 21.6291C0.98772 19.871 0 17.4864 0 15C0 12.5136 0.98772 10.129 2.74587 8.37087C4.50403 6.61272 6.8886 5.625 9.375 5.625H20.625C23.1114 5.625 25.496 6.61272 27.2541 8.37087C29.0123 10.129 30 12.5136 30 15Z" fill="white"/>
</g>
<path fill-rule="evenodd" clip-rule="evenodd" d="M45.3074 22.9425C45.2492 22.8844 45.203 22.8155 45.1715 22.7395C45.14 22.6636 45.1238 22.5822 45.1238 22.5C45.1238 22.4178 45.14 22.3364 45.1715 22.2604C45.203 22.1845 45.2492 22.1155 45.3074 22.0575L52.3661 15L45.3074 7.94248C45.19 7.82512 45.1241 7.66595 45.1241 7.49998C45.1241 7.33401 45.19 7.17484 45.3074 7.05748C45.4248 6.94012 45.5839 6.87419 45.7499 6.87419C45.9159 6.87419 46.075 6.94012 46.1924 7.05748L53.6924 14.5575C53.7506 14.6155 53.7968 14.6845 53.8283 14.7604C53.8598 14.8364 53.876 14.9178 53.876 15C53.876 15.0822 53.8598 15.1636 53.8283 15.2395C53.7968 15.3155 53.7506 15.3844 53.6924 15.4425L46.1924 22.9425C46.1343 23.0007 46.0654 23.0469 45.9894 23.0784C45.9135 23.1099 45.8321 23.1261 45.7499 23.1261C45.6677 23.1261 45.5863 23.1099 45.5104 23.0784C45.4344 23.0469 45.3655 23.0007 45.3074 22.9425Z" fill="white"/>
<path fill-rule="evenodd" clip-rule="evenodd" d="M40.3074 22.9425C40.2492 22.8844 40.203 22.8155 40.1715 22.7395C40.14 22.6636 40.1238 22.5822 40.1238 22.5C40.1238 22.4178 40.14 22.3364 40.1715 22.2604C40.203 22.1845 40.2492 22.1155 40.3074 22.0575L47.3661 15L40.3074 7.94248C40.2493 7.88437 40.2032 7.81539 40.1717 7.73946C40.1403 7.66354 40.1241 7.58216 40.1241 7.49998C40.1241 7.4178 40.1403 7.33643 40.1717 7.2605C40.2032 7.18458 40.2493 7.11559 40.3074 7.05748C40.3655 6.99937 40.4345 6.95328 40.5104 6.92183C40.5863 6.89038 40.6677 6.87419 40.7499 6.87419C40.8321 6.87419 40.9135 6.89038 40.9894 6.92183C41.0653 6.95328 41.1343 6.99937 41.1924 7.05748L48.6924 14.5575C48.7506 14.6155 48.7968 14.6845 48.8283 14.7604C48.8598 14.8364 48.876 14.9178 48.876 15C48.876 15.0822 48.8598 15.1636 48.8283 15.2395C48.7968 15.3155 48.7506 15.3844 48.6924 15.4425L41.1924 22.9425C41.1343 23.0007 41.0654 23.0469 40.9894 23.0784C40.9135 23.1099 40.8321 23.1261 40.7499 23.1261C40.6677 23.1261 40.5863 23.1099 40.5104 23.0784C40.4344 23.0469 40.3655 23.0007 40.3074 22.9425Z" fill="white"/>
<defs>
<clipPath id="clip0_128_295">
<rect width="30" height="30" fill="white" transform="matrix(0 -1 -1 0 30 30)"/>
</clipPath>
</defs>
</svg>
