<svg width="234" height="110" viewBox="0 0 234 110" fill="none" xmlns="http://www.w3.org/2000/svg">
<path d="M16.83 18.6399C17.5 18.1999 18.38 18.6799 18.38 19.4799V20.7699C18.38 22.0399 17.39 23.3999 16.2 23.7999L13.01 24.8599C12.45 25.0499 11.54 25.0499 10.99 24.8599L7.8 23.7999C6.6 23.3999 5.62 22.0399 5.62 20.7699V19.4699C5.62 18.6799 6.5 18.1999 7.16 18.6299L9.22 19.9699C10.01 20.4999 11.01 20.7599 12.01 20.7599C13.01 20.7599 14.01 20.4999 14.8 19.9699L16.83 18.6399Z" fill="#F2C94C"/>
<path d="M19.98 9.46006L13.99 5.53006C12.91 4.82006 11.13 4.82006 10.05 5.53006L4.03 9.46006C2.1 10.7101 2.1 13.5401 4.03 14.8001L5.63 15.8401L10.05 18.7201C11.13 19.4301 12.91 19.4301 13.99 18.7201L18.38 15.8401L19.75 14.9401V18.0001C19.75 18.4101 20.09 18.7501 20.5 18.7501C20.91 18.7501 21.25 18.4101 21.25 18.0001V13.0801C21.65 11.7901 21.24 10.2901 19.98 9.46006Z" fill="#F2C94C"/>
<path d="M39.5852 18V4.90909H44.0085C45.0355 4.90909 45.875 5.09446 46.527 5.4652C47.1832 5.83168 47.669 6.32812 47.9844 6.95455C48.2997 7.58097 48.4574 8.27983 48.4574 9.05114C48.4574 9.82244 48.2997 10.5234 47.9844 11.1541C47.6733 11.7848 47.1918 12.2876 46.5398 12.6626C45.8878 13.0334 45.0526 13.2188 44.0341 13.2188H40.8636V11.8125H43.983C44.6861 11.8125 45.2507 11.6911 45.6768 11.4482C46.103 11.2053 46.4119 10.8771 46.6037 10.4638C46.7997 10.0462 46.8977 9.57528 46.8977 9.05114C46.8977 8.52699 46.7997 8.05824 46.6037 7.64489C46.4119 7.23153 46.1009 6.90767 45.6705 6.6733C45.2401 6.43466 44.669 6.31534 43.9574 6.31534H41.1705V18H39.5852ZM54.8175 18.2045C53.8714 18.2045 53.0554 17.9957 52.3693 17.5781C51.6875 17.1562 51.1612 16.5682 50.7905 15.8139C50.424 15.0554 50.2408 14.1733 50.2408 13.1676C50.2408 12.1619 50.424 11.2756 50.7905 10.5085C51.1612 9.73722 51.6768 9.13636 52.3374 8.70597C53.0021 8.27131 53.7777 8.05398 54.6641 8.05398C55.1754 8.05398 55.6804 8.1392 56.179 8.30966C56.6776 8.48011 57.1314 8.7571 57.5405 9.14062C57.9496 9.51989 58.2756 10.0227 58.5185 10.6491C58.7614 11.2756 58.8828 12.0469 58.8828 12.9631V13.6023H51.3146V12.2983H57.3487C57.3487 11.7443 57.2379 11.25 57.0163 10.8153C56.799 10.3807 56.4879 10.0376 56.0831 9.78622C55.6825 9.5348 55.2095 9.40909 54.6641 9.40909C54.0632 9.40909 53.5433 9.55824 53.1044 9.85653C52.6697 10.1506 52.3352 10.5341 52.1009 11.0071C51.8665 11.4801 51.7493 11.9872 51.7493 12.5284V13.3977C51.7493 14.1392 51.8771 14.7678 52.1328 15.2834C52.3928 15.7947 52.7528 16.1847 53.2131 16.4531C53.6733 16.7173 54.2081 16.8494 54.8175 16.8494C55.2138 16.8494 55.5717 16.794 55.8913 16.6832C56.2152 16.5682 56.4943 16.3977 56.7287 16.1719C56.9631 15.9418 57.1442 15.6562 57.272 15.3153L58.7294 15.7244C58.576 16.2188 58.3182 16.6534 57.956 17.0284C57.5938 17.3991 57.1463 17.6889 56.6136 17.8977C56.081 18.1023 55.4822 18.2045 54.8175 18.2045ZM61.1776 18V8.18182H62.6349V9.66477H62.7372C62.9162 9.17898 63.2401 8.7848 63.7088 8.48224C64.1776 8.17969 64.706 8.02841 65.294 8.02841C65.4048 8.02841 65.5433 8.03054 65.7095 8.0348C65.8757 8.03906 66.0014 8.04545 66.0866 8.05398V9.58807C66.0355 9.57528 65.9183 9.55611 65.7351 9.53054C65.5561 9.50071 65.3665 9.4858 65.1662 9.4858C64.6889 9.4858 64.2628 9.58594 63.8878 9.78622C63.517 9.98224 63.223 10.255 63.0057 10.6044C62.7926 10.9496 62.6861 11.3437 62.6861 11.7869V18H61.1776ZM68.0794 18V4.90909H69.5879V9.74148H69.7157C69.8265 9.57102 69.9799 9.35369 70.176 9.08949C70.3762 8.82102 70.6618 8.58239 71.0325 8.37358C71.4075 8.16051 71.9146 8.05398 72.5538 8.05398C73.3805 8.05398 74.1092 8.26065 74.7399 8.67401C75.3706 9.08736 75.8627 9.6733 76.2164 10.4318C76.5701 11.1903 76.747 12.0852 76.747 13.1165C76.747 14.1562 76.5701 15.0575 76.2164 15.8203C75.8627 16.5788 75.3727 17.1669 74.7463 17.5845C74.1199 17.9979 73.3975 18.2045 72.5794 18.2045C71.9487 18.2045 71.4437 18.1001 71.0645 17.8913C70.6852 17.6783 70.3933 17.4375 70.1887 17.169C69.9842 16.8963 69.8265 16.6705 69.7157 16.4915H69.5368V18H68.0794ZM69.5623 13.0909C69.5623 13.8324 69.671 14.4865 69.8883 15.0533C70.1056 15.6158 70.4231 16.0568 70.8407 16.3764C71.2583 16.6918 71.7697 16.8494 72.3748 16.8494C73.0055 16.8494 73.5318 16.6832 73.9537 16.3509C74.3798 16.0142 74.6994 15.5625 74.9125 14.9957C75.1298 14.4247 75.2385 13.7898 75.2385 13.0909C75.2385 12.4006 75.1319 11.7784 74.9189 11.2244C74.71 10.6662 74.3926 10.2251 73.9664 9.90128C73.5446 9.57315 73.014 9.40909 72.3748 9.40909C71.7612 9.40909 71.2456 9.56463 70.8279 9.87571C70.4103 10.1825 70.095 10.6129 69.8819 11.1669C69.6689 11.7166 69.5623 12.358 69.5623 13.0909ZM81.9437 18.2301C81.3216 18.2301 80.7569 18.1129 80.2498 17.8786C79.7427 17.6399 79.34 17.2969 79.0417 16.8494C78.7434 16.3977 78.5943 15.8523 78.5943 15.2131C78.5943 14.6506 78.7051 14.1946 78.9267 13.8452C79.1483 13.4915 79.4444 13.2145 79.8152 13.0142C80.1859 12.8139 80.595 12.6648 81.0424 12.5668C81.4941 12.4645 81.948 12.3835 82.4039 12.3239C83.0005 12.2472 83.4842 12.1896 83.8549 12.1513C84.2299 12.1087 84.5027 12.0384 84.6731 11.9403C84.8478 11.8423 84.9352 11.6719 84.9352 11.429V11.3778C84.9352 10.7472 84.7626 10.2571 84.4174 9.90767C84.0765 9.55824 83.5588 9.38352 82.8642 9.38352C82.144 9.38352 81.5794 9.54119 81.1703 9.85653C80.7612 10.1719 80.4735 10.5085 80.3074 10.8665L78.8755 10.3551C79.1312 9.75852 79.4721 9.29403 79.8983 8.96165C80.3287 8.625 80.7974 8.39062 81.3045 8.25852C81.8159 8.12216 82.3187 8.05398 82.813 8.05398C83.1284 8.05398 83.4906 8.09233 83.8997 8.16903C84.313 8.24148 84.7115 8.39276 85.095 8.62287C85.4828 8.85298 85.8045 9.20028 86.0602 9.66477C86.3159 10.1293 86.4437 10.7514 86.4437 11.5312V18H84.9352V16.6705H84.8585C84.7562 16.8835 84.5858 17.1115 84.3471 17.3544C84.1085 17.5973 83.791 17.804 83.3947 17.9744C82.9984 18.1449 82.5147 18.2301 81.9437 18.2301ZM82.1738 16.875C82.7704 16.875 83.2733 16.7578 83.6824 16.5234C84.0957 16.2891 84.4068 15.9865 84.6156 15.6158C84.8287 15.245 84.9352 14.8551 84.9352 14.446V13.0653C84.8713 13.142 84.7306 13.2124 84.5133 13.2763C84.3002 13.3359 84.0531 13.3892 83.7718 13.4361C83.4949 13.4787 83.2243 13.517 82.9601 13.5511C82.7001 13.581 82.4892 13.6065 82.3272 13.6278C81.9352 13.679 81.5687 13.7621 81.2278 13.8771C80.8912 13.9879 80.6184 14.1562 80.4096 14.3821C80.2051 14.6037 80.1028 14.9062 80.1028 15.2898C80.1028 15.8139 80.2967 16.2102 80.6845 16.4787C81.0765 16.7429 81.573 16.875 82.1738 16.875ZM90.7056 12.0938V18H89.1971V8.18182H90.6545V9.71591H90.7823C91.0124 9.21733 91.3619 8.81676 91.8306 8.5142C92.2994 8.20739 92.9045 8.05398 93.646 8.05398C94.3107 8.05398 94.8924 8.19034 95.391 8.46307C95.8896 8.73153 96.2773 9.14062 96.5543 9.69034C96.8313 10.2358 96.9698 10.9261 96.9698 11.7614V18H95.4613V11.8636C95.4613 11.0923 95.261 10.4915 94.8604 10.0611C94.4599 9.62642 93.9102 9.40909 93.2113 9.40909C92.7298 9.40909 92.2994 9.51349 91.9201 9.7223C91.5451 9.93111 91.2489 10.2358 91.0316 10.6364C90.8143 11.0369 90.7056 11.5227 90.7056 12.0938ZM102.616 18.2301C101.993 18.2301 101.429 18.1129 100.922 17.8786C100.415 17.6399 100.012 17.2969 99.7136 16.8494C99.4153 16.3977 99.2662 15.8523 99.2662 15.2131C99.2662 14.6506 99.377 14.1946 99.5985 13.8452C99.8201 13.4915 100.116 13.2145 100.487 13.0142C100.858 12.8139 101.267 12.6648 101.714 12.5668C102.166 12.4645 102.62 12.3835 103.076 12.3239C103.672 12.2472 104.156 12.1896 104.527 12.1513C104.902 12.1087 105.175 12.0384 105.345 11.9403C105.52 11.8423 105.607 11.6719 105.607 11.429V11.3778C105.607 10.7472 105.434 10.2571 105.089 9.90767C104.748 9.55824 104.231 9.38352 103.536 9.38352C102.816 9.38352 102.251 9.54119 101.842 9.85653C101.433 10.1719 101.145 10.5085 100.979 10.8665L99.5474 10.3551C99.8031 9.75852 100.144 9.29403 100.57 8.96165C101.001 8.625 101.469 8.39062 101.976 8.25852C102.488 8.12216 102.991 8.05398 103.485 8.05398C103.8 8.05398 104.162 8.09233 104.572 8.16903C104.985 8.24148 105.383 8.39276 105.767 8.62287C106.155 8.85298 106.476 9.20028 106.732 9.66477C106.988 10.1293 107.116 10.7514 107.116 11.5312V18H105.607V16.6705H105.53C105.428 16.8835 105.258 17.1115 105.019 17.3544C104.78 17.5973 104.463 17.804 104.067 17.9744C103.67 18.1449 103.187 18.2301 102.616 18.2301ZM102.846 16.875C103.442 16.875 103.945 16.7578 104.354 16.5234C104.768 16.2891 105.079 15.9865 105.287 15.6158C105.501 15.245 105.607 14.8551 105.607 14.446V13.0653C105.543 13.142 105.403 13.2124 105.185 13.2763C104.972 13.3359 104.725 13.3892 104.444 13.4361C104.167 13.4787 103.896 13.517 103.632 13.5511C103.372 13.581 103.161 13.6065 102.999 13.6278C102.607 13.679 102.241 13.7621 101.9 13.8771C101.563 13.9879 101.29 14.1562 101.081 14.3821C100.877 14.6037 100.775 14.9062 100.775 15.2898C100.775 15.8139 100.969 16.2102 101.356 16.4787C101.748 16.7429 102.245 16.875 102.846 16.875ZM116.824 10.3807L115.468 10.7642C115.383 10.5384 115.257 10.3189 115.091 10.1058C114.929 9.88849 114.708 9.70952 114.426 9.56889C114.145 9.42827 113.785 9.35795 113.346 9.35795C112.745 9.35795 112.245 9.49645 111.844 9.77344C111.448 10.0462 111.25 10.3935 111.25 10.8153C111.25 11.1903 111.386 11.4865 111.659 11.7038C111.931 11.9212 112.358 12.1023 112.937 12.2472L114.395 12.6051C115.272 12.8182 115.926 13.1442 116.357 13.5831C116.787 14.0178 117.002 14.5781 117.002 15.2642C117.002 15.8267 116.841 16.3295 116.517 16.7727C116.197 17.2159 115.75 17.5653 115.174 17.821C114.599 18.0767 113.93 18.2045 113.167 18.2045C112.166 18.2045 111.337 17.9872 110.681 17.5526C110.025 17.1179 109.609 16.483 109.434 15.6477L110.866 15.2898C111.002 15.8182 111.26 16.2145 111.64 16.4787C112.023 16.7429 112.524 16.875 113.142 16.875C113.845 16.875 114.403 16.7259 114.816 16.4276C115.234 16.125 115.443 15.7628 115.443 15.3409C115.443 15 115.324 14.7145 115.085 14.4844C114.846 14.25 114.48 14.0753 113.985 13.9602L112.349 13.5767C111.45 13.3636 110.789 13.0334 110.368 12.5859C109.95 12.1342 109.741 11.5696 109.741 10.892C109.741 10.3381 109.897 9.84801 110.208 9.42188C110.523 8.99574 110.951 8.66122 111.493 8.41832C112.038 8.17543 112.656 8.05398 113.346 8.05398C114.318 8.05398 115.081 8.26705 115.635 8.69318C116.193 9.11932 116.589 9.68182 116.824 10.3807ZM126.126 4.90909V18H124.54V4.90909H126.126ZM130.608 12.0938V18H129.099V8.18182H130.557V9.71591H130.685C130.915 9.21733 131.264 8.81676 131.733 8.5142C132.202 8.20739 132.807 8.05398 133.548 8.05398C134.213 8.05398 134.795 8.19034 135.293 8.46307C135.792 8.73153 136.18 9.14062 136.457 9.69034C136.734 10.2358 136.872 10.9261 136.872 11.7614V18H135.364V11.8636C135.364 11.0923 135.163 10.4915 134.763 10.0611C134.362 9.62642 133.813 9.40909 133.114 9.40909C132.632 9.40909 132.202 9.51349 131.822 9.7223C131.447 9.93111 131.151 10.2358 130.934 10.6364C130.717 11.0369 130.608 11.5227 130.608 12.0938ZM146.583 10.3807L145.228 10.7642C145.143 10.5384 145.017 10.3189 144.851 10.1058C144.689 9.88849 144.468 9.70952 144.186 9.56889C143.905 9.42827 143.545 9.35795 143.106 9.35795C142.505 9.35795 142.004 9.49645 141.604 9.77344C141.208 10.0462 141.009 10.3935 141.009 10.8153C141.009 11.1903 141.146 11.4865 141.419 11.7038C141.691 11.9212 142.117 12.1023 142.697 12.2472L144.154 12.6051C145.032 12.8182 145.686 13.1442 146.117 13.5831C146.547 14.0178 146.762 14.5781 146.762 15.2642C146.762 15.8267 146.6 16.3295 146.276 16.7727C145.957 17.2159 145.509 17.5653 144.934 17.821C144.359 18.0767 143.69 18.2045 142.927 18.2045C141.926 18.2045 141.097 17.9872 140.441 17.5526C139.784 17.1179 139.369 16.483 139.194 15.6477L140.626 15.2898C140.762 15.8182 141.02 16.2145 141.399 16.4787C141.783 16.7429 142.284 16.875 142.901 16.875C143.605 16.875 144.163 16.7259 144.576 16.4276C144.994 16.125 145.203 15.7628 145.203 15.3409C145.203 15 145.083 14.7145 144.845 14.4844C144.606 14.25 144.24 14.0753 143.745 13.9602L142.109 13.5767C141.21 13.3636 140.549 13.0334 140.127 12.5859C139.71 12.1342 139.501 11.5696 139.501 10.892C139.501 10.3381 139.656 9.84801 139.968 9.42188C140.283 8.99574 140.711 8.66122 141.252 8.41832C141.798 8.17543 142.416 8.05398 143.106 8.05398C144.078 8.05398 144.84 8.26705 145.394 8.69318C145.953 9.11932 146.349 9.68182 146.583 10.3807ZM153.303 8.18182V9.46023H148.215V8.18182H153.303ZM149.698 5.82955H151.206V15.1875C151.206 15.6136 151.268 15.9332 151.392 16.1463C151.52 16.3551 151.681 16.4957 151.877 16.5682C152.078 16.6364 152.289 16.6705 152.51 16.6705C152.676 16.6705 152.813 16.6619 152.919 16.6449C153.026 16.6236 153.111 16.6065 153.175 16.5938L153.482 17.9489C153.38 17.9872 153.237 18.0256 153.054 18.0639C152.87 18.1065 152.638 18.1278 152.357 18.1278C151.931 18.1278 151.513 18.0362 151.104 17.853C150.699 17.6697 150.363 17.3906 150.094 17.0156C149.83 16.6406 149.698 16.1676 149.698 15.5966V5.82955ZM155.572 18V8.18182H157.081V18H155.572ZM156.339 6.54545C156.045 6.54545 155.792 6.44531 155.578 6.24503C155.37 6.04474 155.265 5.80398 155.265 5.52273C155.265 5.24148 155.37 5.00071 155.578 4.80043C155.792 4.60014 156.045 4.5 156.339 4.5C156.633 4.5 156.885 4.60014 157.093 4.80043C157.306 5.00071 157.413 5.24148 157.413 5.52273C157.413 5.80398 157.306 6.04474 157.093 6.24503C156.885 6.44531 156.633 6.54545 156.339 6.54545ZM164.113 8.18182V9.46023H159.025V8.18182H164.113ZM160.508 5.82955H162.017V15.1875C162.017 15.6136 162.079 15.9332 162.202 16.1463C162.33 16.3551 162.492 16.4957 162.688 16.5682C162.888 16.6364 163.099 16.6705 163.321 16.6705C163.487 16.6705 163.623 16.6619 163.73 16.6449C163.836 16.6236 163.922 16.6065 163.986 16.5938L164.292 17.9489C164.19 17.9872 164.047 18.0256 163.864 18.0639C163.681 18.1065 163.449 18.1278 163.167 18.1278C162.741 18.1278 162.324 18.0362 161.915 17.853C161.51 17.6697 161.173 17.3906 160.905 17.0156C160.64 16.6406 160.508 16.1676 160.508 15.5966V5.82955ZM172.57 13.9858V8.18182H174.079V18H172.57V16.3381H172.468C172.238 16.8366 171.88 17.2607 171.394 17.6101C170.908 17.9553 170.295 18.1278 169.553 18.1278C168.939 18.1278 168.394 17.9936 167.917 17.7251C167.439 17.4524 167.064 17.0433 166.792 16.4979C166.519 15.9482 166.383 15.2557 166.383 14.4205V8.18182H167.891V14.3182C167.891 15.0341 168.091 15.6051 168.492 16.0312C168.897 16.4574 169.412 16.6705 170.039 16.6705C170.414 16.6705 170.795 16.5746 171.183 16.3828C171.575 16.1911 171.903 15.897 172.167 15.5007C172.436 15.1044 172.57 14.5994 172.57 13.9858ZM181.112 8.18182V9.46023H176.023V8.18182H181.112ZM177.506 5.82955H179.015V15.1875C179.015 15.6136 179.077 15.9332 179.2 16.1463C179.328 16.3551 179.49 16.4957 179.686 16.5682C179.886 16.6364 180.097 16.6705 180.319 16.6705C180.485 16.6705 180.621 16.6619 180.728 16.6449C180.835 16.6236 180.92 16.6065 180.984 16.5938L181.29 17.9489C181.188 17.9872 181.045 18.0256 180.862 18.0639C180.679 18.1065 180.447 18.1278 180.165 18.1278C179.739 18.1278 179.322 18.0362 178.913 17.853C178.508 17.6697 178.171 17.3906 177.903 17.0156C177.638 16.6406 177.506 16.1676 177.506 15.5966V5.82955ZM187.392 18.2045C186.446 18.2045 185.63 17.9957 184.944 17.5781C184.262 17.1562 183.735 16.5682 183.365 15.8139C182.998 15.0554 182.815 14.1733 182.815 13.1676C182.815 12.1619 182.998 11.2756 183.365 10.5085C183.735 9.73722 184.251 9.13636 184.912 8.70597C185.576 8.27131 186.352 8.05398 187.238 8.05398C187.75 8.05398 188.255 8.1392 188.753 8.30966C189.252 8.48011 189.706 8.7571 190.115 9.14062C190.524 9.51989 190.85 10.0227 191.093 10.6491C191.336 11.2756 191.457 12.0469 191.457 12.9631V13.6023H183.889V12.2983H189.923C189.923 11.7443 189.812 11.25 189.591 10.8153C189.373 10.3807 189.062 10.0376 188.657 9.78622C188.257 9.5348 187.784 9.40909 187.238 9.40909C186.637 9.40909 186.118 9.55824 185.679 9.85653C185.244 10.1506 184.909 10.5341 184.675 11.0071C184.441 11.4801 184.324 11.9872 184.324 12.5284V13.3977C184.324 14.1392 184.451 14.7678 184.707 15.2834C184.967 15.7947 185.327 16.1847 185.787 16.4531C186.248 16.7173 186.782 16.8494 187.392 16.8494C187.788 16.8494 188.146 16.794 188.466 16.6832C188.789 16.5682 189.069 16.3977 189.303 16.1719C189.537 15.9418 189.718 15.6562 189.846 15.3153L191.304 15.7244C191.15 16.2188 190.892 16.6534 190.53 17.0284C190.168 17.3991 189.721 17.6889 189.188 17.8977C188.655 18.1023 188.056 18.2045 187.392 18.2045ZM39.9176 33.4545C39.9176 31.8437 40.1264 30.3629 40.544 29.0121C40.9659 27.657 41.5668 26.4105 42.3466 25.2727H43.6761C43.3693 25.6946 43.0817 26.2145 42.8132 26.8324C42.549 27.446 42.3168 28.1214 42.1165 28.8587C41.9162 29.5916 41.7585 30.3501 41.6435 31.1342C41.5327 31.9183 41.4773 32.6918 41.4773 33.4545C41.4773 34.4688 41.5753 35.4979 41.7713 36.5419C41.9673 37.5859 42.2315 38.5554 42.5639 39.4503C42.8963 40.3452 43.267 41.0739 43.6761 41.6364H42.3466C41.5668 40.4986 40.9659 39.2543 40.544 37.9034C40.1264 36.5483 39.9176 35.0653 39.9176 33.4545ZM56.6408 31H55.0556C54.9618 30.544 54.7978 30.1435 54.5634 29.7983C54.3333 29.4531 54.052 29.1634 53.7196 28.929C53.3915 28.6903 53.0272 28.5114 52.6266 28.392C52.226 28.2727 51.8084 28.2131 51.3738 28.2131C50.5811 28.2131 49.8631 28.4134 49.2196 28.8139C48.5804 29.2145 48.0712 29.8047 47.6919 30.5845C47.3169 31.3643 47.1294 32.321 47.1294 33.4545C47.1294 34.5881 47.3169 35.5447 47.6919 36.3246C48.0712 37.1044 48.5804 37.6946 49.2196 38.0952C49.8631 38.4957 50.5811 38.696 51.3738 38.696C51.8084 38.696 52.226 38.6364 52.6266 38.517C53.0272 38.3977 53.3915 38.2209 53.7196 37.9865C54.052 37.7479 54.3333 37.456 54.5634 37.1108C54.7978 36.7614 54.9618 36.3608 55.0556 35.9091H56.6408C56.5215 36.5781 56.3042 37.1768 55.9888 37.7053C55.6735 38.2337 55.2814 38.6832 54.8127 39.054C54.3439 39.4205 53.8176 39.6996 53.2338 39.8913C52.6543 40.0831 52.0343 40.179 51.3738 40.179C50.2573 40.179 49.2644 39.9062 48.3951 39.3608C47.5257 38.8153 46.8418 38.0398 46.3432 37.0341C45.8446 36.0284 45.5953 34.8352 45.5953 33.4545C45.5953 32.0739 45.8446 30.8807 46.3432 29.875C46.8418 28.8693 47.5257 28.0938 48.3951 27.5483C49.2644 27.0028 50.2573 26.7301 51.3738 26.7301C52.0343 26.7301 52.6543 26.826 53.2338 27.0178C53.8176 27.2095 54.3439 27.4908 54.8127 27.8615C55.2814 28.228 55.6735 28.6754 55.9888 29.2038C56.3042 29.728 56.5215 30.3267 56.6408 31ZM62.9865 40.2045C62.1001 40.2045 61.3224 39.9936 60.6534 39.5717C59.9886 39.1499 59.4688 38.5597 59.0938 37.8011C58.723 37.0426 58.5376 36.1562 58.5376 35.142C58.5376 34.1193 58.723 33.2266 59.0938 32.4638C59.4688 31.701 59.9886 31.1087 60.6534 30.6868C61.3224 30.2649 62.1001 30.054 62.9865 30.054C63.8729 30.054 64.6484 30.2649 65.3132 30.6868C65.9822 31.1087 66.5021 31.701 66.8729 32.4638C67.2479 33.2266 67.4354 34.1193 67.4354 35.142C67.4354 36.1562 67.2479 37.0426 66.8729 37.8011C66.5021 38.5597 65.9822 39.1499 65.3132 39.5717C64.6484 39.9936 63.8729 40.2045 62.9865 40.2045ZM62.9865 38.8494C63.6598 38.8494 64.2138 38.6768 64.6484 38.3317C65.0831 37.9865 65.4048 37.5327 65.6136 36.9702C65.8224 36.4077 65.9268 35.7983 65.9268 35.142C65.9268 34.4858 65.8224 33.8743 65.6136 33.3075C65.4048 32.7408 65.0831 32.2827 64.6484 31.9332C64.2138 31.5838 63.6598 31.4091 62.9865 31.4091C62.3132 31.4091 61.7592 31.5838 61.3246 31.9332C60.8899 32.2827 60.5682 32.7408 60.3594 33.3075C60.1506 33.8743 60.0462 34.4858 60.0462 35.142C60.0462 35.7983 60.1506 36.4077 60.3594 36.9702C60.5682 37.5327 60.8899 37.9865 61.3246 38.3317C61.7592 38.6768 62.3132 38.8494 62.9865 38.8494ZM69.7381 40V30.1818H71.1955V31.7159H71.3233C71.5279 31.1918 71.8581 30.7848 72.3141 30.495C72.7701 30.201 73.3176 30.054 73.9569 30.054C74.6046 30.054 75.1436 30.201 75.574 30.495C76.0087 30.7848 76.3475 31.1918 76.5904 31.7159H76.6926C76.9441 31.2088 77.3212 30.8061 77.824 30.5078C78.3269 30.2053 78.9299 30.054 79.633 30.054C80.5108 30.054 81.2289 30.3288 81.7871 30.8786C82.3453 31.424 82.6245 32.2741 82.6245 33.429V40H81.1159V33.429C81.1159 32.7045 80.9178 32.1868 80.5215 31.8757C80.1252 31.5646 79.6586 31.4091 79.1216 31.4091C78.4313 31.4091 77.8965 31.6179 77.5172 32.0355C77.138 32.4489 76.9483 32.973 76.9483 33.608V40H75.4142V33.2756C75.4142 32.7173 75.2331 32.2678 74.8709 31.9268C74.5087 31.5817 74.0421 31.4091 73.4711 31.4091C73.079 31.4091 72.7125 31.5135 72.3716 31.7223C72.035 31.9311 71.7623 32.2209 71.5534 32.5916C71.3489 32.9581 71.2466 33.3821 71.2466 33.8636V40H69.7381ZM85.3826 43.6818V30.1818H86.84V31.7415H87.019C87.1298 31.571 87.2832 31.3537 87.4792 31.0895C87.6795 30.821 87.965 30.5824 88.3358 30.3736C88.7108 30.1605 89.2179 30.054 89.8571 30.054C90.6838 30.054 91.4125 30.2607 92.0431 30.674C92.6738 31.0874 93.166 31.6733 93.5197 32.4318C93.8734 33.1903 94.0502 34.0852 94.0502 35.1165C94.0502 36.1562 93.8734 37.0575 93.5197 37.8203C93.166 38.5788 92.676 39.1669 92.0495 39.5845C91.4231 39.9979 90.7008 40.2045 89.8826 40.2045C89.252 40.2045 88.747 40.1001 88.3677 39.8913C87.9885 39.6783 87.6966 39.4375 87.492 39.169C87.2875 38.8963 87.1298 38.6705 87.019 38.4915H86.8912V43.6818H85.3826ZM86.8656 35.0909C86.8656 35.8324 86.9743 36.4865 87.1916 37.0533C87.4089 37.6158 87.7264 38.0568 88.144 38.3764C88.5616 38.6918 89.073 38.8494 89.6781 38.8494C90.3088 38.8494 90.8351 38.6832 91.2569 38.3509C91.6831 38.0142 92.0027 37.5625 92.2157 36.9957C92.4331 36.4247 92.5417 35.7898 92.5417 35.0909C92.5417 34.4006 92.4352 33.7784 92.2221 33.2244C92.0133 32.6662 91.6958 32.2251 91.2697 31.9013C90.8478 31.5732 90.3173 31.4091 89.6781 31.4091C89.0645 31.4091 88.5488 31.5646 88.1312 31.8757C87.7136 32.1825 87.3983 32.6129 87.1852 33.1669C86.9721 33.7166 86.8656 34.358 86.8656 35.0909ZM102.539 35.9858V30.1818H104.047V40H102.539V38.3381H102.437C102.206 38.8366 101.849 39.2607 101.363 39.6101C100.877 39.9553 100.263 40.1278 99.5218 40.1278C98.9082 40.1278 98.3627 39.9936 97.8855 39.7251C97.4082 39.4524 97.0332 39.0433 96.7605 38.4979C96.4877 37.9482 96.3514 37.2557 96.3514 36.4205V30.1818H97.8599V36.3182C97.8599 37.0341 98.0602 37.6051 98.4608 38.0312C98.8656 38.4574 99.3812 38.6705 100.008 38.6705C100.383 38.6705 100.764 38.5746 101.152 38.3828C101.544 38.1911 101.872 37.897 102.136 37.5007C102.405 37.1044 102.539 36.5994 102.539 35.9858ZM111.08 30.1818V31.4602H105.992V30.1818H111.08ZM107.475 27.8295H108.984V37.1875C108.984 37.6136 109.045 37.9332 109.169 38.1463C109.297 38.3551 109.459 38.4957 109.655 38.5682C109.855 38.6364 110.066 38.6705 110.288 38.6705C110.454 38.6705 110.59 38.6619 110.697 38.6449C110.803 38.6236 110.888 38.6065 110.952 38.5938L111.259 39.9489C111.157 39.9872 111.014 40.0256 110.831 40.0639C110.648 40.1065 110.415 40.1278 110.134 40.1278C109.708 40.1278 109.29 40.0362 108.881 39.853C108.477 39.6697 108.14 39.3906 107.871 39.0156C107.607 38.6406 107.475 38.1676 107.475 37.5966V27.8295ZM117.36 40.2045C116.414 40.2045 115.598 39.9957 114.912 39.5781C114.23 39.1562 113.704 38.5682 113.333 37.8139C112.967 37.0554 112.784 36.1733 112.784 35.1676C112.784 34.1619 112.967 33.2756 113.333 32.5085C113.704 31.7372 114.22 31.1364 114.88 30.706C115.545 30.2713 116.321 30.054 117.207 30.054C117.718 30.054 118.223 30.1392 118.722 30.3097C119.221 30.4801 119.674 30.7571 120.083 31.1406C120.493 31.5199 120.819 32.0227 121.061 32.6491C121.304 33.2756 121.426 34.0469 121.426 34.9631V35.6023H113.858V34.2983H119.892C119.892 33.7443 119.781 33.25 119.559 32.8153C119.342 32.3807 119.031 32.0376 118.626 31.7862C118.225 31.5348 117.752 31.4091 117.207 31.4091C116.606 31.4091 116.086 31.5582 115.647 31.8565C115.213 32.1506 114.878 32.5341 114.644 33.0071C114.409 33.4801 114.292 33.9872 114.292 34.5284V35.3977C114.292 36.1392 114.42 36.7678 114.676 37.2834C114.936 37.7947 115.296 38.1847 115.756 38.4531C116.216 38.7173 116.751 38.8494 117.36 38.8494C117.757 38.8494 118.115 38.794 118.434 38.6832C118.758 38.5682 119.037 38.3977 119.272 38.1719C119.506 37.9418 119.687 37.6562 119.815 37.3153L121.272 37.7244C121.119 38.2188 120.861 38.6534 120.499 39.0284C120.137 39.3991 119.689 39.6889 119.157 39.8977C118.624 40.1023 118.025 40.2045 117.36 40.2045ZM123.721 40V30.1818H125.178V31.6648H125.28C125.459 31.179 125.783 30.7848 126.252 30.4822C126.721 30.1797 127.249 30.0284 127.837 30.0284C127.948 30.0284 128.086 30.0305 128.252 30.0348C128.419 30.0391 128.544 30.0455 128.63 30.054V31.5881C128.578 31.5753 128.461 31.5561 128.278 31.5305C128.099 31.5007 127.909 31.4858 127.709 31.4858C127.232 31.4858 126.806 31.5859 126.431 31.7862C126.06 31.9822 125.766 32.255 125.549 32.6044C125.336 32.9496 125.229 33.3437 125.229 33.7869V40H123.721ZM142.844 30.1818C142.767 29.5341 142.456 29.0312 141.911 28.6733C141.365 28.3153 140.696 28.1364 139.904 28.1364C139.324 28.1364 138.817 28.2301 138.382 28.4176C137.952 28.6051 137.615 28.8629 137.372 29.1911C137.134 29.5192 137.014 29.892 137.014 30.3097C137.014 30.6591 137.097 30.9595 137.264 31.2109C137.434 31.4581 137.651 31.6648 137.916 31.831C138.18 31.9929 138.457 32.1271 138.747 32.2337C139.036 32.3359 139.303 32.419 139.546 32.483L140.875 32.8409C141.216 32.9304 141.595 33.054 142.013 33.2116C142.435 33.3693 142.838 33.5845 143.221 33.8572C143.609 34.1257 143.928 34.4709 144.18 34.8928C144.431 35.3146 144.557 35.8324 144.557 36.446C144.557 37.1534 144.372 37.7926 144.001 38.3636C143.634 38.9347 143.097 39.3885 142.39 39.7251C141.687 40.0618 140.833 40.2301 139.827 40.2301C138.889 40.2301 138.078 40.0788 137.392 39.7763C136.71 39.4737 136.173 39.0518 135.781 38.5107C135.393 37.9695 135.173 37.3409 135.122 36.625H136.759C136.801 37.1193 136.968 37.5284 137.257 37.8523C137.551 38.1719 137.922 38.4105 138.369 38.5682C138.821 38.7216 139.307 38.7983 139.827 38.7983C140.432 38.7983 140.975 38.7003 141.457 38.5043C141.938 38.304 142.32 38.027 142.601 37.6733C142.882 37.3153 143.023 36.8977 143.023 36.4205C143.023 35.9858 142.901 35.6321 142.659 35.3594C142.416 35.0866 142.096 34.8651 141.7 34.6946C141.303 34.5241 140.875 34.375 140.415 34.2472L138.804 33.7869C137.781 33.4929 136.972 33.0732 136.375 32.5277C135.779 31.9822 135.48 31.2685 135.48 30.3864C135.48 29.6534 135.678 29.0142 136.075 28.4688C136.475 27.919 137.012 27.4929 137.686 27.1903C138.363 26.8835 139.119 26.7301 139.955 26.7301C140.798 26.7301 141.548 26.8814 142.205 27.1839C142.861 27.4822 143.381 27.8913 143.764 28.4112C144.152 28.9311 144.357 29.5213 144.378 30.1818H142.844ZM150.947 40.2045C150.027 40.2045 149.234 39.9872 148.57 39.5526C147.905 39.1179 147.393 38.5192 147.036 37.7564C146.678 36.9936 146.499 36.1222 146.499 35.142C146.499 34.1449 146.682 33.2649 147.048 32.5021C147.419 31.7351 147.935 31.1364 148.595 30.706C149.26 30.2713 150.036 30.054 150.922 30.054C151.612 30.054 152.234 30.1818 152.788 30.4375C153.342 30.6932 153.796 31.0511 154.15 31.5114C154.504 31.9716 154.723 32.5085 154.808 33.1222H153.3C153.185 32.6747 152.929 32.2784 152.533 31.9332C152.141 31.5838 151.612 31.4091 150.947 31.4091C150.359 31.4091 149.844 31.5625 149.401 31.8693C148.962 32.1719 148.619 32.6001 148.371 33.1541C148.129 33.7038 148.007 34.3494 148.007 35.0909C148.007 35.8494 148.126 36.5099 148.365 37.0724C148.608 37.6349 148.949 38.0717 149.388 38.3828C149.831 38.6939 150.351 38.8494 150.947 38.8494C151.339 38.8494 151.695 38.7812 152.015 38.6449C152.335 38.5085 152.605 38.3125 152.827 38.0568C153.048 37.8011 153.206 37.4943 153.3 37.1364H154.808C154.723 37.7159 154.512 38.2379 154.175 38.7024C153.843 39.1626 153.402 39.5291 152.852 39.8018C152.307 40.0703 151.672 40.2045 150.947 40.2045ZM157.013 40V30.1818H158.522V40H157.013ZM157.781 28.5455C157.487 28.5455 157.233 28.4453 157.02 28.245C156.811 28.0447 156.707 27.804 156.707 27.5227C156.707 27.2415 156.811 27.0007 157.02 26.8004C157.233 26.6001 157.487 26.5 157.781 26.5C158.075 26.5 158.326 26.6001 158.535 26.8004C158.748 27.0007 158.854 27.2415 158.854 27.5227C158.854 27.804 158.748 28.0447 158.535 28.245C158.326 28.4453 158.075 28.5455 157.781 28.5455ZM165.401 40.2045C164.455 40.2045 163.639 39.9957 162.953 39.5781C162.271 39.1562 161.745 38.5682 161.374 37.8139C161.008 37.0554 160.825 36.1733 160.825 35.1676C160.825 34.1619 161.008 33.2756 161.374 32.5085C161.745 31.7372 162.261 31.1364 162.921 30.706C163.586 30.2713 164.362 30.054 165.248 30.054C165.759 30.054 166.264 30.1392 166.763 30.3097C167.262 30.4801 167.715 30.7571 168.124 31.1406C168.534 31.5199 168.86 32.0227 169.102 32.6491C169.345 33.2756 169.467 34.0469 169.467 34.9631V35.6023H161.899V34.2983H167.933C167.933 33.7443 167.822 33.25 167.6 32.8153C167.383 32.3807 167.072 32.0376 166.667 31.7862C166.267 31.5348 165.794 31.4091 165.248 31.4091C164.647 31.4091 164.127 31.5582 163.688 31.8565C163.254 32.1506 162.919 32.5341 162.685 33.0071C162.45 33.4801 162.333 33.9872 162.333 34.5284V35.3977C162.333 36.1392 162.461 36.7678 162.717 37.2834C162.977 37.7947 163.337 38.1847 163.797 38.4531C164.257 38.7173 164.792 38.8494 165.401 38.8494C165.798 38.8494 166.156 38.794 166.475 38.6832C166.799 38.5682 167.078 38.3977 167.313 38.1719C167.547 37.9418 167.728 37.6562 167.856 37.3153L169.313 37.7244C169.16 38.2188 168.902 38.6534 168.54 39.0284C168.178 39.3991 167.73 39.6889 167.198 39.8977C166.665 40.1023 166.066 40.2045 165.401 40.2045ZM173.27 34.0938V40H171.762V30.1818H173.219V31.7159H173.347C173.577 31.2173 173.926 30.8168 174.395 30.5142C174.864 30.2074 175.469 30.054 176.21 30.054C176.875 30.054 177.457 30.1903 177.955 30.4631C178.454 30.7315 178.842 31.1406 179.119 31.6903C179.396 32.2358 179.534 32.9261 179.534 33.7614V40H178.026V33.8636C178.026 33.0923 177.825 32.4915 177.425 32.0611C177.024 31.6264 176.475 31.4091 175.776 31.4091C175.294 31.4091 174.864 31.5135 174.485 31.7223C174.11 31.9311 173.813 32.2358 173.596 32.6364C173.379 33.0369 173.27 33.5227 173.27 34.0938ZM186.279 40.2045C185.359 40.2045 184.566 39.9872 183.902 39.5526C183.237 39.1179 182.725 38.5192 182.368 37.7564C182.01 36.9936 181.831 36.1222 181.831 35.142C181.831 34.1449 182.014 33.2649 182.38 32.5021C182.751 31.7351 183.267 31.1364 183.927 30.706C184.592 30.2713 185.368 30.054 186.254 30.054C186.944 30.054 187.566 30.1818 188.12 30.4375C188.674 30.6932 189.128 31.0511 189.482 31.5114C189.836 31.9716 190.055 32.5085 190.14 33.1222H188.632C188.517 32.6747 188.261 32.2784 187.865 31.9332C187.473 31.5838 186.944 31.4091 186.279 31.4091C185.691 31.4091 185.176 31.5625 184.733 31.8693C184.294 32.1719 183.951 32.6001 183.703 33.1541C183.461 33.7038 183.339 34.3494 183.339 35.0909C183.339 35.8494 183.458 36.5099 183.697 37.0724C183.94 37.6349 184.281 38.0717 184.72 38.3828C185.163 38.6939 185.683 38.8494 186.279 38.8494C186.672 38.8494 187.027 38.7812 187.347 38.6449C187.667 38.5085 187.937 38.3125 188.159 38.0568C188.38 37.8011 188.538 37.4943 188.632 37.1364H190.14C190.055 37.7159 189.844 38.2379 189.507 38.7024C189.175 39.1626 188.734 39.5291 188.184 39.8018C187.639 40.0703 187.004 40.2045 186.279 40.2045ZM196.462 40.2045C195.516 40.2045 194.7 39.9957 194.014 39.5781C193.332 39.1562 192.806 38.5682 192.435 37.8139C192.069 37.0554 191.885 36.1733 191.885 35.1676C191.885 34.1619 192.069 33.2756 192.435 32.5085C192.806 31.7372 193.321 31.1364 193.982 30.706C194.647 30.2713 195.422 30.054 196.309 30.054C196.82 30.054 197.325 30.1392 197.824 30.3097C198.322 30.4801 198.776 30.7571 199.185 31.1406C199.594 31.5199 199.92 32.0227 200.163 32.6491C200.406 33.2756 200.527 34.0469 200.527 34.9631V35.6023H192.959V34.2983H198.993C198.993 33.7443 198.882 33.25 198.661 32.8153C198.444 32.3807 198.132 32.0376 197.728 31.7862C197.327 31.5348 196.854 31.4091 196.309 31.4091C195.708 31.4091 195.188 31.5582 194.749 31.8565C194.314 32.1506 193.98 32.5341 193.745 33.0071C193.511 33.4801 193.394 33.9872 193.394 34.5284V35.3977C193.394 36.1392 193.522 36.7678 193.777 37.2834C194.037 37.7947 194.397 38.1847 194.858 38.4531C195.318 38.7173 195.853 38.8494 196.462 38.8494C196.858 38.8494 197.216 38.794 197.536 38.6832C197.86 38.5682 198.139 38.3977 198.373 38.1719C198.608 37.9418 198.789 37.6562 198.917 37.3153L200.374 37.7244C200.221 38.2188 199.963 38.6534 199.6 39.0284C199.238 39.3991 198.791 39.6889 198.258 39.8977C197.725 40.1023 197.127 40.2045 196.462 40.2045ZM206.044 34.4773C206.044 36.0881 205.833 37.571 205.411 38.9261C204.993 40.277 204.395 41.5213 203.615 42.6591H202.285C202.592 42.2372 202.877 41.7173 203.142 41.0994C203.41 40.4858 203.645 39.8125 203.845 39.0795C204.045 38.3423 204.201 37.5817 204.311 36.7976C204.426 36.0092 204.484 35.2358 204.484 34.4773C204.484 33.4631 204.386 32.4339 204.19 31.3899C203.994 30.3459 203.73 29.3764 203.397 28.4815C203.065 27.5866 202.694 26.858 202.285 26.2955H203.615C204.395 27.4332 204.993 28.6797 205.411 30.0348C205.833 31.3857 206.044 32.8665 206.044 34.4773Z" fill="white"/>
<path d="M16.83 79.6399C17.5 79.1999 18.38 79.6799 18.38 80.4799V81.7699C18.38 83.0399 17.39 84.3999 16.2 84.7999L13.01 85.8599C12.45 86.0499 11.54 86.0499 10.99 85.8599L7.8 84.7999C6.6 84.3999 5.62 83.0399 5.62 81.7699V80.4699C5.62 79.6799 6.5 79.1999 7.16 79.6299L9.22 80.9699C10.01 81.4999 11.01 81.7599 12.01 81.7599C13.01 81.7599 14.01 81.4999 14.8 80.9699L16.83 79.6399Z" fill="#F2C94C"/>
<path d="M19.98 70.4601L13.99 66.5301C12.91 65.8201 11.13 65.8201 10.05 66.5301L4.03 70.4601C2.1 71.7101 2.1 74.5401 4.03 75.8001L5.63 76.8401L10.05 79.7201C11.13 80.4301 12.91 80.4301 13.99 79.7201L18.38 76.8401L19.75 75.9401V79.0001C19.75 79.4101 20.09 79.7501 20.5 79.7501C20.91 79.7501 21.25 79.4101 21.25 79.0001V74.0801C21.65 72.7901 21.24 71.2901 19.98 70.4601Z" fill="#F2C94C"/>
<path d="M39.5852 84V70.9091H44.0085C45.0355 70.9091 45.875 71.0945 46.527 71.4652C47.1832 71.8317 47.669 72.3281 47.9844 72.9545C48.2997 73.581 48.4574 74.2798 48.4574 75.0511C48.4574 75.8224 48.2997 76.5234 47.9844 77.1541C47.6733 77.7848 47.1918 78.2876 46.5398 78.6626C45.8878 79.0334 45.0526 79.2188 44.0341 79.2188H40.8636V77.8125H43.983C44.6861 77.8125 45.2507 77.6911 45.6768 77.4482C46.103 77.2053 46.4119 76.8771 46.6037 76.4638C46.7997 76.0462 46.8977 75.5753 46.8977 75.0511C46.8977 74.527 46.7997 74.0582 46.6037 73.6449C46.4119 73.2315 46.1009 72.9077 45.6705 72.6733C45.2401 72.4347 44.669 72.3153 43.9574 72.3153H41.1705V84H39.5852ZM50.8065 84V74.1818H52.2638V75.6648H52.3661C52.5451 75.179 52.869 74.7848 53.3377 74.4822C53.8065 74.1797 54.3349 74.0284 54.9229 74.0284C55.0337 74.0284 55.1722 74.0305 55.3384 74.0348C55.5046 74.0391 55.6303 74.0455 55.7156 74.054V75.5881C55.6644 75.5753 55.5472 75.5561 55.364 75.5305C55.185 75.5007 54.9954 75.4858 54.7951 75.4858C54.3178 75.4858 53.8917 75.5859 53.5167 75.7862C53.146 75.9822 52.8519 76.255 52.6346 76.6044C52.4215 76.9496 52.315 77.3437 52.315 77.7869V84H50.8065ZM61.3214 84.2045C60.3754 84.2045 59.5593 83.9957 58.8732 83.5781C58.1914 83.1562 57.6651 82.5682 57.2944 81.8139C56.9279 81.0554 56.7447 80.1733 56.7447 79.1676C56.7447 78.1619 56.9279 77.2756 57.2944 76.5085C57.6651 75.7372 58.1808 75.1364 58.8413 74.706C59.506 74.2713 60.2816 74.054 61.168 74.054C61.6793 74.054 62.1843 74.1392 62.6829 74.3097C63.1815 74.4801 63.6353 74.7571 64.0444 75.1406C64.4535 75.5199 64.7795 76.0227 65.0224 76.6491C65.2653 77.2756 65.3867 78.0469 65.3867 78.9631V79.6023H57.8185V78.2983H63.8526C63.8526 77.7443 63.7418 77.25 63.5202 76.8153C63.3029 76.3807 62.9918 76.0376 62.587 75.7862C62.1864 75.5348 61.7134 75.4091 61.168 75.4091C60.5671 75.4091 60.0472 75.5582 59.6083 75.8565C59.1737 76.1506 58.8391 76.5341 58.6048 77.0071C58.3704 77.4801 58.2532 77.9872 58.2532 78.5284V79.3977C58.2532 80.1392 58.381 80.7678 58.6367 81.2834C58.8967 81.7947 59.2567 82.1847 59.717 82.4531C60.1772 82.7173 60.712 82.8494 61.3214 82.8494C61.7177 82.8494 62.0756 82.794 62.3952 82.6832C62.7191 82.5682 62.9982 82.3977 63.2326 82.1719C63.467 81.9418 63.6481 81.6562 63.7759 81.3153L65.2333 81.7244C65.0799 82.2188 64.8221 82.6534 64.4599 83.0284C64.0977 83.3991 63.6502 83.6889 63.1175 83.8977C62.5849 84.1023 61.9862 84.2045 61.3214 84.2045ZM74.636 76.3807L73.2809 76.7642C73.1957 76.5384 73.07 76.3189 72.9038 76.1058C72.7418 75.8885 72.5202 75.7095 72.239 75.5689C71.9577 75.4283 71.5977 75.358 71.1587 75.358C70.5579 75.358 70.0572 75.4964 69.6566 75.7734C69.2603 76.0462 69.0621 76.3935 69.0621 76.8153C69.0621 77.1903 69.1985 77.4865 69.4712 77.7038C69.744 77.9212 70.1701 78.1023 70.7496 78.2472L72.207 78.6051C73.0849 78.8182 73.739 79.1442 74.1694 79.5831C74.5998 80.0178 74.815 80.5781 74.815 81.2642C74.815 81.8267 74.6531 82.3295 74.3292 82.7727C74.0096 83.2159 73.5621 83.5653 72.9869 83.821C72.4116 84.0767 71.7425 84.2045 70.9798 84.2045C69.9783 84.2045 69.1495 83.9872 68.4933 83.5526C67.837 83.1179 67.4215 82.483 67.2468 81.6477L68.6786 81.2898C68.815 81.8182 69.0728 82.2145 69.4521 82.4787C69.8356 82.7429 70.3363 82.875 70.9542 82.875C71.6573 82.875 72.2156 82.7259 72.6289 82.4276C73.0465 82.125 73.2553 81.7628 73.2553 81.3409C73.2553 81 73.136 80.7145 72.8974 80.4844C72.6587 80.25 72.2923 80.0753 71.7979 79.9602L70.1616 79.5767C69.2624 79.3636 68.6019 79.0334 68.18 78.5859C67.7624 78.1342 67.5536 77.5696 67.5536 76.892C67.5536 76.3381 67.7092 75.848 68.0202 75.4219C68.3356 74.9957 68.7638 74.6612 69.305 74.4183C69.8505 74.1754 70.4684 74.054 71.1587 74.054C72.1303 74.054 72.8931 74.267 73.4471 74.6932C74.0053 75.1193 74.4016 75.6818 74.636 76.3807ZM81.3556 74.1818V75.4602H76.2676V74.1818H81.3556ZM77.7505 71.8295H79.2591V81.1875C79.2591 81.6136 79.3208 81.9332 79.4444 82.1463C79.5723 82.3551 79.7342 82.4957 79.9302 82.5682C80.1305 82.6364 80.3414 82.6705 80.563 82.6705C80.7292 82.6705 80.8656 82.6619 80.9721 82.6449C81.0787 82.6236 81.1639 82.6065 81.2278 82.5938L81.5346 83.9489C81.4324 83.9872 81.2896 84.0256 81.1064 84.0639C80.9231 84.1065 80.6909 84.1278 80.4096 84.1278C79.9835 84.1278 79.5659 84.0362 79.1568 83.853C78.752 83.6697 78.4153 83.3906 78.1468 83.0156C77.8826 82.6406 77.7505 82.1676 77.7505 81.5966V71.8295ZM86.514 84.2301C85.8919 84.2301 85.3272 84.1129 84.8201 83.8786C84.313 83.6399 83.9103 83.2969 83.612 82.8494C83.3137 82.3977 83.1646 81.8523 83.1646 81.2131C83.1646 80.6506 83.2754 80.1946 83.497 79.8452C83.7186 79.4915 84.0147 79.2145 84.3855 79.0142C84.7562 78.8139 85.1653 78.6648 85.6127 78.5668C86.0645 78.4645 86.5183 78.3835 86.9743 78.3239C87.5708 78.2472 88.0545 78.1896 88.4252 78.1513C88.8002 78.1087 89.073 78.0384 89.2434 77.9403C89.4181 77.8423 89.5055 77.6719 89.5055 77.429V77.3778C89.5055 76.7472 89.3329 76.2571 88.9877 75.9077C88.6468 75.5582 88.1291 75.3835 87.4345 75.3835C86.7143 75.3835 86.1497 75.5412 85.7406 75.8565C85.3315 76.1719 85.0439 76.5085 84.8777 76.8665L83.4458 76.3551C83.7015 75.7585 84.0424 75.294 84.4686 74.9616C84.899 74.625 85.3677 74.3906 85.8748 74.2585C86.3862 74.1222 86.889 74.054 87.3833 74.054C87.6987 74.054 88.0609 74.0923 88.47 74.169C88.8833 74.2415 89.2818 74.3928 89.6653 74.6229C90.0531 74.853 90.3748 75.2003 90.6305 75.6648C90.8862 76.1293 91.014 76.7514 91.014 77.5312V84H89.5055V82.6705H89.4288C89.3265 82.8835 89.1561 83.1115 88.9174 83.3544C88.6788 83.5973 88.3613 83.804 87.965 83.9744C87.5687 84.1449 87.0851 84.2301 86.514 84.2301ZM86.7441 82.875C87.3407 82.875 87.8436 82.7578 88.2527 82.5234C88.666 82.2891 88.9771 81.9865 89.1859 81.6158C89.399 81.245 89.5055 80.8551 89.5055 80.446V79.0653C89.4416 79.142 89.301 79.2124 89.0836 79.2763C88.8706 79.3359 88.6234 79.3892 88.3422 79.4361C88.0652 79.4787 87.7946 79.517 87.5304 79.5511C87.2704 79.581 87.0595 79.6065 86.8976 79.6278C86.5055 79.679 86.139 79.7621 85.7981 79.8771C85.4615 79.9879 85.1887 80.1562 84.9799 80.3821C84.7754 80.6037 84.6731 80.9062 84.6731 81.2898C84.6731 81.8139 84.867 82.2102 85.2548 82.4787C85.6468 82.7429 86.1433 82.875 86.7441 82.875ZM100.722 76.3807L99.3668 76.7642C99.2816 76.5384 99.1559 76.3189 98.9897 76.1058C98.8278 75.8885 98.6062 75.7095 98.3249 75.5689C98.0437 75.4283 97.6836 75.358 97.2447 75.358C96.6438 75.358 96.1431 75.4964 95.7425 75.7734C95.3462 76.0462 95.1481 76.3935 95.1481 76.8153C95.1481 77.1903 95.2844 77.4865 95.5572 77.7038C95.8299 77.9212 96.256 78.1023 96.8356 78.2472L98.293 78.6051C99.1708 78.8182 99.8249 79.1442 100.255 79.5831C100.686 80.0178 100.901 80.5781 100.901 81.2642C100.901 81.8267 100.739 82.3295 100.415 82.7727C100.096 83.2159 99.6481 83.5653 99.0728 83.821C98.4975 84.0767 97.8285 84.2045 97.0657 84.2045C96.0643 84.2045 95.2354 83.9872 94.5792 83.5526C93.9229 83.1179 93.5075 82.483 93.3327 81.6477L94.7646 81.2898C94.9009 81.8182 95.1587 82.2145 95.538 82.4787C95.9215 82.7429 96.4222 82.875 97.0401 82.875C97.7433 82.875 98.3015 82.7259 98.7148 82.4276C99.1325 82.125 99.3413 81.7628 99.3413 81.3409C99.3413 81 99.2219 80.7145 98.9833 80.4844C98.7447 80.25 98.3782 80.0753 97.8839 79.9602L96.2475 79.5767C95.3484 79.3636 94.6879 79.0334 94.266 78.5859C93.8484 78.1342 93.6396 77.5696 93.6396 76.892C93.6396 76.3381 93.7951 75.848 94.1062 75.4219C94.4215 74.9957 94.8498 74.6612 95.391 74.4183C95.9364 74.1754 96.5543 74.054 97.2447 74.054C98.2163 74.054 98.979 74.267 99.533 74.6932C100.091 75.1193 100.488 75.6818 100.722 76.3807ZM103.172 84V74.1818H104.68V84H103.172ZM103.939 72.5455C103.645 72.5455 103.391 72.4453 103.178 72.245C102.969 72.0447 102.865 71.804 102.865 71.5227C102.865 71.2415 102.969 71.0007 103.178 70.8004C103.391 70.6001 103.645 70.5 103.939 70.5C104.233 70.5 104.484 70.6001 104.693 70.8004C104.906 71.0007 105.013 71.2415 105.013 71.5227C105.013 71.804 104.906 72.0447 104.693 72.245C104.484 72.4453 104.233 72.5455 103.939 72.5455ZM112.71 84V70.9091H117.134C118.161 70.9091 119 71.0945 119.652 71.4652C120.308 71.8317 120.794 72.3281 121.109 72.9545C121.425 73.581 121.582 74.2798 121.582 75.0511C121.582 75.8224 121.425 76.5234 121.109 77.1541C120.798 77.7848 120.317 78.2876 119.665 78.6626C119.013 79.0334 118.178 79.2188 117.159 79.2188H113.989V77.8125H117.108C117.811 77.8125 118.376 77.6911 118.802 77.4482C119.228 77.2053 119.537 76.8771 119.729 76.4638C119.925 76.0462 120.023 75.5753 120.023 75.0511C120.023 74.527 119.925 74.0582 119.729 73.6449C119.537 73.2315 119.226 72.9077 118.795 72.6733C118.365 72.4347 117.794 72.3153 117.082 72.3153H114.295V84H112.71ZM123.931 84V74.1818H125.389V75.6648H125.491C125.67 75.179 125.994 74.7848 126.463 74.4822C126.931 74.1797 127.46 74.0284 128.048 74.0284C128.159 74.0284 128.297 74.0305 128.463 74.0348C128.63 74.0391 128.755 74.0455 128.841 74.054V75.5881C128.789 75.5753 128.672 75.5561 128.489 75.5305C128.31 75.5007 128.12 75.4858 127.92 75.4858C127.443 75.4858 127.017 75.5859 126.642 75.7862C126.271 75.9822 125.977 76.255 125.76 76.6044C125.547 76.9496 125.44 77.3437 125.44 77.7869V84H123.931ZM130.629 84V74.1818H132.137V84H130.629ZM131.396 72.5455C131.102 72.5455 130.848 72.4453 130.635 72.245C130.426 72.0447 130.322 71.804 130.322 71.5227C130.322 71.2415 130.426 71.0007 130.635 70.8004C130.848 70.6001 131.102 70.5 131.396 70.5C131.69 70.5 131.941 70.6001 132.15 70.8004C132.363 71.0007 132.47 71.2415 132.47 71.5227C132.47 71.804 132.363 72.0447 132.15 72.245C131.941 72.4453 131.69 72.5455 131.396 72.5455ZM134.9 84V74.1818H136.358V75.7159H136.485C136.69 75.1918 137.02 74.7848 137.476 74.495C137.932 74.201 138.48 74.054 139.119 74.054C139.767 74.054 140.306 74.201 140.736 74.495C141.171 74.7848 141.51 75.1918 141.752 75.7159H141.855C142.106 75.2088 142.483 74.8061 142.986 74.5078C143.489 74.2053 144.092 74.054 144.795 74.054C145.673 74.054 146.391 74.3288 146.949 74.8786C147.507 75.424 147.787 76.2741 147.787 77.429V84H146.278V77.429C146.278 76.7045 146.08 76.1868 145.684 75.8757C145.287 75.5646 144.821 75.4091 144.284 75.4091C143.593 75.4091 143.059 75.6179 142.679 76.0355C142.3 76.4489 142.11 76.973 142.11 77.608V84H140.576V77.2756C140.576 76.7173 140.395 76.2678 140.033 75.9268C139.671 75.5817 139.204 75.4091 138.633 75.4091C138.241 75.4091 137.875 75.5135 137.534 75.7223C137.197 75.9311 136.924 76.2209 136.716 76.5916C136.511 76.9581 136.409 77.3821 136.409 77.8636V84H134.9ZM153.434 84.2301C152.812 84.2301 152.247 84.1129 151.74 83.8786C151.233 83.6399 150.83 83.2969 150.532 82.8494C150.234 82.3977 150.085 81.8523 150.085 81.2131C150.085 80.6506 150.195 80.1946 150.417 79.8452C150.638 79.4915 150.935 79.2145 151.305 79.0142C151.676 78.8139 152.085 78.6648 152.533 78.5668C152.984 78.4645 153.438 78.3835 153.894 78.3239C154.491 78.2472 154.974 78.1896 155.345 78.1513C155.72 78.1087 155.993 78.0384 156.163 77.9403C156.338 77.8423 156.425 77.6719 156.425 77.429V77.3778C156.425 76.7472 156.253 76.2571 155.908 75.9077C155.567 75.5582 155.049 75.3835 154.354 75.3835C153.634 75.3835 153.07 75.5412 152.661 75.8565C152.251 76.1719 151.964 76.5085 151.798 76.8665L150.366 76.3551C150.621 75.7585 150.962 75.294 151.388 74.9616C151.819 74.625 152.288 74.3906 152.795 74.2585C153.306 74.1222 153.809 74.054 154.303 74.054C154.619 74.054 154.981 74.0923 155.39 74.169C155.803 74.2415 156.202 74.3928 156.585 74.6229C156.973 74.853 157.295 75.2003 157.55 75.6648C157.806 76.1293 157.934 76.7514 157.934 77.5312V84H156.425V82.6705H156.349C156.246 82.8835 156.076 83.1115 155.837 83.3544C155.599 83.5973 155.281 83.804 154.885 83.9744C154.489 84.1449 154.005 84.2301 153.434 84.2301ZM153.664 82.875C154.261 82.875 154.763 82.7578 155.173 82.5234C155.586 82.2891 155.897 81.9865 156.106 81.6158C156.319 81.245 156.425 80.8551 156.425 80.446V79.0653C156.362 79.142 156.221 79.2124 156.004 79.2763C155.79 79.3359 155.543 79.3892 155.262 79.4361C154.985 79.4787 154.714 79.517 154.45 79.5511C154.19 79.581 153.979 79.6065 153.817 79.6278C153.425 79.679 153.059 79.7621 152.718 79.8771C152.381 79.9879 152.109 80.1562 151.9 80.3821C151.695 80.6037 151.593 80.9062 151.593 81.2898C151.593 81.8139 151.787 82.2102 152.175 82.4787C152.567 82.7429 153.063 82.875 153.664 82.875ZM166.491 70.9091L170.378 81.929H170.531L174.417 70.9091H176.079L171.273 84H169.636L164.829 70.9091H166.491ZM178.118 84V70.9091H179.704V76.7386H186.684V70.9091H188.269V84H186.684V78.1449H179.704V84H178.118ZM198.602 74.1818C198.525 73.5341 198.214 73.0312 197.669 72.6733C197.123 72.3153 196.454 72.1364 195.661 72.1364C195.082 72.1364 194.575 72.2301 194.14 72.4176C193.71 72.6051 193.373 72.8629 193.13 73.1911C192.892 73.5192 192.772 73.892 192.772 74.3097C192.772 74.6591 192.855 74.9595 193.021 75.2109C193.192 75.4581 193.409 75.6648 193.673 75.831C193.938 75.9929 194.215 76.1271 194.504 76.2337C194.794 76.3359 195.061 76.419 195.303 76.483L196.633 76.8409C196.974 76.9304 197.353 77.054 197.771 77.2116C198.193 77.3693 198.595 77.5845 198.979 77.8572C199.367 78.1257 199.686 78.4709 199.938 78.8928C200.189 79.3146 200.315 79.8324 200.315 80.446C200.315 81.1534 200.129 81.7926 199.759 82.3636C199.392 82.9347 198.855 83.3885 198.148 83.7251C197.445 84.0618 196.59 84.2301 195.585 84.2301C194.647 84.2301 193.835 84.0788 193.149 83.7763C192.468 83.4737 191.931 83.0518 191.539 82.5107C191.151 81.9695 190.931 81.3409 190.88 80.625H192.517C192.559 81.1193 192.725 81.5284 193.015 81.8523C193.309 82.1719 193.68 82.4105 194.127 82.5682C194.579 82.7216 195.065 82.7983 195.585 82.7983C196.19 82.7983 196.733 82.7003 197.215 82.5043C197.696 82.304 198.078 82.027 198.359 81.6733C198.64 81.3153 198.781 80.8977 198.781 80.4205C198.781 79.9858 198.659 79.6321 198.416 79.3594C198.173 79.0866 197.854 78.8651 197.458 78.6946C197.061 78.5241 196.633 78.375 196.173 78.2472L194.562 77.7869C193.539 77.4929 192.73 77.0732 192.133 76.5277C191.536 75.9822 191.238 75.2685 191.238 74.3864C191.238 73.6534 191.436 73.0142 191.833 72.4688C192.233 71.919 192.77 71.4929 193.443 71.1903C194.121 70.8835 194.877 70.7301 195.713 70.7301C196.556 70.7301 197.306 70.8814 197.963 71.1839C198.619 71.4822 199.139 71.8913 199.522 72.4112C199.91 72.9311 200.115 73.5213 200.136 74.1818H198.602ZM39.9176 99.4545C39.9176 97.8437 40.1264 96.3629 40.544 95.0121C40.9659 93.657 41.5668 92.4105 42.3466 91.2727H43.6761C43.3693 91.6946 43.0817 92.2145 42.8132 92.8324C42.549 93.446 42.3168 94.1214 42.1165 94.8587C41.9162 95.5916 41.7585 96.3501 41.6435 97.1342C41.5327 97.9183 41.4773 98.6918 41.4773 99.4545C41.4773 100.469 41.5753 101.498 41.7713 102.542C41.9673 103.586 42.2315 104.555 42.5639 105.45C42.8963 106.345 43.267 107.074 43.6761 107.636H42.3466C41.5668 106.499 40.9659 105.254 40.544 103.903C40.1264 102.548 39.9176 101.065 39.9176 99.4545ZM53.2658 96.1818C53.1891 95.5341 52.878 95.0312 52.3326 94.6733C51.7871 94.3153 51.1181 94.1364 50.3255 94.1364C49.7459 94.1364 49.2388 94.2301 48.8042 94.4176C48.3738 94.6051 48.0371 94.8629 47.7942 95.1911C47.5556 95.5192 47.4363 95.892 47.4363 96.3097C47.4363 96.6591 47.5194 96.9595 47.6855 97.2109C47.856 97.4581 48.0733 97.6648 48.3375 97.831C48.6017 97.9929 48.8787 98.1271 49.1685 98.2337C49.4583 98.3359 49.7246 98.419 49.9675 98.483L51.2971 98.8409C51.638 98.9304 52.0172 99.054 52.4348 99.2116C52.8567 99.3693 53.2594 99.5845 53.6429 99.8572C54.0307 100.126 54.3503 100.471 54.6017 100.893C54.8532 101.315 54.9789 101.832 54.9789 102.446C54.9789 103.153 54.7935 103.793 54.4228 104.364C54.0563 104.935 53.5194 105.388 52.812 105.725C52.1088 106.062 51.2544 106.23 50.2488 106.23C49.3113 106.23 48.4995 106.079 47.8134 105.776C47.1316 105.474 46.5946 105.052 46.2026 104.511C45.8148 103.969 45.5953 103.341 45.5442 102.625H47.1806C47.2232 103.119 47.3894 103.528 47.6792 103.852C47.9732 104.172 48.3439 104.411 48.7914 104.568C49.2431 104.722 49.7289 104.798 50.2488 104.798C50.8539 104.798 51.3972 104.7 51.8787 104.504C52.3603 104.304 52.7417 104.027 53.0229 103.673C53.3042 103.315 53.4448 102.898 53.4448 102.42C53.4448 101.986 53.3233 101.632 53.0804 101.359C52.8375 101.087 52.5179 100.865 52.1216 100.695C51.7253 100.524 51.2971 100.375 50.8368 100.247L49.226 99.7869C48.2033 99.4929 47.3936 99.0732 46.7971 98.5277C46.2005 97.9822 45.9022 97.2685 45.9022 96.3864C45.9022 95.6534 46.1003 95.0142 46.4966 94.4688C46.8972 93.919 47.4341 93.4929 48.1074 93.1903C48.785 92.8835 49.5414 92.7301 50.3766 92.7301C51.2203 92.7301 51.9703 92.8814 52.6266 93.1839C53.2828 93.4822 53.8027 93.8913 54.1863 94.4112C54.574 94.9311 54.7786 95.5213 54.7999 96.1818H53.2658ZM61.3693 106.205C60.483 106.205 59.7053 105.994 59.0362 105.572C58.3714 105.15 57.8516 104.56 57.4766 103.801C57.1058 103.043 56.9205 102.156 56.9205 101.142C56.9205 100.119 57.1058 99.2266 57.4766 98.4638C57.8516 97.701 58.3714 97.1087 59.0362 96.6868C59.7053 96.2649 60.483 96.054 61.3693 96.054C62.2557 96.054 63.0313 96.2649 63.696 96.6868C64.3651 97.1087 64.8849 97.701 65.2557 98.4638C65.6307 99.2266 65.8182 100.119 65.8182 101.142C65.8182 102.156 65.6307 103.043 65.2557 103.801C64.8849 104.56 64.3651 105.15 63.696 105.572C63.0313 105.994 62.2557 106.205 61.3693 106.205ZM61.3693 104.849C62.0426 104.849 62.5966 104.677 63.0312 104.332C63.4659 103.987 63.7876 103.533 63.9964 102.97C64.2053 102.408 64.3097 101.798 64.3097 101.142C64.3097 100.486 64.2053 99.8743 63.9964 99.3075C63.7876 98.7408 63.4659 98.2827 63.0312 97.9332C62.5966 97.5838 62.0426 97.4091 61.3693 97.4091C60.696 97.4091 60.142 97.5838 59.7074 97.9332C59.2727 98.2827 58.951 98.7408 58.7422 99.3075C58.5334 99.8743 58.429 100.486 58.429 101.142C58.429 101.798 58.5334 102.408 58.7422 102.97C58.951 103.533 59.2727 103.987 59.7074 104.332C60.142 104.677 60.696 104.849 61.3693 104.849ZM72.4931 96.1818V97.4602H67.2005V96.1818H72.4931ZM68.7857 106V94.8267C68.7857 94.2642 68.9178 93.7955 69.182 93.4205C69.4462 93.0455 69.7892 92.7642 70.2111 92.5767C70.633 92.3892 71.0783 92.2955 71.5471 92.2955C71.9178 92.2955 72.2203 92.3253 72.4547 92.3849C72.6891 92.4446 72.8638 92.5 72.9789 92.5511L72.5442 93.8551C72.4675 93.8295 72.361 93.7976 72.2246 93.7592C72.0925 93.7209 71.9178 93.7017 71.7005 93.7017C71.2019 93.7017 70.8418 93.8274 70.6202 94.0788C70.4029 94.3303 70.2942 94.6989 70.2942 95.1847V106H68.7857ZM78.8771 96.1818V97.4602H73.7891V96.1818H78.8771ZM75.272 93.8295H76.7805V103.188C76.7805 103.614 76.8423 103.933 76.9659 104.146C77.0938 104.355 77.2557 104.496 77.4517 104.568C77.652 104.636 77.8629 104.67 78.0845 104.67C78.2507 104.67 78.3871 104.662 78.4936 104.645C78.6001 104.624 78.6854 104.607 78.7493 104.594L79.0561 105.949C78.9538 105.987 78.8111 106.026 78.6278 106.064C78.4446 106.107 78.2124 106.128 77.9311 106.128C77.505 106.128 77.0874 106.036 76.6783 105.853C76.2734 105.67 75.9368 105.391 75.6683 105.016C75.4041 104.641 75.272 104.168 75.272 103.597V93.8295ZM83.3707 106L80.3793 96.1818H81.9645L84.0866 103.699H84.1889L86.2855 96.1818H87.8963L89.9673 103.673H90.0696L92.1918 96.1818H93.777L90.7855 106H89.3026L87.1548 98.4574H87.0014L84.8537 106H83.3707ZM98.6605 106.23C98.0384 106.23 97.4737 106.113 96.9666 105.879C96.4595 105.64 96.0568 105.297 95.7585 104.849C95.4602 104.398 95.3111 103.852 95.3111 103.213C95.3111 102.651 95.4219 102.195 95.6435 101.845C95.8651 101.491 96.1612 101.214 96.532 101.014C96.9027 100.814 97.3118 100.665 97.7592 100.567C98.2109 100.464 98.6648 100.384 99.1207 100.324C99.7173 100.247 100.201 100.19 100.572 100.151C100.947 100.109 101.219 100.038 101.39 99.9403C101.565 99.8423 101.652 99.6719 101.652 99.429V99.3778C101.652 98.7472 101.479 98.2571 101.134 97.9077C100.793 97.5582 100.276 97.3835 99.581 97.3835C98.8608 97.3835 98.2962 97.5412 97.8871 97.8565C97.478 98.1719 97.1903 98.5085 97.0241 98.8665L95.5923 98.3551C95.848 97.7585 96.1889 97.294 96.6151 96.9616C97.0455 96.625 97.5142 96.3906 98.0213 96.2585C98.5327 96.1222 99.0355 96.054 99.5298 96.054C99.8452 96.054 100.207 96.0923 100.616 96.169C101.03 96.2415 101.428 96.3928 101.812 96.6229C102.2 96.853 102.521 97.2003 102.777 97.6648C103.033 98.1293 103.161 98.7514 103.161 99.5312V106H101.652V104.67H101.575C101.473 104.884 101.303 105.112 101.064 105.354C100.825 105.597 100.508 105.804 100.112 105.974C99.7152 106.145 99.2315 106.23 98.6605 106.23ZM98.8906 104.875C99.4872 104.875 99.9901 104.758 100.399 104.523C100.813 104.289 101.124 103.987 101.332 103.616C101.545 103.245 101.652 102.855 101.652 102.446V101.065C101.588 101.142 101.447 101.212 101.23 101.276C101.017 101.336 100.77 101.389 100.489 101.436C100.212 101.479 99.9411 101.517 99.6768 101.551C99.4169 101.581 99.206 101.607 99.044 101.628C98.652 101.679 98.2855 101.762 97.9446 101.877C97.608 101.988 97.3352 102.156 97.1264 102.382C96.9219 102.604 96.8196 102.906 96.8196 103.29C96.8196 103.814 97.0135 104.21 97.4013 104.479C97.7933 104.743 98.2898 104.875 98.8906 104.875ZM105.914 106V96.1818H107.371V97.6648H107.474C107.653 97.179 107.976 96.7848 108.445 96.4822C108.914 96.1797 109.442 96.0284 110.03 96.0284C110.141 96.0284 110.28 96.0305 110.446 96.0348C110.612 96.0391 110.738 96.0455 110.823 96.054V97.5881C110.772 97.5753 110.655 97.5561 110.471 97.5305C110.292 97.5007 110.103 97.4858 109.903 97.4858C109.425 97.4858 108.999 97.5859 108.624 97.7862C108.253 97.9822 107.959 98.255 107.742 98.6044C107.529 98.9496 107.422 99.3437 107.422 99.7869V106H105.914ZM116.429 106.205C115.483 106.205 114.667 105.996 113.981 105.578C113.299 105.156 112.773 104.568 112.402 103.814C112.035 103.055 111.852 102.173 111.852 101.168C111.852 100.162 112.035 99.2756 112.402 98.5085C112.773 97.7372 113.288 97.1364 113.949 96.706C114.613 96.2713 115.389 96.054 116.275 96.054C116.787 96.054 117.292 96.1392 117.79 96.3097C118.289 96.4801 118.743 96.7571 119.152 97.1406C119.561 97.5199 119.887 98.0227 120.13 98.6491C120.373 99.2756 120.494 100.047 120.494 100.963V101.602H112.926V100.298H118.96C118.96 99.7443 118.849 99.25 118.628 98.8153C118.41 98.3807 118.099 98.0376 117.694 97.7862C117.294 97.5348 116.821 97.4091 116.275 97.4091C115.675 97.4091 115.155 97.5582 114.716 97.8565C114.281 98.1506 113.947 98.5341 113.712 99.0071C113.478 99.4801 113.361 99.9872 113.361 100.528V101.398C113.361 102.139 113.488 102.768 113.744 103.283C114.004 103.795 114.364 104.185 114.824 104.453C115.285 104.717 115.819 104.849 116.429 104.849C116.825 104.849 117.183 104.794 117.503 104.683C117.827 104.568 118.106 104.398 118.34 104.172C118.574 103.942 118.756 103.656 118.883 103.315L120.341 103.724C120.187 104.219 119.93 104.653 119.567 105.028C119.205 105.399 118.758 105.689 118.225 105.898C117.692 106.102 117.094 106.205 116.429 106.205ZM128.056 106V92.9091H135.956V94.3153H129.641V98.7386H135.547V100.145H129.641V104.594H136.059V106H128.056ZM140.118 100.094V106H138.609V96.1818H140.067V97.7159H140.194C140.425 97.2173 140.774 96.8168 141.243 96.5142C141.711 96.2074 142.317 96.054 143.058 96.054C143.723 96.054 144.305 96.1903 144.803 96.4631C145.302 96.7315 145.689 97.1406 145.966 97.6903C146.243 98.2358 146.382 98.9261 146.382 99.7614V106H144.873V99.8636C144.873 99.0923 144.673 98.4915 144.273 98.0611C143.872 97.6264 143.322 97.4091 142.623 97.4091C142.142 97.4091 141.711 97.5135 141.332 97.7223C140.957 97.9311 140.661 98.2358 140.444 98.6364C140.226 99.0369 140.118 99.5227 140.118 100.094ZM153.102 109.886C152.373 109.886 151.746 109.793 151.222 109.605C150.698 109.422 150.261 109.179 149.912 108.876C149.567 108.578 149.292 108.259 149.087 107.918L150.289 107.074C150.425 107.253 150.598 107.457 150.807 107.688C151.016 107.922 151.301 108.124 151.663 108.295C152.03 108.469 152.509 108.557 153.102 108.557C153.894 108.557 154.548 108.365 155.064 107.982C155.58 107.598 155.837 106.997 155.837 106.179V104.185H155.71C155.599 104.364 155.441 104.585 155.237 104.849C155.036 105.109 154.746 105.342 154.367 105.546C153.992 105.746 153.485 105.847 152.846 105.847C152.053 105.847 151.342 105.659 150.711 105.284C150.085 104.909 149.588 104.364 149.222 103.648C148.859 102.932 148.678 102.062 148.678 101.04C148.678 100.034 148.855 99.1584 149.209 98.4126C149.563 97.6626 150.055 97.0831 150.685 96.674C151.316 96.2607 152.045 96.054 152.871 96.054C153.511 96.054 154.018 96.1605 154.393 96.3736C154.772 96.5824 155.062 96.821 155.262 97.0895C155.467 97.3537 155.624 97.571 155.735 97.7415H155.888V96.1818H157.346V106.281C157.346 107.125 157.154 107.811 156.771 108.339C156.391 108.872 155.88 109.262 155.237 109.509C154.597 109.761 153.886 109.886 153.102 109.886ZM153.05 104.491C153.656 104.491 154.167 104.353 154.585 104.076C155.002 103.799 155.32 103.401 155.537 102.881C155.754 102.361 155.863 101.739 155.863 101.014C155.863 100.307 155.756 99.6825 155.543 99.1413C155.33 98.6001 155.015 98.1761 154.597 97.8693C154.18 97.5625 153.664 97.4091 153.05 97.4091C152.411 97.4091 151.879 97.571 151.452 97.8949C151.031 98.2187 150.713 98.6534 150.5 99.1989C150.291 99.7443 150.187 100.349 150.187 101.014C150.187 101.696 150.293 102.299 150.506 102.823C150.724 103.343 151.043 103.752 151.465 104.05C151.891 104.344 152.42 104.491 153.05 104.491ZM160.107 106V96.1818H161.616V106H160.107ZM160.874 94.5455C160.58 94.5455 160.327 94.4453 160.114 94.245C159.905 94.0447 159.8 93.804 159.8 93.5227C159.8 93.2415 159.905 93.0007 160.114 92.8004C160.327 92.6001 160.58 92.5 160.874 92.5C161.168 92.5 161.42 92.6001 161.629 92.8004C161.842 93.0007 161.948 93.2415 161.948 93.5227C161.948 93.804 161.842 94.0447 161.629 94.245C161.42 94.4453 161.168 94.5455 160.874 94.5455ZM165.887 100.094V106H164.379V96.1818H165.836V97.7159H165.964C166.194 97.2173 166.544 96.8168 167.012 96.5142C167.481 96.2074 168.086 96.054 168.828 96.054C169.492 96.054 170.074 96.1903 170.573 96.4631C171.071 96.7315 171.459 97.1406 171.736 97.6903C172.013 98.2358 172.151 98.9261 172.151 99.7614V106H170.643V99.8636C170.643 99.0923 170.443 98.4915 170.042 98.0611C169.642 97.6264 169.092 97.4091 168.393 97.4091C167.911 97.4091 167.481 97.5135 167.102 97.7223C166.727 97.9311 166.431 98.2358 166.213 98.6364C165.996 99.0369 165.887 99.5227 165.887 100.094ZM179.025 106.205C178.078 106.205 177.262 105.996 176.576 105.578C175.895 105.156 175.368 104.568 174.998 103.814C174.631 103.055 174.448 102.173 174.448 101.168C174.448 100.162 174.631 99.2756 174.998 98.5085C175.368 97.7372 175.884 97.1364 176.544 96.706C177.209 96.2713 177.985 96.054 178.871 96.054C179.382 96.054 179.887 96.1392 180.386 96.3097C180.885 96.4801 181.338 96.7571 181.748 97.1406C182.157 97.5199 182.483 98.0227 182.725 98.6491C182.968 99.2756 183.09 100.047 183.09 100.963V101.602H175.522V100.298H181.556C181.556 99.7443 181.445 99.25 181.223 98.8153C181.006 98.3807 180.695 98.0376 180.29 97.7862C179.89 97.5348 179.417 97.4091 178.871 97.4091C178.27 97.4091 177.75 97.5582 177.311 97.8565C176.877 98.1506 176.542 98.5341 176.308 99.0071C176.074 99.4801 175.956 99.9872 175.956 100.528V101.398C175.956 102.139 176.084 102.768 176.34 103.283C176.6 103.795 176.96 104.185 177.42 104.453C177.88 104.717 178.415 104.849 179.025 104.849C179.421 104.849 179.779 104.794 180.098 104.683C180.422 104.568 180.701 104.398 180.936 104.172C181.17 103.942 181.351 103.656 181.479 103.315L182.936 103.724C182.783 104.219 182.525 104.653 182.163 105.028C181.801 105.399 181.353 105.689 180.821 105.898C180.288 106.102 179.689 106.205 179.025 106.205ZM189.501 106.205C188.555 106.205 187.739 105.996 187.053 105.578C186.371 105.156 185.845 104.568 185.474 103.814C185.108 103.055 184.924 102.173 184.924 101.168C184.924 100.162 185.108 99.2756 185.474 98.5085C185.845 97.7372 186.36 97.1364 187.021 96.706C187.686 96.2713 188.461 96.054 189.348 96.054C189.859 96.054 190.364 96.1392 190.863 96.3097C191.361 96.4801 191.815 96.7571 192.224 97.1406C192.633 97.5199 192.959 98.0227 193.202 98.6491C193.445 99.2756 193.566 100.047 193.566 100.963V101.602H185.998V100.298H192.032C192.032 99.7443 191.922 99.25 191.7 98.8153C191.483 98.3807 191.172 98.0376 190.767 97.7862C190.366 97.5348 189.893 97.4091 189.348 97.4091C188.747 97.4091 188.227 97.5582 187.788 97.8565C187.353 98.1506 187.019 98.5341 186.784 99.0071C186.55 99.4801 186.433 99.9872 186.433 100.528V101.398C186.433 102.139 186.561 102.768 186.816 103.283C187.076 103.795 187.436 104.185 187.897 104.453C188.357 104.717 188.892 104.849 189.501 104.849C189.897 104.849 190.255 104.794 190.575 104.683C190.899 104.568 191.178 104.398 191.412 104.172C191.647 103.942 191.828 103.656 191.956 103.315L193.413 103.724C193.26 104.219 193.002 104.653 192.64 105.028C192.277 105.399 191.83 105.689 191.297 105.898C190.765 106.102 190.166 106.205 189.501 106.205ZM195.861 106V96.1818H197.319V97.6648H197.421C197.6 97.179 197.924 96.7848 198.392 96.4822C198.861 96.1797 199.39 96.0284 199.978 96.0284C200.088 96.0284 200.227 96.0305 200.393 96.0348C200.559 96.0391 200.685 96.0455 200.77 96.054V97.5881C200.719 97.5753 200.602 97.5561 200.419 97.5305C200.24 97.5007 200.05 97.4858 199.85 97.4858C199.373 97.4858 198.946 97.5859 198.571 97.7862C198.201 97.9822 197.907 98.255 197.689 98.6044C197.476 98.9496 197.37 99.3437 197.37 99.7869V106H195.861ZM202.558 106V96.1818H204.067V106H202.558ZM203.325 94.5455C203.031 94.5455 202.778 94.4453 202.565 94.245C202.356 94.0447 202.252 93.804 202.252 93.5227C202.252 93.2415 202.356 93.0007 202.565 92.8004C202.778 92.6001 203.031 92.5 203.325 92.5C203.619 92.5 203.871 92.6001 204.08 92.8004C204.293 93.0007 204.399 93.2415 204.399 93.5227C204.399 93.804 204.293 94.0447 204.08 94.245C203.871 94.4453 203.619 94.5455 203.325 94.5455ZM208.338 100.094V106H206.83V96.1818H208.287V97.7159H208.415C208.645 97.2173 208.995 96.8168 209.463 96.5142C209.932 96.2074 210.537 96.054 211.279 96.054C211.944 96.054 212.525 96.1903 213.024 96.4631C213.522 96.7315 213.91 97.1406 214.187 97.6903C214.464 98.2358 214.603 98.9261 214.603 99.7614V106H213.094V99.8636C213.094 99.0923 212.894 98.4915 212.493 98.0611C212.093 97.6264 211.543 97.4091 210.844 97.4091C210.363 97.4091 209.932 97.5135 209.553 97.7223C209.178 97.9311 208.882 98.2358 208.664 98.6364C208.447 99.0369 208.338 99.5227 208.338 100.094ZM221.322 109.886C220.594 109.886 219.967 109.793 219.443 109.605C218.919 109.422 218.482 109.179 218.133 108.876C217.787 108.578 217.513 108.259 217.308 107.918L218.51 107.074C218.646 107.253 218.819 107.457 219.028 107.688C219.236 107.922 219.522 108.124 219.884 108.295C220.251 108.469 220.73 108.557 221.322 108.557C222.115 108.557 222.769 108.365 223.285 107.982C223.8 107.598 224.058 106.997 224.058 106.179V104.185H223.93C223.819 104.364 223.662 104.585 223.457 104.849C223.257 105.109 222.967 105.342 222.588 105.546C222.213 105.746 221.706 105.847 221.067 105.847C220.274 105.847 219.562 105.659 218.932 105.284C218.305 104.909 217.809 104.364 217.442 103.648C217.08 102.932 216.899 102.062 216.899 101.04C216.899 100.034 217.076 99.1584 217.43 98.4126C217.783 97.6626 218.275 97.0831 218.906 96.674C219.537 96.2607 220.265 96.054 221.092 96.054C221.731 96.054 222.238 96.1605 222.613 96.3736C222.993 96.5824 223.282 96.821 223.483 97.0895C223.687 97.3537 223.845 97.571 223.956 97.7415H224.109V96.1818H225.567V106.281C225.567 107.125 225.375 107.811 224.991 108.339C224.612 108.872 224.101 109.262 223.457 109.509C222.818 109.761 222.106 109.886 221.322 109.886ZM221.271 104.491C221.876 104.491 222.388 104.353 222.805 104.076C223.223 103.799 223.54 103.401 223.758 102.881C223.975 102.361 224.084 101.739 224.084 101.014C224.084 100.307 223.977 99.6825 223.764 99.1413C223.551 98.6001 223.236 98.1761 222.818 97.8693C222.4 97.5625 221.885 97.4091 221.271 97.4091C220.632 97.4091 220.099 97.571 219.673 97.8949C219.251 98.2187 218.934 98.6534 218.721 99.1989C218.512 99.7443 218.407 100.349 218.407 101.014C218.407 101.696 218.514 102.299 218.727 102.823C218.944 103.343 219.264 103.752 219.686 104.05C220.112 104.344 220.64 104.491 221.271 104.491ZM231.55 100.477C231.55 102.088 231.339 103.571 230.917 104.926C230.499 106.277 229.9 107.521 229.121 108.659H227.791C228.098 108.237 228.383 107.717 228.648 107.099C228.916 106.486 229.15 105.812 229.351 105.08C229.551 104.342 229.706 103.582 229.817 102.798C229.932 102.009 229.99 101.236 229.99 100.477C229.99 99.4631 229.892 98.4339 229.696 97.3899C229.5 96.3459 229.236 95.3764 228.903 94.4815C228.571 93.5866 228.2 92.858 227.791 92.2955H229.121C229.9 93.4332 230.499 94.6797 230.917 96.0348C231.339 97.3857 231.55 98.8665 231.55 100.477Z" fill="white"/>
</svg>
