<svg width="27" height="26" viewBox="0 0 27 26" fill="none" xmlns="http://www.w3.org/2000/svg">
<path d="M26.6209 0.108564C26.4969 0.0921595 26.3463 0.0616059 26.1645 0.0443786C25.9817 0.0281792 25.7691 0.0140303 25.5273 0.00152131C25.0515 0.00685269 24.457 0.0132098 23.7799 0.191815C23.1066 0.359757 22.3379 0.688668 21.6328 1.24623C21.2822 1.52305 20.9482 1.84829 20.6365 2.19875C20.3283 2.54878 20.0395 2.93042 19.7667 3.30875C19.2219 4.07218 18.7154 4.8395 18.1417 5.44996C17.562 6.05486 16.9236 6.48878 16.1367 6.74779L15.841 6.84396L15.5278 6.9145C15.3242 6.97089 15.0962 6.98627 14.8807 7.02954C14.6594 7.0605 14.4277 7.07178 14.202 7.09598L13.5411 7.113L12.7578 7.09331C12.5451 7.0683 12.3358 7.05927 12.1197 7.02892C11.9045 6.98668 11.6767 6.96843 11.4726 6.91245L11.1597 6.8419L10.864 6.74614C10.0786 6.48449 9.43882 6.05405 8.86105 5.44774C8.28728 4.83748 7.78105 4.06996 7.23628 3.30652C6.96369 2.92819 6.67345 2.54698 6.36641 2.19615C6.0547 1.84571 5.71968 1.52091 5.36947 1.24348C4.66319 0.685719 3.89444 0.356786 3.22058 0.189065C2.54304 0.0112812 1.94825 0.00471929 1.47259 0C1.23344 0.013329 1.02185 0.0272728 0.83925 0.0434727C0.657457 0.0611078 0.503629 0.0914561 0.379193 0.108477C0.131736 0.150514 0 0.172867 0 0.172867C0 0.172867 0.130112 0.203421 0.374124 0.261043C0.495317 0.289546 0.645094 0.315385 0.817361 0.36357C0.989021 0.41545 1.18541 0.469993 1.40245 0.52905C1.82845 0.680177 2.34506 0.846276 2.8586 1.14791C3.37459 1.44094 3.8906 1.83323 4.3314 2.36884C4.77748 2.90381 5.15951 3.57071 5.55756 4.36138C5.96249 5.14429 6.39194 6.06316 7.0893 6.97589C7.54652 7.57816 8.15877 8.15151 8.85841 8.59688C6.09179 9.93775 4.1178 12.754 4.04542 16.1787C3.9451 20.9478 8.38757 24.9747 12.7846 25.8362C18.0077 26.8592 22.8401 22.9689 22.9537 17.5709C22.8767 13.9141 20.4722 10.7329 17.3161 9.03521C18.3588 8.5767 19.28 7.80342 19.9078 6.97337C20.6046 6.06127 21.034 5.14219 21.439 4.35907C21.8372 3.5684 22.2194 2.90129 22.6657 2.3659C23.1078 1.83008 23.6238 1.43779 24.1404 1.14497C24.6543 0.843741 25.1711 0.677852 25.5969 0.527318C25.8116 0.46908 26.0065 0.414128 26.1784 0.362452C26.3515 0.314263 26.5049 0.289043 26.6259 0.260129C26.8699 0.203125 27 0.172568 27 0.172568C26.9998 0.172568 26.8679 0.150011 26.6206 0.108178L26.6209 0.108564ZM20.7192 16.1788C20.6363 20.1252 18.0311 23.4866 14.2152 24.4047C12.2438 24.8788 9.83166 24.6305 8.38817 23.11C6.99039 21.6379 6.32297 19.5769 6.28084 17.5708C6.20565 13.996 8.59814 10.8483 11.8162 9.64299C12.0961 9.68318 12.3859 9.70676 12.6713 9.73608L13.4587 9.76602L13.9345 9.75105L14.3692 9.73321C14.6639 9.70061 14.9558 9.67949 15.2508 9.63376C15.5478 9.57696 15.841 9.54067 16.1369 9.44736L16.4182 9.36821C17.2483 9.60075 18.0136 10.0094 18.6121 10.6394C20.0093 12.1117 20.6767 14.1725 20.7192 16.1786L20.7192 16.1788Z" fill="#F2C94C"/>
</svg>
